<svg xmlns="http://www.w3.org/2000/svg" width="48.136" height="31.969" viewBox="0 0 48.136 31.969">
  <g id="arteries" transform="translate(48.136 -8.025) rotate(90)">
    <g id="Group_9281" data-name="Group 9281">
      <path id="Path_17065" data-name="Path 17065" d="M33,42c-1,0-3-2-3-5a9.77,9.77,0,0,0-1-4,1,1,0,0,1,1.8-.86A11.76,11.76,0,0,1,32,37a3.38,3.38,0,0,0,1.46,3.11A1,1,0,0,1,33,42Z" fill="#c4455e"/>
      <path id="Path_17066" data-name="Path 17066" d="M14.65,36.14c-2,0-.87-3.86,2.89-5.07a8.24,8.24,0,0,0,1-.41,1,1,0,0,1,.88,1.8,9.46,9.46,0,0,1-1.28.51C15,34,16.19,36.14,14.65,36.14Z" fill="#c4455e"/>
      <path id="Path_17067" data-name="Path 17067" d="M27.29,23.84a5.88,5.88,0,0,0,4-2.61c1.93-2.95,4-8,7.37-9.18a1,1,0,1,1,.64,1.9c-2.53.84-4.55,5.66-6.33,8.37a7.91,7.91,0,0,1-5.28,3.48,1,1,0,1,1-.4-1.96Z" fill="#c4455e"/>
      <path id="Path_17068" data-name="Path 17068" d="M32.06,22.91a1,1,0,0,1-.16-2c2-.33,3.41-1.87,6.42-.87a1,1,0,1,1-.64,1.9c-2.41-.79-3.81.97-5.62.97Z" fill="#c4455e"/>
      <path id="Path_17069" data-name="Path 17069" d="M29,12c-.26,0-2.6-.1-4.83-3.45a8.09,8.09,0,0,0-2.64-2.38,1,1,0,0,1,1-1.72,9.93,9.93,0,0,1,3.28,3C27.46,9.89,29,10,29,10a1,1,0,1,1,0,2Z" fill="#c4455e"/>
    </g>
    <path id="Path_17070" data-name="Path 17070" d="M11.13,19.93c-1.81.67-3.06-3.21-1.26-3.86S12.88,19.18,11.13,19.93Z" fill="#db5669"/>
    <path id="Path_17071" data-name="Path 17071" d="M11.91,19c-1.17.17-2.23-1.56-1.82-3C11.26,15.85,12.32,17.58,11.91,19Z" fill="#f26674"/>
    <path id="Path_17072" data-name="Path 17072" d="M35.62,34c.12,0-4.89.36-10.64-4.55A92.649,92.649,0,0,1,23.36,47l-6.09.06c3.65-20.25.68-21.73-.48-31a15.5,15.5,0,0,1-5.46,3.79c1.54-1,.21-4.39-1.46-3.77A15.8,15.8,0,0,0,16.22,9.9C16,6.56,16,3.45,16,1h6a93.121,93.121,0,0,0,1.53,19.09l.09.14c.08.12,5.19,8.32,12.31,8.78C33.64,29.29,33.23,33.5,35.62,34Z" fill="#db5669"/>
    <path id="Path_17073" data-name="Path 17073" d="M35.62,34c.12,0-4.89.36-10.64-4.55A89.59,89.59,0,0,1,23.69,45a3.61,3.61,0,0,1-3.62-3.6c0-.85,2-12.11.21-18.55a57.281,57.281,0,0,1-1.49-7.8,15.16,15.16,0,0,1-1.91,1.72l-.09-.72a15.85,15.85,0,0,1-3.45,2.78c1.53-1,.19-4.38-1.47-3.76a15.8,15.8,0,0,0,6.35-6.18C18.05,6,18,3.27,18,1h4a93.121,93.121,0,0,0,1.53,19.09l.09.14c.08.12,5.19,8.32,12.31,8.78C33.64,29.29,33.24,33.5,35.62,34Z" fill="#f26674"/>
    <path id="Path_17074" data-name="Path 17074" d="M36,29h.32" fill="#db5669"/>
    <path id="Path_17075" data-name="Path 17075" d="M38,31.81A2.39,2.39,0,0,1,35.87,34c-1.14,0-2.07-1.24-1.83-2.81A2.44,2.44,0,0,1,36,29c1.07-.15,2.23,1.07,2,2.81Z" fill="#db5669"/>
    <path id="Path_17076" data-name="Path 17076" d="M37.61,32.83c-2,.9-3.31-1.8-2.23-3.64C37.06,28.25,38.82,30.7,37.61,32.83Z" fill="#f26674"/>
    <path id="Path_17077" data-name="Path 17077" d="M17.78,15.92a1,1,0,0,0-1.72-.55A16.52,16.52,0,0,1,13,17.9a3.58,3.58,0,0,0-.94-2,15.78,15.78,0,0,0,5.09-5.53c.23-.47-.19-2.85-.11-9.32a1,1,0,1,0-2,0c0,2,0,5.14.2,8.69a15.86,15.86,0,0,1-5.86,5.54c-2.83,1.36-.79,6.73,2.13,5.65a15.52,15.52,0,0,0,4.59-2.76c1,6.71,2,6.41,1.93,12.77-.15.06-.31.14-.46.19-3.75,1.21-4.89,5.07-2.89,5.07,1.51,0,.35-2,3.3-3.08-.51,12-2.85,14.63-.86,15a1,1,0,0,0,1.16-.8c3.66-20.53.72-21.99-.5-31.4ZM10.22,17c.17-.06.55.36.69.81s.1,1.33-.25,1.16a1.34,1.34,0,0,1-.57-.78c-.09,0-.15-1.08.13-1.19Z"/>
    <path id="Path_17078" data-name="Path 17078" d="M38.68,12.05c-2.6.87-4.41,4.07-6,6.88-1.43,2.53-2.13,4-4.88,4.79a25.21,25.21,0,0,1-3.3-4A76.541,76.541,0,0,1,23.11,7.34a7,7,0,0,1,1.06,1.21C26.4,11.9,28.74,12,29,12a1,1,0,0,0,0-2c-.07,0-1.57-.11-3.2-2.56A9.65,9.65,0,0,0,23,4.77V1a1,1,0,1,0-2,0,93.789,93.789,0,0,0,1.57,19.3c.17.78,3.37,4.61,4.34,5.32a16.8,16.8,0,0,0,6.66,4,4,4,0,0,0-.43,3.07,17.5,17.5,0,0,1-7.51-4,1,1,0,0,0-1.65.79,93.591,93.591,0,0,1-1.6,17.37,1.014,1.014,0,0,0,2,.34A103.74,103.74,0,0,0,26,31.5a20.45,20.45,0,0,0,3.11,1.84A9.35,9.35,0,0,1,30,37a5.31,5.31,0,0,0,2.55,4.89,1,1,0,0,0,.91-1.78A3.38,3.38,0,0,1,32,37c0-4.51-2.31-2,4-2a3.36,3.36,0,0,0,3-3c.32-2.08-1-4.07-3-3.95a12.06,12.06,0,0,1-6.47-2.78,7.46,7.46,0,0,0,3.13-2.42c2.17-.49,3-1.55,5-.86a1,1,0,0,0,.64-1.9c-3.12-1-4.39.72-3.91-.13,1.42-2.5,3-5.34,4.91-6a1,1,0,1,0-.62-1.91ZM36.33,32.83c-.79.59-1.46-.44-1.3-1.49.08-.58.45-1.24,1-1.32C37.23,30,37.3,32.12,36.33,32.83Z"/>
  </g>
</svg>
