<svg id="atm-card" xmlns="http://www.w3.org/2000/svg" width="24" height="16.774" viewBox="0 0 24 16.774">
  <g id="Group_253" data-name="Group 253" transform="translate(0 3.175)">
    <path id="Path_565" data-name="Path 565" d="M51.214,156.538a2.57,2.57,0,1,1,2.57-2.57A2.57,2.57,0,0,1,51.214,156.538Zm0-3.946a1.376,1.376,0,1,0,1.376,1.376A1.376,1.376,0,0,0,51.214,152.592Zm0,0" transform="translate(-45.741 -145.536)" fill="#6e78f7"/>
    <path id="Path_566" data-name="Path 566" d="M93.9,156.538a2.57,2.57,0,1,1,2.57-2.57A2.57,2.57,0,0,1,93.9,156.538Zm0-3.946a1.376,1.376,0,1,0,1.376,1.376A1.376,1.376,0,0,0,93.9,152.592Zm0,0" transform="translate(-85.841 -145.536)" fill="#6e78f7"/>
    <path id="Path_567" data-name="Path 567" d="M23.4,54.385H.6a.6.6,0,1,1,0-1.194H23.4a.6.6,0,1,1,0,1.194Zm0,0" transform="translate(0 -53.191)" fill="#6e78f7"/>
  </g>
  <path id="Path_568" data-name="Path 568" d="M24,2.985A2.992,2.992,0,0,0,21,0H3A2.992,2.992,0,0,0,0,2.985v10.8a2.992,2.992,0,0,0,3,2.985H21a2.992,2.992,0,0,0,3-2.985ZM3,1.194H21a1.821,1.821,0,0,1,1.8,1.818V6.447H1.2V3.012A1.821,1.821,0,0,1,3,1.194ZM21,15.64H3a1.821,1.821,0,0,1-1.8-1.818V7.641H22.8v6.181A1.821,1.821,0,0,1,21,15.64Zm0,0" fill="#6e78f7"/>
</svg>
