<svg xmlns="http://www.w3.org/2000/svg" width="37.675" height="37.675" viewBox="0 0 37.675 37.675">
  <g id="Icons" transform="translate(-8 -8)">
    <g id="Group_8937" data-name="Group 8937" transform="translate(8 8)">
      <path id="Path_15902" data-name="Path 15902" d="M35.57,30H49.7a1.569,1.569,0,0,1,1.57,1.57v10.2a8.634,8.634,0,0,1-17.268,0V31.57A1.569,1.569,0,0,1,35.57,30Z" transform="translate(-13.593 -12.732)" fill="#00a0c8"/>
      <path id="Path_15903" data-name="Path 15903" d="M37.042,46h4.506a.785.785,0,0,1,.785.785v4.5a.789.789,0,0,1-.974.768,7.085,7.085,0,0,1-5.085-5.093A.784.784,0,0,1,37.042,46Z" transform="translate(-14.077 -16.174)" fill="#fab400"/>
      <path id="Path_15904" data-name="Path 15904" d="M52.059,46.961a7.085,7.085,0,0,1-5.085,5.093A.788.788,0,0,1,46,51.286v-4.5A.785.785,0,0,1,46.785,46h4.506A.783.783,0,0,1,52.059,46.961Z" transform="translate(-16.174 -16.174)" fill="#c80a50"/>
      <path id="Path_15905" data-name="Path 15905" d="M36.785,32H49.343a.785.785,0,0,1,.785.785v7.064a.785.785,0,0,1-.785.785H36.785A.785.785,0,0,1,36,39.849V32.785A.785.785,0,0,1,36.785,32Z" transform="translate(-14.023 -13.162)" fill="#f0f0f0"/>
      <g id="Group_8936" data-name="Group 8936" transform="translate(25.117 15.698)">
        <path id="Path_15906" data-name="Path 15906" d="M50.177,35A1.176,1.176,0,0,0,49,36.177v1.57a1.177,1.177,0,0,0,2.355,0v-1.57A1.176,1.176,0,0,0,50.177,35Zm.392,2.747a.392.392,0,0,1-.785,0v-1.57a.392.392,0,0,1,.785,0Z" transform="translate(-41.936 -29.506)" fill="#00143c"/>
        <path id="Path_15907" data-name="Path 15907" d="M47.355,36.177A1.179,1.179,0,0,0,46.177,35h-.785a.392.392,0,0,0,0,.785h.785a.392.392,0,0,1,0,.785h-.785a.392.392,0,0,0,0,.785h.785a.392.392,0,0,1,0,.785h-.785a.392.392,0,0,0,0,.785h.785a1.172,1.172,0,0,0,.871-1.962A1.167,1.167,0,0,0,47.355,36.177Z" transform="translate(-41.075 -29.506)" fill="#00143c"/>
        <path id="Path_15908" data-name="Path 15908" d="M40.785,28h6.279a.785.785,0,0,1,.785.785v.785H40v-.785A.785.785,0,0,1,40.785,28Z" transform="translate(-40 -28)" fill="#00143c"/>
      </g>
      <path id="Path_15909" data-name="Path 15909" d="M46.709,26.279H42V20.785A.785.785,0,0,1,42.785,20h3.14a.785.785,0,0,1,.785.785Z" transform="translate(-15.313 -10.581)" fill="#fab400"/>
      <path id="Path_15910" data-name="Path 15910" d="M46.14,23.855a1.57,1.57,0,1,1-3.14,0c0-.867,1.57-2.355,1.57-2.355S46.14,22.987,46.14,23.855Z" transform="translate(-15.528 -10.904)" fill="#c80a50"/>
      <path id="Path_15911" data-name="Path 15911" d="M25.268,29.977H15.9a6.24,6.24,0,0,1-3.76-1.256,1.62,1.62,0,0,0-1-.314H8v-15.7h2.245a1.6,1.6,0,0,0,1.444-.981A6.261,6.261,0,0,1,17.419,8H23.7a1.574,1.574,0,0,1,1.57,1.57v1.57h9.419a1.574,1.574,0,0,1,1.57,1.57v1.57a1.574,1.574,0,0,1-1.57,1.57H25.268a1.574,1.574,0,0,1,1.57,1.57v1.57a1.574,1.574,0,0,1-1.57,1.57,1.574,1.574,0,0,1,1.57,1.57V23.7a1.574,1.574,0,0,1-1.57,1.57,1.574,1.574,0,0,1,1.57,1.57v1.57A1.574,1.574,0,0,1,25.268,29.977Z" transform="translate(-8 -8)" fill="#f2c8a0"/>
      <path id="Path_15912" data-name="Path 15912" d="M38.128,17.14H24.785a.785.785,0,0,1,0-1.57H38.128A1.574,1.574,0,0,0,39.7,14v1.57A1.574,1.574,0,0,1,38.128,17.14Z" transform="translate(-11.442 -9.291)" fill="#d1aa81"/>
      <path id="Path_15913" data-name="Path 15913" d="M28.709,35.14H24.785a.785.785,0,0,1,0-1.57h3.925A1.574,1.574,0,0,0,30.279,32v1.57A1.574,1.574,0,0,1,28.709,35.14Z" transform="translate(-11.442 -13.162)" fill="#d1aa81"/>
      <path id="Path_15914" data-name="Path 15914" d="M20,11.57h7.849V10H21.57A1.569,1.569,0,0,0,20,11.57Z" transform="translate(-10.581 -8.43)" fill="#d1aa81"/>
      <path id="Path_15915" data-name="Path 15915" d="M54.709,16.709H51.57A1.569,1.569,0,0,1,50,15.14V13.57A1.569,1.569,0,0,1,51.57,12h3.14Z" transform="translate(-17.034 -8.86)" fill="#00143c"/>
      <path id="Path_15916" data-name="Path 15916" d="M49.14,15.57H46.785a.785.785,0,0,1,0-1.57H49.14Z" transform="translate(-16.174 -9.291)" fill="#c80a50"/>
      <path id="Path_15917" data-name="Path 15917" d="M33.14,22.709H30V18h3.14a1.569,1.569,0,0,1,1.57,1.57v1.57A1.569,1.569,0,0,1,33.14,22.709Z" transform="translate(-12.732 -10.151)" fill="#f2c8a0"/>
      <path id="Path_15918" data-name="Path 15918" d="M31.849,23.14H24.785a.785.785,0,0,1,0-1.57h7.064A1.574,1.574,0,0,0,33.419,20v1.57A1.574,1.574,0,0,1,31.849,23.14Z" transform="translate(-11.442 -10.581)" fill="#d1aa81"/>
      <path id="Path_15919" data-name="Path 15919" d="M31.14,28.709H28V24h3.14a1.569,1.569,0,0,1,1.57,1.57v1.57A1.569,1.569,0,0,1,31.14,28.709Z" transform="translate(-12.302 -11.442)" fill="#f2c8a0"/>
      <path id="Path_15920" data-name="Path 15920" d="M30.279,29.14H24.785a.785.785,0,0,1,0-1.57h5.494A1.574,1.574,0,0,0,31.849,26v1.57A1.574,1.574,0,0,1,30.279,29.14Z" transform="translate(-11.442 -11.872)" fill="#d1aa81"/>
      <path id="Path_15921" data-name="Path 15921" d="M43.177,35h-.785a.392.392,0,0,0,0,.785h.392v2.747a.392.392,0,0,0,.785,0v-3.14A.389.389,0,0,0,43.177,35Z" transform="translate(-15.313 -13.808)" fill="#00143c"/>
      <path id="Path_15922" data-name="Path 15922" d="M38.115,38.81a.393.393,0,0,1,0-.555l1.292-1.292-1.292-1.292a.392.392,0,0,1,.555-.555l1.57,1.57a.393.393,0,0,1,0,.555l-1.57,1.57A.393.393,0,0,1,38.115,38.81Z" transform="translate(-14.453 -13.808)" fill="#231f20"/>
    </g>
  </g>
</svg>
