<svg xmlns="http://www.w3.org/2000/svg" width="36.734" height="37" viewBox="0 0 36.734 37">
  <g id="body-mass-index" transform="translate(-15.014 -13.892)">
    <path id="Path_15870" data-name="Path 15870" d="M228.867,154.038v2.978a2.058,2.058,0,0,1-2.058,2.058h0V151.98h0A2.058,2.058,0,0,1,228.867,154.038Z" transform="translate(-177.363 -115.641)" fill="#ffcd69"/>
    <path id="Path_15871" data-name="Path 15871" d="M225.552,158.062a.247.247,0,0,1-.247-.244v-7.094a.244.244,0,0,1,.244-.244,2.305,2.305,0,0,1,2.305,2.3v2.978A2.3,2.3,0,0,1,225.552,158.062Zm.241-7.078v6.574a1.817,1.817,0,0,0,1.574-1.8v-2.978A1.817,1.817,0,0,0,225.793,150.984Z" transform="translate(-176.106 -114.385)" fill="#3a312a"/>
    <path id="Path_15872" data-name="Path 15872" d="M29.165,65.82v6.153a2.513,2.513,0,0,0,2.513,2.513h27.1a2.513,2.513,0,0,0,2.513-2.513v-27.1a2.513,2.513,0,0,0-2.513-2.513h-27.1a2.513,2.513,0,0,0-2.513,2.513V65.82Z" transform="translate(-11.851 -23.839)" fill="#0880ae"/>
    <path id="Path_15873" data-name="Path 15873" d="M57.525,73.475h-27.1a2.76,2.76,0,0,1-2.757-2.757V64.565a.244.244,0,0,1,.488,0v6.154a2.272,2.272,0,0,0,2.269,2.269h27.1a2.272,2.272,0,0,0,2.269-2.269v-27.1a2.272,2.272,0,0,0-2.269-2.269h-27.1a2.272,2.272,0,0,0-2.269,2.269V62.228a.244.244,0,1,1-.488,0V43.616a2.76,2.76,0,0,1,2.757-2.757h27.1a2.76,2.76,0,0,1,2.757,2.757v27.1A2.76,2.76,0,0,1,57.525,73.475Z" transform="translate(-10.594 -22.584)" fill="#3a312a"/>
    <path id="Path_15874" data-name="Path 15874" d="M50.866,63.664a.4.4,0,0,0-.4.4V88.47a.4.4,0,0,0,.4.4H75.277a.4.4,0,0,0,.4-.4V64.059a.4.4,0,0,0-.4-.4Z" transform="translate(-29.693 -41.681)" fill="#baa698"/>
    <path id="Path_15875" data-name="Path 15875" d="M74.02,87.853H49.609a.64.64,0,0,1-.639-.639V62.8a.64.64,0,0,1,.639-.639H74.02a.64.64,0,0,1,.639.639V87.214a.64.64,0,0,1-.639.639Zm-24.411-25.2a.152.152,0,0,0-.152.152V87.214a.152.152,0,0,0,.152.152H74.02a.152.152,0,0,0,.152-.152V62.8a.152.152,0,0,0-.152-.152Z" transform="translate(-28.436 -40.425)" fill="#3a312a"/>
    <circle id="Ellipse_48" data-name="Ellipse 48" cx="6.553" cy="6.553" r="6.553" transform="translate(26.48 14.612) rotate(-3.151)" fill="#d5de58"/>
    <path id="Path_15876" data-name="Path 15876" d="M92.97,28.094a6.8,6.8,0,1,1,6.8-6.8A6.8,6.8,0,0,1,92.97,28.094Zm0-13.107A6.309,6.309,0,1,0,99.28,21.3,6.317,6.317,0,0,0,92.97,14.988Z" transform="translate(-59.591 -0.51)" fill="#3a312a"/>
    <circle id="Ellipse_49" data-name="Ellipse 49" cx="6.553" cy="6.553" r="6.553" transform="translate(26.48 14.612) rotate(-3.151)" fill="#f8e4c8"/>
    <g id="Group_8935" data-name="Group 8935" transform="translate(26.582 13.99)">
      <path id="Path_15877" data-name="Path 15877" d="M92.97,28.094a6.8,6.8,0,1,1,6.8-6.8A6.8,6.8,0,0,1,92.97,28.094Zm0-13.107A6.309,6.309,0,1,0,99.28,21.3,6.317,6.317,0,0,0,92.97,14.988Z" transform="translate(-86.173 -14.5)" fill="#3a312a"/>
      <path id="Path_15878" data-name="Path 15878" d="M126.636,20.886a.262.262,0,0,0-.262.262v.533a.262.262,0,1,0,.524,0v-.533A.262.262,0,0,0,126.636,20.886Z" transform="translate(-119.839 -19.848)" fill="#3a312a"/>
      <path id="Path_15879" data-name="Path 15879" d="M126.636,85.24a.262.262,0,0,0-.262.262v.533a.262.262,0,1,0,.524,0V85.5A.262.262,0,0,0,126.636,85.24Z" transform="translate(-119.839 -73.741)" fill="#3a312a"/>
      <path id="Path_15880" data-name="Path 15880" d="M148.792,30.867a.262.262,0,0,0-.371,0l-.376.376a.262.262,0,1,0,.371.371l.376-.376A.262.262,0,0,0,148.792,30.867Z" transform="translate(-137.923 -28.142)" fill="#3a312a"/>
      <path id="Path_15881" data-name="Path 15881" d="M103.287,76.371a.262.262,0,0,0-.371,0l-.376.376a.262.262,0,0,0,.371.371l.376-.376A.262.262,0,0,0,103.287,76.371Z" transform="translate(-99.815 -66.249)" fill="#3a312a"/>
      <path id="Path_15882" data-name="Path 15882" d="M157.969,54.963a.262.262,0,0,0-.262-.262h-.533a.262.262,0,1,0,0,.524h.533A.262.262,0,0,0,157.969,54.963Z" transform="translate(-145.413 -48.166)" fill="#3a312a"/>
      <path id="Path_15883" data-name="Path 15883" d="M93.614,54.963a.262.262,0,0,0-.262-.262h-.533a.262.262,0,1,0,0,.524h.533A.262.262,0,0,0,93.614,54.963Z" transform="translate(-91.519 -48.166)" fill="#3a312a"/>
      <path id="Path_15884" data-name="Path 15884" d="M148.792,77.119a.262.262,0,0,0,0-.371l-.376-.376a.262.262,0,1,0-.371.371l.376.376A.262.262,0,0,0,148.792,77.119Z" transform="translate(-137.923 -66.25)" fill="#3a312a"/>
      <path id="Path_15885" data-name="Path 15885" d="M103.287,31.614a.262.262,0,0,0,0-.371l-.376-.376a.262.262,0,0,0-.371.371l.376.376A.262.262,0,0,0,103.287,31.614Z" transform="translate(-99.815 -28.142)" fill="#3a312a"/>
      <path id="Path_15886" data-name="Path 15886" d="M126.638,36.223a.244.244,0,0,1-.244-.244V32.3a.244.244,0,1,1,.488,0v3.674A.244.244,0,0,1,126.638,36.223Z" transform="translate(-119.856 -29.206)" fill="#3a312a"/>
    </g>
    <path id="Path_15887" data-name="Path 15887" d="M125.121,52.758a.69.69,0,1,1-.69-.69A.69.69,0,0,1,125.121,52.758Z" transform="translate(-91.052 -31.97)" fill="#87796f"/>
    <path id="Path_15888" data-name="Path 15888" d="M123.175,52.436a.934.934,0,1,1,.934-.934A.935.935,0,0,1,123.175,52.436Zm0-1.38a.446.446,0,1,0,.446.446A.447.447,0,0,0,123.175,51.056Z" transform="translate(-89.796 -30.714)" fill="#3a312a"/>
    <path id="Path_15889" data-name="Path 15889" d="M38.934,115.549H50.7a2.058,2.058,0,0,1,2.058,2.058v-7.138a1.993,1.993,0,0,0-1.991-1.991H16.514v7.071h22.42Z" transform="translate(-1.256 -79.21)" fill="#ffcd69"/>
    <path id="Path_15890" data-name="Path 15890" d="M51.5,116.6a.244.244,0,0,1-.244-.244,1.816,1.816,0,0,0-1.814-1.814H37.678a.244.244,0,1,1,0-.488H49.446a2.3,2.3,0,0,1,1.814.887v-5.723a1.749,1.749,0,0,0-1.748-1.748H15.5v6.584H35.424a.244.244,0,1,1,0,.488H15.258a.244.244,0,0,1-.244-.244v-7.071a.244.244,0,0,1,.244-.244H49.513a2.238,2.238,0,0,1,2.235,2.235v7.138A.244.244,0,0,1,51.5,116.6Z" transform="translate(0 -77.954)" fill="#3a312a"/>
    <path id="Path_15891" data-name="Path 15891" d="M38.784,110.382a.244.244,0,0,1-.244-.244v-2.911a.244.244,0,0,1,.488,0v2.911A.244.244,0,0,1,38.784,110.382Z" transform="translate(-19.702 -77.958)" fill="#3a312a"/>
    <path id="Path_15892" data-name="Path 15892" d="M60.771,111.958a.244.244,0,0,1-.244-.244v-4.489a.244.244,0,1,1,.488,0v4.489A.244.244,0,0,1,60.771,111.958Z" transform="translate(-38.114 -77.958)" fill="#3a312a"/>
    <path id="Path_15893" data-name="Path 15893" d="M82.765,110.382a.244.244,0,0,1-.244-.244v-2.911a.244.244,0,0,1,.488,0v2.911A.244.244,0,0,1,82.765,110.382Z" transform="translate(-56.533 -77.958)" fill="#3a312a"/>
    <path id="Path_15894" data-name="Path 15894" d="M104.751,111.958a.244.244,0,0,1-.244-.244v-4.489a.244.244,0,1,1,.488,0v4.489A.244.244,0,0,1,104.751,111.958Z" transform="translate(-74.945 -77.958)" fill="#3a312a"/>
    <path id="Path_15895" data-name="Path 15895" d="M126.744,110.382a.244.244,0,0,1-.244-.244v-2.911a.244.244,0,0,1,.488,0v2.911A.244.244,0,0,1,126.744,110.382Z" transform="translate(-93.363 -77.958)" fill="#3a312a"/>
    <path id="Path_15896" data-name="Path 15896" d="M148.731,111.958a.244.244,0,0,1-.244-.244v-4.489a.244.244,0,1,1,.488,0v4.489A.244.244,0,0,1,148.731,111.958Z" transform="translate(-111.776 -77.958)" fill="#3a312a"/>
    <path id="Path_15897" data-name="Path 15897" d="M170.724,110.382a.244.244,0,0,1-.244-.244v-2.911a.244.244,0,0,1,.488,0v2.911A.244.244,0,0,1,170.724,110.382Z" transform="translate(-130.193 -77.958)" fill="#3a312a"/>
    <path id="Path_15898" data-name="Path 15898" d="M192.711,111.958a.244.244,0,0,1-.244-.244v-4.489a.244.244,0,1,1,.488,0v4.489A.244.244,0,0,1,192.711,111.958Z" transform="translate(-148.606 -77.958)" fill="#3a312a"/>
    <path id="Path_15899" data-name="Path 15899" d="M214.7,110.382a.244.244,0,0,1-.244-.244v-2.911a.244.244,0,0,1,.488,0v2.911A.244.244,0,0,1,214.7,110.382Z" transform="translate(-167.024 -77.958)" fill="#3a312a"/>
    <path id="Path_15900" data-name="Path 15900" d="M189.822,153.48v10.206a.151.151,0,0,1-.151.151h-2.6a.151.151,0,0,0,.151-.151V153.48Z" transform="translate(-144.087 -116.897)" fill="#695b51"/>
    <path id="Path_15901" data-name="Path 15901" d="M189.822,65.313v6.645h-2.6V65.313a.152.152,0,0,0-.151-.153h2.6a.152.152,0,0,1,.151.153Z" transform="translate(-144.087 -42.934)" fill="#695b51"/>
  </g>
</svg>
