<svg xmlns="http://www.w3.org/2000/svg" width="34.242" height="42" viewBox="0 0 34.242 42">
  <g id="documents" transform="translate(-47.286)">
    <g id="Group_8984" data-name="Group 8984" transform="translate(47.901 0.615)">
      <path id="Path_16118" data-name="Path 16118" d="M82.045,100.8h-21.1A1.641,1.641,0,0,1,59.3,99.156v-30.3H56.584a1.8,1.8,0,0,0-1.8,1.8V102.8a1.8,1.8,0,0,0,1.8,1.8H80.248a1.8,1.8,0,0,0,1.8-1.8v-2Z" transform="translate(-54.786 -63.825)" fill="#8ac9fe"/>
      <path id="Path_16119" data-name="Path 16119" d="M91.49,68.858v30.3A1.641,1.641,0,0,0,93.13,100.8h21.1v2a1.788,1.788,0,0,1-.274.953H91.647a1.8,1.8,0,0,1-1.8-1.8V100.64l.82-30.829Z" transform="translate(-86.973 -63.825)" fill="#60b7ff"/>
      <path id="Path_16120" data-name="Path 16120" d="M117.108,73.781h-21.1a1.641,1.641,0,0,1-1.641-1.641V42.562H91.647a1.8,1.8,0,0,0-1.8,1.8V76.5a1.8,1.8,0,0,0,1.8,1.8h23.664a1.8,1.8,0,0,0,1.8-1.8V73.781Z" transform="translate(-86.973 -39.686)" fill="#fed402"/>
      <path id="Path_16121" data-name="Path 16121" d="M126.551,42.562V72.141a1.641,1.641,0,0,0,1.641,1.641h21.1V76.5a1.8,1.8,0,0,1-.051.425H126.708a1.8,1.8,0,0,1-1.8-1.8v-1.5l.82-2.269V42.987Z" transform="translate(-119.158 -39.686)" fill="#fac600"/>
      <path id="Path_16122" data-name="Path 16122" d="M150.208,43.236h-23.5a1.8,1.8,0,0,1-1.8-1.8V9.3a1.8,1.8,0,0,1,1.8-1.8h18.179l7.118,7.282V41.439A1.8,1.8,0,0,1,150.208,43.236Z" transform="translate(-119.158 -7.5)" fill="#efedef"/>
      <path id="Path_16123" data-name="Path 16123" d="M407.1,66.274V95.391a1.8,1.8,0,0,1-1.8,1.8h2.461a1.8,1.8,0,0,0,1.8-1.8V68.735Z" transform="translate(-376.548 -61.453)" fill="#d7d0d6"/>
      <path id="Path_16124" data-name="Path 16124" d="M375.722,14.782h-5.485a1.8,1.8,0,0,1-1.8-1.8V7.5Z" transform="translate(-342.711 -7.5)" fill="#b5adb6"/>
    </g>
    <g id="_x32_2_documents_1_" transform="translate(47.286 0)">
      <path id="Path_16125" data-name="Path 16125" d="M184.1,163.463h16.419a.615.615,0,0,0,0-1.23H184.1a.615.615,0,0,0,0,1.23Z" transform="translate(-172.312 -148.925)"/>
      <path id="Path_16126" data-name="Path 16126" d="M184.1,219.051h16.419a.615.615,0,1,0,0-1.23H184.1a.615.615,0,0,0,0,1.23Z" transform="translate(-172.312 -199.953)"/>
      <path id="Path_16127" data-name="Path 16127" d="M184.1,274.639h16.419a.615.615,0,0,0,0-1.23H184.1a.615.615,0,0,0,0,1.23Z" transform="translate(-172.312 -250.981)"/>
      <path id="Path_16128" data-name="Path 16128" d="M81.527,7.877a.62.62,0,0,0-.179-.414L74.066.18A.623.623,0,0,0,73.631,0H55.451a2.416,2.416,0,0,0-2.413,2.413v.463h-.463a2.416,2.416,0,0,0-2.4,2.157H49.7a2.416,2.416,0,0,0-2.413,2.413V28.127a.615.615,0,0,0,1.23,0V7.446A1.184,1.184,0,0,1,49.7,6.264h.463V37.43a2.416,2.416,0,0,0,2.413,2.413H68.226a.615.615,0,0,0,0-1.23H52.575a1.184,1.184,0,0,1-1.182-1.182V5.289a1.184,1.184,0,0,1,1.182-1.182h.463V7.458a.615.615,0,0,0,1.23,0V2.413A1.184,1.184,0,0,1,55.451,1.23H73.015V6.1a2.415,2.415,0,0,0,2.413,2.413H80.3V34.554a1.184,1.184,0,0,1-1.182,1.182H55.451a1.184,1.184,0,0,1-1.182-1.182V10.139a.615.615,0,1,0-1.23,0V34.554a2.416,2.416,0,0,0,2.413,2.413h21.97v.463a1.184,1.184,0,0,1-1.182,1.182H70.907a.615.615,0,0,0,0,1.23h3.609a1.184,1.184,0,0,1-1.154.927H49.7a1.184,1.184,0,0,1-1.182-1.182V30.808a.615.615,0,0,0-1.23,0v8.779A2.416,2.416,0,0,0,49.7,42H73.363a2.416,2.416,0,0,0,2.4-2.157h.477a2.416,2.416,0,0,0,2.413-2.413v-.463h.463a2.416,2.416,0,0,0,2.413-2.413V7.9c0-.007,0-.014,0-.021Zm-6.1-.595A1.183,1.183,0,0,1,74.246,6.1v-4l5.182,5.182Z" transform="translate(-47.286 0)"/>
    </g>
  </g>
</svg>
