<svg xmlns="http://www.w3.org/2000/svg" xmlns:xlink="http://www.w3.org/1999/xlink" width="276.926" height="183.381" viewBox="0 0 276.926 183.381">
  <defs>
    <linearGradient id="linear-gradient" x1="0.5" y1="1" x2="0.5" gradientUnits="objectBoundingBox">
      <stop offset="0" stop-color="gray" stop-opacity="0.251"/>
      <stop offset="0.54" stop-color="gray" stop-opacity="0.122"/>
      <stop offset="1" stop-color="gray" stop-opacity="0.102"/>
    </linearGradient>
    <linearGradient id="linear-gradient-2" x1="0.5" x2="0.5" y2="0.04" xlink:href="#linear-gradient"/>
    <linearGradient id="linear-gradient-4" x1="0.5" y1="1.001" x2="0.5" xlink:href="#linear-gradient"/>
    <linearGradient id="linear-gradient-5" x1="0" y1="0.484" x2="1" y2="0.484" xlink:href="#linear-gradient"/>
    <linearGradient id="linear-gradient-6" x1="0.024" y1="0.484" x2="1" y2="0.484" xlink:href="#linear-gradient"/>
  </defs>
  <g id="undraw_image_upload_wqh3" transform="translate(-0.007)">
    <path id="Path_16046" data-name="Path 16046" d="M178.86,509.241c-6.8.3-14.057,1.711-18.792,6.6-7.893,8.145-4.59,22.949,4.495,29.747s21.644,7.009,32.638,4.186c5.909-1.518,11.993-3.837,17.935-2.443,7.486,1.755,12.693,8.972,20.114,10.991,9.971,2.725,19.512-4.6,29.119-8.438,16.4-6.561,36.564-2.253,48.85,10.434,3.43,3.54,6.369,7.727,10.653,10.161,4.332,2.464,9.52,2.835,14.5,2.8,14.964-.119,29.7-3.427,44.293-6.718,9.268-2.076,18.709-4.246,26.9-9.055s15.1-12.791,16.168-22.237a8.845,8.845,0,0,0-.546-4.874c-1.2-2.47-4.009-3.638-6.579-4.6-7.638-2.861-16.221-5.716-23.72-2.479-1.966.851-3.789,2.105-5.888,2.538-5.992,1.23-10.887-4.346-15.554-8.3-14.445-12.239-35.5-11.122-53.932-15.5-21.469-5.082-44.264-9.239-66.584-6-11.231,1.628-19.865,9.254-30.6,12.2C208.2,512.126,193.258,508.627,178.86,509.241Z" transform="translate(-148.909 -389.896)" fill="#6e78f7" opacity="0.5"/>
    <path id="Path_16047" data-name="Path 16047" d="M127.8,0V144.12H292.734V0Z" transform="translate(-89.903)" fill="url(#linear-gradient)"/>
    <rect id="Rectangle_2192" data-name="Rectangle 2192" width="162.826" height="4.61" transform="translate(38.952)" fill="#535461"/>
    <rect id="Rectangle_2193" data-name="Rectangle 2193" width="162.826" height="136.518" transform="translate(38.952 4.48)" fill="#ededf4"/>
    <circle id="Ellipse_79" data-name="Ellipse 79" cx="0.792" cy="0.792" r="0.792" transform="translate(41.191 1.447)" fill="#fa595f"/>
    <circle id="Ellipse_80" data-name="Ellipse 80" cx="0.792" cy="0.792" r="0.792" transform="translate(43.56 1.447)" fill="#ffc74c"/>
    <circle id="Ellipse_81" data-name="Ellipse 81" cx="0.792" cy="0.792" r="0.792" transform="translate(45.932 1.447)" fill="#85d459"/>
    <rect id="Rectangle_2194" data-name="Rectangle 2194" width="124.886" height="49.008" transform="translate(57.922 12.485)" fill="#fff"/>
    <path id="Path_16048" data-name="Path 16048" d="M612.329,201.4v1.779H610.55" transform="translate(-429.521 -141.686)" fill="none" stroke="#6c63ff" stroke-miterlimit="10" stroke-width="1"/>
    <line id="Line_45" data-name="Line 45" x1="116.131" transform="translate(61.433 61.493)" fill="none" stroke="#6e78f7" stroke-miterlimit="10" stroke-width="1" stroke-dasharray="11.69 11.69"/>
    <path id="Path_16049" data-name="Path 16049" d="M197.119,203.179H195.34V201.4" transform="translate(-137.418 -141.686)" fill="none" stroke="#6e78f7" stroke-miterlimit="10" stroke-width="1"/>
    <line id="Line_46" data-name="Line 46" y1="40.205" transform="translate(57.922 16.014)" fill="none" stroke="#6e78f7" stroke-miterlimit="10" stroke-width="1" stroke-dasharray="11.79 11.79"/>
    <path id="Path_16050" data-name="Path 16050" d="M195.34,43.889V42.11h1.779" transform="translate(-137.418 -29.625)" fill="none" stroke="#6e78f7" stroke-miterlimit="10" stroke-width="1"/>
    <line id="Line_47" data-name="Line 47" x2="116.128" transform="translate(63.167 12.485)" fill="none" stroke="#6e78f7" stroke-miterlimit="10" stroke-width="1" stroke-dasharray="11.69 11.69"/>
    <path id="Path_16051" data-name="Path 16051" d="M610.55,42.11h1.779v1.779" transform="translate(-429.521 -29.625)" fill="none" stroke="#6e78f7" stroke-miterlimit="10" stroke-width="1"/>
    <line id="Line_48" data-name="Line 48" y2="40.205" transform="translate(182.808 17.76)" fill="none" stroke="#6e78f7" stroke-miterlimit="10" stroke-width="1" stroke-dasharray="11.79 11.79"/>
    <rect id="Rectangle_2195" data-name="Rectangle 2195" width="63.761" height="2.636" transform="translate(88.485 68.342)" fill="#fff"/>
    <rect id="Rectangle_2196" data-name="Rectangle 2196" width="63.761" height="2.636" transform="translate(56.537 92.874)" fill="#fff"/>
    <rect id="Rectangle_2197" data-name="Rectangle 2197" width="63.761" height="2.636" transform="translate(56.537 98.67)" fill="#fff"/>
    <rect id="Rectangle_2198" data-name="Rectangle 2198" width="63.761" height="2.636" transform="translate(56.537 104.467)" fill="#fff"/>
    <rect id="Rectangle_2199" data-name="Rectangle 2199" width="63.761" height="2.636" transform="translate(56.537 110.263)" fill="#fff"/>
    <rect id="Rectangle_2200" data-name="Rectangle 2200" width="63.761" height="2.636" transform="translate(56.537 116.06)" fill="#fff"/>
    <rect id="Rectangle_2201" data-name="Rectangle 2201" width="63.761" height="2.636" transform="translate(56.537 121.856)" fill="#fff"/>
    <rect id="Rectangle_2202" data-name="Rectangle 2202" width="63.761" height="2.636" transform="translate(56.537 127.653)" fill="#fff"/>
    <rect id="Rectangle_2203" data-name="Rectangle 2203" width="27.402" height="2.636" transform="translate(106.663 73.611)" fill="#fff"/>
    <path id="Path_16053" data-name="Path 16053" d="M177,454.875c3.261,11.928-10.653,45.906-10.653,45.906s-29.276-22.163-32.537-34.1A22.388,22.388,0,1,1,177,454.875Z" transform="translate(-133 -350.139)" fill="#6e78f7"/>
    <path id="Path_16054" data-name="Path 16054" d="M177,454.875c3.261,11.928-10.653,45.906-10.653,45.906s-29.276-22.163-32.537-34.1A22.388,22.388,0,1,1,177,454.875Z" transform="translate(-132.916 -350.139)" opacity="0.1"/>
    <path id="Path_16055" data-name="Path 16055" d="M189,441.35s18.226,27.512,16.85,61.6" transform="translate(-172.392 -352.224)" fill="none" stroke="#535461" stroke-miterlimit="10" stroke-width="1"/>
    <path id="Path_16056" data-name="Path 16056" d="M262.379,564.926s-16.527-8.99-14.433,24.194c0,0,13.787-.492,18.679-11.738a9.752,9.752,0,0,0-4-12.325Z" transform="translate(-213.731 -438.379)" fill="#6e78f7"/>
    <path id="Path_16057" data-name="Path 16057" d="M263.113,567.75s-2.135,17.226-14.7,24.138" transform="translate(-214.187 -441.147)" fill="none" stroke="#535461" stroke-miterlimit="10" stroke-width="1"/>
    <g id="Group_8980" data-name="Group 8980" transform="translate(222.109 82.826)" opacity="0.1">
      <path id="Path_16058" data-name="Path 16058" d="M882.1,420.174a.754.754,0,0,0,.053-.074Z" transform="translate(-882.1 -420.1)" fill="url(#linear-gradient-2)"/>
    </g>
    <path id="Path_16059" data-name="Path 16059" d="M465.48,70.7v50.967H591.947V70.7Z" transform="translate(-327.463 -49.738)" fill="url(#linear-gradient)"/>
    <path id="Path_16060" data-name="Path 16060" d="M771.725,386.085a6.3,6.3,0,0,0-.593-2.636l-3.685-8.821s-.133.184-.362.436c-.27-2.25-1.3-6.544-5.168-6.819-5.266-.383-7.116,2.3-6.054,2.556s5.53,2.046,5.53,2.046l2.076,3.407c-.039-.027-.074-.053-.113-.083l.077.311-.077-.056.077.311-.077-.056,2,8.272-4.092,3.739s-3.949,1.918-5.93,1.779a7.115,7.115,0,0,0-1.124.024l.148-.1,1.3-.866a6.648,6.648,0,0,0,2.565-2.467v-.018c.045-.077.086-.157.125-.237a9.031,9.031,0,0,0,.374-3.688,18.626,18.626,0,0,0,.036-2.274,6.559,6.559,0,0,0-.614-2.075,7.634,7.634,0,0,0-2.754-3.261,5.6,5.6,0,0,0-4.2-.792,2.909,2.909,0,0,1-.714.125,3.533,3.533,0,0,1-1.3-.477,2.725,2.725,0,0,0-3.125.889c-.3.391-.448.857-.747,1.236-.445.566-1.165.922-1.465,1.571l-.03.071a1.62,1.62,0,0,0-.1.184,6.129,6.129,0,0,0-.163,2.075,5.633,5.633,0,0,1-.593,1.779,1.477,1.477,0,0,0,.353-.175,6.1,6.1,0,0,0-.086,4.874,10.825,10.825,0,0,1-1.162,3.605l-.039.036H742l-.107.083h0l-.119.08q.2-.317.471-.661c-.261.314-1.483,1.515-4.026.056-2.9-1.66-9.74-1.66-9.74-1.66l-6.819-3.057c.125-2.153.7-10.558,2.076-11.006a4.224,4.224,0,0,1-.406.133h0l.033-.053.033-.047.033-.045.036-.042.033-.036.036-.036.033-.027.039-.03.033-.021.041-.021.053-.024s-.142.056-.373.122l.121-.2a.593.593,0,0,1,.252-.178s-.068.027-.181.065l1.761-2.876s4.474-1.779,5.53-2.046-.789-2.941-6.054-2.556c-3.558.261-4.714,3.914-5.088,6.25-.015-.039-.033-.074-.047-.116l-5.242,13.577a.674.674,0,0,0,.033.172l-.033.083a.675.675,0,0,0,.033.172l-.033.083a5.469,5.469,0,0,0,3.291,4.092l10.926,6.523s4.744,2.811,4.744,9.844.922,18.151.922,18.151.181.107.513.3c-.824,2.3-2.416,6.4-3.543,7.116-1.58,1.023-5.53,9.844-5.53,9.844h.119l-.116.255h.593l-3.223,6.259s-1.052,2.811,0,4.6.789,5.5.789,5.5a63.65,63.65,0,0,0,3.816,8.821,8.247,8.247,0,0,1,.966,4.569l-3.6,5.912s-1.711,1.533-3.027,1.278c-.617-.119-1.233.658-1.159,1.441v.335h0a.237.237,0,0,0,.015.08v.027l.018.062v.03l.021.062v.027l.033.074h0l.047.083v.021l.041.062.021.027.042.053.024.027.05.056.021.021.08.074h0l.077.062.03.021.065.044.036.024.071.041.038.021.092.047h.024l.125.053h.036l.1.036.05.015.1.03.053.015.11.027h.05l.169.033h0l.166.024h1.494l.184-.018h.086l.279-.036a53.128,53.128,0,0,0,11.714-3.579h0A10.567,10.567,0,0,0,736.5,478c.018-1.533-.243-4.581-2.482-5.432H733.9a11.638,11.638,0,0,1-.608-5.687c.789-3.706-2.239-10.478-2.239-12.782a3.487,3.487,0,0,1,.658-3.324c.614-.774,2.025-2.1,3.344-3.558a6,6,0,0,1-.451.593,1.182,1.182,0,0,0,.175.036c-.056.071-.113.145-.175.219,0,0,1.752.566,3.17-1.936.086-.151.172-.317.255-.492,1.447-3.069,5.132-7.412,6.977-7.157,1.7.234,5.527,3.516,6.318,5.829a2.8,2.8,0,0,1,.13.563c.264,2.3,3.686,2.556,3.686,2.556l-.208-.279.13.015a38.1,38.1,0,0,1,2.055,3.588,8.44,8.44,0,0,1,.922,3.834c-2.9,5.88-1.844,9.458-1.844,13.046a15.924,15.924,0,0,1-.3,2.9c-1.877,1.159-2.209,6.306-2.209,6.306l.018.021h0v.234s3.869,4.012,9.008,4.519l.24.021h2.019l.086-.018h.065l.083-.018.059-.015.08-.021.053-.015.077-.024.05-.018.074-.027.047-.018.071-.03.042-.018.071-.03.039-.018.068-.033.035-.018.065-.036.03-.018.062-.039.027-.018.059-.042.024-.018.056-.044.021-.015.053-.047.018-.015.053-.05h0l.05-.053h0l.047-.056h0l.044-.059h0l.039-.062h0l.036-.065h0l.033-.068h0a1.117,1.117,0,0,0,.095-.593A1.091,1.091,0,0,0,765.7,478.8c-1.58,0-2.372-1.779-2.372-1.779l-2.787-6.588-.068-.018c.119-.649.222-1.281.267-1.708a67.431,67.431,0,0,1,2.882-7.6,17.935,17.935,0,0,0,1.343-5.4,15.442,15.442,0,0,1,.513-2.852,6.025,6.025,0,0,0-.1-3.558,13.465,13.465,0,0,1-.635-3.042,12.451,12.451,0,0,0-1.429-4.418h.056l-.086-.279.086.021s-2.633-8.563-3.949-9.713c-.955-.833-3.152-4.744-4.338-7.19a11.766,11.766,0,0,0,.652-.99l-.039-.193.039-.062-.039-.193.039-.062a75.624,75.624,0,0,1-1.388-11.391,8.27,8.27,0,0,1,.593-3.558s.528-8.053,4.744-9.586l10.935-9.7a2.889,2.889,0,0,0,1.112-2.606C771.728,386.257,771.728,386.174,771.725,386.085ZM741.8,390.947h0l.119-.181Zm9.331.3s-.021.122-.074.323a4.286,4.286,0,0,1-.391-.931,6.538,6.538,0,0,0,1.017-.314,1.755,1.755,0,0,0,.759.5,12.347,12.347,0,0,0-1.311.421Zm2.639,53.846c.3.442.593.913.889,1.393-.282-.406-.626-.922-.889-1.391Z" transform="translate(-542.02 -299.49)" fill="url(#linear-gradient-4)"/>
    <rect id="Rectangle_2204" data-name="Rectangle 2204" width="124.886" height="49.008" transform="translate(138.675 21.736)" fill="#fff"/>
    <g id="Group_8981" data-name="Group 8981" transform="translate(151.982 25.039)" opacity="0.6">
      <path id="Path_16061" data-name="Path 16061" d="M611.645,110.281v19.874H512.58V100.013h3.11V92.334h11.827v7.679h3.217v23.026h4.148V115.57h4.981v7.469h4.148V110.281h.208v-6.639h3.943v6.639h9.126v9.959h5.082v-3.113h3.116v3.113h5.082V90.777h6.638V86.11h1.142v4.667h1.865v9.236h3.321V92.334h2.8V84.45h5.811v7.884h2.8v7.679h3.424v10.268h4.667v-6.639h3.943v6.639Z" transform="translate(-512.58 -84.45)" fill="#6c63ff" opacity="0.3"/>
      <rect id="Rectangle_2205" data-name="Rectangle 2205" width="4.356" height="2.491" transform="translate(1.972 17.947)" fill="#fff" opacity="0.4"/>
      <rect id="Rectangle_2206" data-name="Rectangle 2206" width="4.356" height="2.491" transform="translate(16.079 20.434) rotate(180)" fill="#fff" opacity="0.4"/>
      <rect id="Rectangle_2207" data-name="Rectangle 2207" width="4.356" height="2.491" transform="translate(1.972 22.821)" fill="#fff" opacity="0.4"/>
      <rect id="Rectangle_2208" data-name="Rectangle 2208" width="4.356" height="2.491" transform="translate(16.079 25.312) rotate(180)" fill="#fff" opacity="0.4"/>
      <rect id="Rectangle_2209" data-name="Rectangle 2209" width="4.356" height="2.491" transform="translate(1.972 27.699)" fill="#fff" opacity="0.4"/>
      <rect id="Rectangle_2210" data-name="Rectangle 2210" width="4.356" height="2.491" transform="translate(16.079 30.186) rotate(180)" fill="#fff" opacity="0.4"/>
      <rect id="Rectangle_2211" data-name="Rectangle 2211" width="4.356" height="2.491" transform="translate(1.972 32.573)" fill="#fff" opacity="0.4"/>
      <rect id="Rectangle_2212" data-name="Rectangle 2212" width="4.356" height="2.491" transform="translate(16.079 35.063) rotate(180)" fill="#fff" opacity="0.4"/>
      <rect id="Rectangle_2213" data-name="Rectangle 2213" width="4.356" height="2.491" transform="translate(1.972 37.45)" fill="#fff" opacity="0.4"/>
      <rect id="Rectangle_2214" data-name="Rectangle 2214" width="4.356" height="2.491" transform="translate(16.079 39.941) rotate(180)" fill="#fff" opacity="0.4"/>
      <rect id="Rectangle_2215" data-name="Rectangle 2215" width="4.356" height="2.491" transform="translate(1.972 42.325)" fill="#fff" opacity="0.4"/>
      <rect id="Rectangle_2216" data-name="Rectangle 2216" width="4.356" height="2.491" transform="translate(16.079 44.812) rotate(180)" fill="#fff" opacity="0.4"/>
      <rect id="Rectangle_2217" data-name="Rectangle 2217" width="10.167" height="1.245" transform="translate(19.708 41.079)" fill="#fff" opacity="0.4"/>
      <rect id="Rectangle_2218" data-name="Rectangle 2218" width="10.167" height="1.245" transform="translate(19.708 42.947)" fill="#fff" opacity="0.4"/>
      <rect id="Rectangle_2219" data-name="Rectangle 2219" width="10.164" height="0.889" transform="translate(19.711 44.812)" fill="#fff" opacity="0.4"/>
      <rect id="Rectangle_2220" data-name="Rectangle 2220" width="10.167" height="1.245" transform="translate(46.265 41.702)" fill="#fff" opacity="0.4"/>
      <rect id="Rectangle_2221" data-name="Rectangle 2221" width="10.167" height="1.245" transform="translate(46.265 43.57)" fill="#fff" opacity="0.4"/>
      <rect id="Rectangle_2222" data-name="Rectangle 2222" width="10.164" height="0.267" transform="translate(46.265 45.438)" fill="#fff" opacity="0.4"/>
      <rect id="Rectangle_2223" data-name="Rectangle 2223" width="2.802" height="3.632" transform="translate(33.611 28.217)" fill="#fff" opacity="0.4"/>
      <rect id="Rectangle_2224" data-name="Rectangle 2224" width="2.802" height="3.632" transform="translate(42.529 31.849) rotate(180)" fill="#fff" opacity="0.4"/>
      <rect id="Rectangle_2225" data-name="Rectangle 2225" width="2.802" height="3.632" transform="translate(33.611 34.026)" fill="#fff" opacity="0.4"/>
      <rect id="Rectangle_2226" data-name="Rectangle 2226" width="2.802" height="3.632" transform="translate(42.529 37.655) rotate(180)" fill="#fff" opacity="0.4"/>
      <rect id="Rectangle_2227" data-name="Rectangle 2227" width="2.802" height="3.632" transform="translate(33.611 39.834)" fill="#fff" opacity="0.4"/>
      <rect id="Rectangle_2228" data-name="Rectangle 2228" width="2.802" height="3.632" transform="translate(42.529 43.466) rotate(180)" fill="#fff" opacity="0.4"/>
      <rect id="Rectangle_2229" data-name="Rectangle 2229" width="2.802" height="0.059" transform="translate(33.608 45.642)" fill="#fff" opacity="0.4"/>
      <rect id="Rectangle_2230" data-name="Rectangle 2230" width="2.802" height="0.059" transform="translate(39.73 45.642)" fill="#fff" opacity="0.4"/>
      <rect id="Rectangle_2231" data-name="Rectangle 2231" width="3.736" height="4.771" transform="translate(57.988 8.714)" fill="#fff" opacity="0.4"/>
      <rect id="Rectangle_2232" data-name="Rectangle 2232" width="3.736" height="4.771" transform="translate(57.988 15.56)" fill="#fff" opacity="0.4"/>
      <rect id="Rectangle_2233" data-name="Rectangle 2233" width="3.736" height="4.771" transform="translate(57.988 22.406)" fill="#fff" opacity="0.4"/>
      <rect id="Rectangle_2234" data-name="Rectangle 2234" width="3.736" height="4.771" transform="translate(57.988 29.255)" fill="#fff" opacity="0.4"/>
      <rect id="Rectangle_2235" data-name="Rectangle 2235" width="3.736" height="4.771" transform="translate(57.988 36.101)" fill="#fff" opacity="0.4"/>
      <rect id="Rectangle_2236" data-name="Rectangle 2236" width="3.733" height="2.757" transform="translate(57.988 42.947)" fill="#fff" opacity="0.4"/>
      <rect id="Rectangle_2237" data-name="Rectangle 2237" width="13.9" height="4.044" transform="translate(69.762 18.466)" fill="#fff" opacity="0.4"/>
      <rect id="Rectangle_2238" data-name="Rectangle 2238" width="13.9" height="4.044" transform="translate(69.813 27.18)" fill="#fff" opacity="0.4"/>
      <rect id="Rectangle_2239" data-name="Rectangle 2239" width="13.9" height="4.044" transform="translate(69.866 35.894)" fill="#fff" opacity="0.4"/>
      <path id="Path_16062" data-name="Path 16062" d="M760.14,236h2.149v-1.1h-13.9V236h11.75Z" transform="translate(-678.474 -190.292)" fill="#fff" opacity="0.4"/>
      <rect id="Rectangle_2240" data-name="Rectangle 2240" width="1.868" height="3.943" transform="translate(3.113 10.063)" fill="#fff" opacity="0.4"/>
      <rect id="Rectangle_2241" data-name="Rectangle 2241" width="4.667" height="6.016" transform="translate(94.398 28.217)" fill="#fff" opacity="0.4"/>
      <rect id="Rectangle_2242" data-name="Rectangle 2242" width="4.667" height="6.016" transform="translate(94.398 36.931)" fill="#fff" opacity="0.4"/>
      <rect id="Rectangle_2243" data-name="Rectangle 2243" width="4.67" height="0.059" transform="translate(94.398 45.642)" fill="#fff" opacity="0.4"/>
      <path id="Path_16063" data-name="Path 16063" d="M720.811,239.506H720.1a.5.5,0,1,0,0-1h-5.782a.5.5,0,1,0,0,1h.715a.5.5,0,1,0,0,1h-1a.5.5,0,1,0,0,1h5.782a.5.5,0,0,0,0-1h1a.5.5,0,0,0,0-1Z" transform="translate(-693.355 -234.56)" fill="#252223" opacity="0.1"/>
      <path id="Path_16064" data-name="Path 16064" d="M807.063,281.849h-.714a.5.5,0,0,0,0-1h-5.782a.5.5,0,0,0,0,1h.715a.5.5,0,1,0,0,1h-1a.5.5,0,0,0,0,1h5.782a.5.5,0,0,0,0-1h1a.5.5,0,1,0,0-1Z" transform="translate(-754.089 -264.35)" fill="#252223" opacity="0.1"/>
      <path id="Path_16065" data-name="Path 16065" d="M953.495,226.566h-.715a.5.5,0,0,0,0-1H947a.5.5,0,1,0,0,1h.715a.5.5,0,1,0,0,1h-.993a.5.5,0,1,0,0,1H952.5a.5.5,0,0,0,0-1h1a.5.5,0,0,0,0-1Z" transform="translate(-857.054 -225.457)" fill="#252223" opacity="0.1"/>
      <path id="Path_16066" data-name="Path 16066" d="M784.385,349.82l-.125.092a.529.529,0,0,0,.124-.092Z" transform="translate(-743.142 -312.871)" fill="url(#linear-gradient-5)"/>
      <path id="Path_16067" data-name="Path 16067" d="M784.7,350.15l-.125.092A.525.525,0,0,0,784.7,350.15Z" transform="translate(-743.367 -313.103)" fill="url(#linear-gradient-6)"/>
      <path id="Path_16068" data-name="Path 16068" d="M784.7,349.82l-.125.092A.528.528,0,0,0,784.7,349.82Z" transform="translate(-743.367 -312.871)" fill="url(#linear-gradient-6)"/>
      <ellipse id="Ellipse_82" data-name="Ellipse 82" cx="0.142" cy="0.19" rx="0.142" ry="0.19" transform="translate(35.875 34.916) rotate(-25.74)" fill="#f2f2f2"/>
    </g>
    <path id="Path_16069" data-name="Path 16069" d="M749.287,618.32l-3.78,7.56s-1.008,2.772,0,4.536.756,5.42.756,5.42a63.253,63.253,0,0,0,3.656,8.7c1.64,2.766.632,6.82.632,6.82l6.552.756s-2.52-4.916-1.779-8.572-2.144-10.33-2.144-12.6a3.513,3.513,0,0,1,.631-3.276c1.263-1.637,6.049-5.8,5.93-8.192Z" transform="translate(-563.582 -476.723)" fill="#f7bbc3"/>
    <path id="Path_16070" data-name="Path 16070" d="M849.558,612.37a15.824,15.824,0,0,1,2.7,6.612,13.644,13.644,0,0,0,.593,3,6.108,6.108,0,0,1,.1,3.5,15.637,15.637,0,0,0-.492,2.814,18.125,18.125,0,0,1-1.287,5.337,70.354,70.354,0,0,0-2.757,7.489c-.127,1.26-.756,4.284-.756,4.284l-5.04,1.892a21.819,21.819,0,0,0,1.512-7.184c0-3.528-1.008-7.057,1.779-12.856a8.449,8.449,0,0,0-.889-3.78c-1.017-2.268-4.916-8.192-4.916-8.192Z" transform="translate(-630.444 -472.537)" fill="#f7bbc3"/>
    <path id="Path_16071" data-name="Path 16071" d="M781.587,577.728c-.415.451,1.723,3.321,1.723,3.321s-3.276-.252-3.528-2.52a2.835,2.835,0,0,0-.128-.554c-.759-2.28-4.424-5.515-6.048-5.746-1.779-.252-5.292,4.032-6.68,7.056-.08.175-.16.335-.243.486-1.355,2.467-3.033,1.909-3.033,1.909.889-1.1,1.073-1.966.795-2.669-1.1-2.719-9.363-2.639-9.363-2.639s3.78-8.7,5.292-9.7,3.908-8.572,3.908-8.572,18.024-2.016,18.148-1.136,3.656,7.816,4.916,8.948,3.78,9.586,3.78,9.586c-4.284-1.26-9.01,1.826-9.514,2.206Z" transform="translate(-570.632 -433.401)" opacity="0.1"/>
    <path id="Path_16072" data-name="Path 16072" d="M781.6,576.871c-.415.451,1.723,3.321,1.723,3.321s-3.276-.252-3.528-2.52a2.835,2.835,0,0,0-.128-.555c-.759-2.28-4.424-5.515-6.049-5.746-1.779-.252-5.292,4.032-6.68,7.057-.08.175-.16.335-.243.486-1.355,2.467-3.027,1.906-3.027,1.906.89-1.1,1.073-1.966.795-2.668-1.1-2.719-9.363-2.639-9.363-2.639s3.78-8.7,5.292-9.7,3.908-8.572,3.908-8.572,18.024-2.016,18.148-1.136,3.656,7.816,4.916,8.948,3.78,9.58,3.78,9.58c-4.284-1.26-9.01,1.826-9.515,2.206Z" transform="translate(-570.646 -432.796)" fill="#7c9cbf"/>
    <path id="Path_16073" data-name="Path 16073" d="M746.888,721.83l-3.466,5.862s-1.64,1.512-2.9,1.26-2.52,3.528,2.648,2.772a49.74,49.74,0,0,0,11.216-3.528s.566-5.106-2.331-6.226Z" transform="translate(-559.606 -549.543)" opacity="0.1"/>
    <path id="Path_16074" data-name="Path 16074" d="M852.1,714.484l2.71,6.366s.756,1.779,2.268,1.779,2.016,3.152-2.9,2.648-8.572-4.412-8.572-4.412.379-6.048,2.648-6.428A9.667,9.667,0,0,1,852.1,714.484Z" transform="translate(-634.32 -544.222)" opacity="0.1"/>
    <path id="Path_16075" data-name="Path 16075" d="M746.888,722.68l-3.466,5.862s-1.64,1.512-2.9,1.26-2.52,3.528,2.648,2.772a49.744,49.744,0,0,0,11.216-3.528s.566-5.106-2.331-6.226Z" transform="translate(-559.606 -550.141)" fill="#b77983"/>
    <path id="Path_16076" data-name="Path 16076" d="M852.1,715.364l2.71,6.366s.756,1.779,2.268,1.779,2.016,3.152-2.9,2.648-8.572-4.412-8.572-4.412.379-6.048,2.648-6.428A9.667,9.667,0,0,1,852.1,715.364Z" transform="translate(-634.32 -544.841)" fill="#b77983"/>
    <g id="Group_8982" data-name="Group 8982" transform="translate(193.135 123.096)" opacity="0.1">
      <path id="Path_16077" data-name="Path 16077" d="M842.13,556.145c.127.89,3.656,7.816,4.916,8.948,1.156,1.041,3.377,8.249,3.733,9.417.228.044.454.095.679.16,0,0-2.52-8.444-3.78-9.58s-4.788-8.068-4.916-8.948c-.024-.175-.762-.237-1.921-.219C841.629,555.944,842.109,556.006,842.13,556.145Z" transform="translate(-824.1 -555.92)"/>
      <path id="Path_16078" data-name="Path 16078" d="M793.586,608.095c-1.779-.252-5.292,4.032-6.68,7.057-.08.175-.16.335-.243.486a3.3,3.3,0,0,1-2.283,1.936c.406.074,1.779.136,2.915-1.936.083-.151.163-.311.243-.486,1.272-2.775,4.344-6.606,6.206-7.027Z" transform="translate(-784.38 -592.618)"/>
      <path id="Path_16079" data-name="Path 16079" d="M842.855,620.688l.021-.021a14.624,14.624,0,0,1,7.012-2.5,14.135,14.135,0,0,0-7.644,2.5l-.021.021c-.365.4,1.242,2.668,1.637,3.2a5.737,5.737,0,0,0,.715.116S842.44,621.136,842.855,620.688Z" transform="translate(-825.036 -599.708)"/>
    </g>
    <path id="Path_16080" data-name="Path 16080" d="M735.09,377.2s0-7.688,5.041-8.068,6.819,2.268,5.8,2.52-5.292,2.016-5.292,2.016l-2.772,4.664Z" transform="translate(-556.569 -301.392)" fill="#f7bbc3"/>
    <path id="Path_16081" data-name="Path 16081" d="M862.629,383.15s0-7.688-5.04-8.068-6.819,2.268-5.8,2.52,5.292,2.016,5.292,2.016l2.772,4.664Z" transform="translate(-638.474 -305.578)" fill="#f7bbc3"/>
    <path id="Path_16082" data-name="Path 16082" d="M804.019,429.16s.38,5.04-2.772,7.94,7.32,6.541,7.32,6.541l4.664-5.545s-3.78-2.268-1.779-6.176Z" transform="translate(-602.694 -343.648)" fill="#f7bbc3"/>
    <path id="Path_16083" data-name="Path 16083" d="M745.237,408.442s-1.136,1.779-3.908.127S732,406.918,732,406.918l-6.553-3.024s.5-10.84,2.016-11.344c0,0-3.024,1.26-3.908-1.26l-5.04,13.36a5.388,5.388,0,0,0,3.152,4.032l10.46,6.428s4.536,2.772,4.536,9.7.889,17.9.889,17.9,14.608,8.833,20.538-1.5c0,0-2.4-12.224-.756-15.252,0,0,.5-7.94,4.536-9.452l10.451-9.589s2.016-1.26.5-4.916l-3.528-8.7s-2.144,3.024-3.908,1.512l2.016,8.572-4.032,3.78s-3.78,1.892-5.672,1.779a10.942,10.942,0,0,0-4.032.756s-.889,5.04-4.916,4.536C748.766,414.239,741.077,413.859,745.237,408.442Z" transform="translate(-544.912 -317.006)" opacity="0.1"/>
    <path id="Path_16084" data-name="Path 16084" d="M745.237,406.763s-1.136,1.779-3.908.128S732,405.248,732,405.248l-6.553-3.024s.5-10.84,2.016-11.344c0,0-3.024,1.26-3.908-1.26l-5.04,13.36a5.388,5.388,0,0,0,3.152,4.032l10.457,6.44s4.536,2.772,4.536,9.7.89,17.9.89,17.9,14.611,8.812,20.541-1.509c0,0-2.4-12.224-.756-15.252,0,0,.5-7.94,4.536-9.452l10.451-9.592s2.016-1.26.5-4.916l-3.528-8.7s-2.144,3.024-3.908,1.512l2.016,8.572-4.032,3.78s-3.78,1.892-5.672,1.779a10.941,10.941,0,0,0-4.032.756s-.889,5.04-4.916,4.536C748.766,412.563,741.077,412.18,745.237,406.763Z" transform="translate(-544.912 -315.831)" opacity="0.1"/>
    <path id="Path_16085" data-name="Path 16085" d="M808.49,448.32l-.05.068Z" transform="translate(-608.171 -357.127)" fill="#d39999"/>
    <path id="Path_16086" data-name="Path 16086" d="M772.349,406.1l-10.46,9.58c-4.032,1.512-4.536,9.452-4.536,9.452-1.64,3.024.756,15.252.756,15.252-5.93,10.336-20.544,1.512-20.544,1.512s-.03-.362-.077-1c-.041-.557-.1-1.328-.16-2.244-.083-1.186-.178-2.618-.267-4.172-.2-3.395-.38-7.35-.38-10.481,0-6.932-4.536-9.7-4.536-9.7l-7.828-4.827-2.615-1.607a5.392,5.392,0,0,1-3.152-4.032l5.04-13.36c.824,2.354,3.519,1.408,3.869,1.275-1.483.67-1.978,11.329-1.978,11.329l6.552,3.024s6.552,0,9.328,1.64c2.372,1.393,3.531.326,3.828-.027-3.985,5.337,3.608,5.7,3.608,5.7,4.032.5,4.916-4.536,4.916-4.536a10.507,10.507,0,0,1,4.032-.756c1.889.133,5.672-1.779,5.672-1.779l4.032-3.78-2.016-8.572c1.779,1.512,3.908-1.512,3.908-1.512l3.528,8.7C774.374,404.838,772.349,406.1,772.349,406.1Z" transform="translate(-544.933 -316.429)" fill="#d39999"/>
    <path id="Path_16087" data-name="Path 16087" d="M811.712,430.86a12.118,12.118,0,0,1-.122,2.372,6.173,6.173,0,0,0,7.116,3.715,4.448,4.448,0,0,1,.448-3.309Z" transform="translate(-610.387 -344.844)" opacity="0.1"/>
    <circle id="Ellipse_83" data-name="Ellipse 83" cx="6.176" cy="6.176" r="6.176" transform="translate(200.767 79.398)" fill="#f7bbc3"/>
    <path id="Path_16088" data-name="Path 16088" d="M816.61,402.238a3.4,3.4,0,0,0,.19,1.85,3.347,3.347,0,0,0,.593.759l1.293,1.331a3.406,3.406,0,0,1,.922,1.313c.374,1.245-.729,2.482-.694,3.783a1.684,1.684,0,0,0,1.909.706,3.261,3.261,0,0,0,.8-.442l1.248-.854a6.489,6.489,0,0,0,2.455-2.431,9.149,9.149,0,0,0,.359-3.638,18.914,18.914,0,0,0,.033-2.244,6.61,6.61,0,0,0-.593-2.058,7.475,7.475,0,0,0-2.639-3.211,5.233,5.233,0,0,0-4.02-.78,2.712,2.712,0,0,1-.682.122,3.386,3.386,0,0,1-1.245-.471,2.562,2.562,0,0,0-2.992.863c-.273.385-.43.845-.715,1.219-.424.557-1.115.91-1.4,1.548a6.237,6.237,0,0,0-.157,2.055,5.658,5.658,0,0,1-.56,1.764c.7-.243,1.041-1.008,1.482-1.6a3.929,3.929,0,0,1,2.891-1.465c.385-.018,1.1-.047,1.405.246C816.9,400.978,816.652,401.787,816.61,402.238Z" transform="translate(-609.768 -320.177)" opacity="0.1"/>
    <path id="Path_16089" data-name="Path 16089" d="M817.071,401.36a3.4,3.4,0,0,0,.19,1.85,3.344,3.344,0,0,0,.593.759l1.293,1.331a3.4,3.4,0,0,1,.922,1.313c.374,1.245-.729,2.482-.694,3.783a1.684,1.684,0,0,0,1.909.706,3.262,3.262,0,0,0,.827-.454l1.248-.854a6.488,6.488,0,0,0,2.455-2.431,9.15,9.15,0,0,0,.359-3.638,18.94,18.94,0,0,0,.033-2.244,6.61,6.61,0,0,0-.593-2.058,7.473,7.473,0,0,0-2.639-3.211,5.233,5.233,0,0,0-4.021-.78,2.713,2.713,0,0,1-.682.122,3.385,3.385,0,0,1-1.245-.471,2.562,2.562,0,0,0-2.992.863c-.273.385-.43.845-.714,1.219-.424.557-1.115.91-1.4,1.548a6.236,6.236,0,0,0-.157,2.055,5.657,5.657,0,0,1-.56,1.764c.7-.243,1.041-1.008,1.482-1.6a3.929,3.929,0,0,1,2.891-1.465c.385-.018,1.1-.047,1.405.246C817.367,400.1,817.121,400.9,817.071,401.36Z" transform="translate(-610.113 -319.551)" fill="#74585e"/>
    <g id="Group_8983" data-name="Group 8983" transform="translate(178.355 74.044)" opacity="0.1">
      <path id="Path_16090" data-name="Path 16090" d="M808.46,448.351c.036-.044.053-.071.053-.071Z" transform="translate(-786.54 -431.143)"/>
      <path id="Path_16091" data-name="Path 16091" d="M877.764,402.8a1.622,1.622,0,0,1-1.124-.421l.121.51A1.779,1.779,0,0,0,877.764,402.8Z" transform="translate(-834.505 -398.852)"/>
      <path id="Path_16092" data-name="Path 16092" d="M803.162,449.2c-3.158,4.848,3.952,5.2,3.952,5.2a3.922,3.922,0,0,0,1.619-.116,4.213,4.213,0,0,1-.987,0s-7.62-.377-3.582-5.728A2.052,2.052,0,0,1,803.162,449.2Z" transform="translate(-782.244 -431.34)"/>
      <path id="Path_16093" data-name="Path 16093" d="M844.538,449.981a5.319,5.319,0,0,0,1.515-.181,4.108,4.108,0,0,1-.889.056,8.266,8.266,0,0,0-2.333.234A7.41,7.41,0,0,1,844.538,449.981Z" transform="translate(-810.72 -432.212)"/>
      <path id="Path_16094" data-name="Path 16094" d="M850.54,405.976l-3.528-8.7a6.457,6.457,0,0,1-.457.554l3.356,8.257c1.512,3.656-.5,4.916-.5,4.916l-10.46,9.58c-4.032,1.512-4.536,9.452-4.536,9.452-1.64,3.024.756,15.252.756,15.252a9.416,9.416,0,0,1-6.2,4.72,9.367,9.367,0,0,0,6.819-4.848s-2.4-12.224-.756-15.252c0,0,.5-7.94,4.536-9.452l10.46-9.568S852.055,409.629,850.54,405.976Z" transform="translate(-800.969 -395.264)"/>
      <path id="Path_16095" data-name="Path 16095" d="M742.425,394.73a4.667,4.667,0,0,1-.8.228c-1.382,1.213-1.847,11.24-1.847,11.24l6.553,3.024s6.553,0,9.328,1.64a3.485,3.485,0,0,0,2.965.566,4.115,4.115,0,0,1-2.322-.691c-2.772-1.64-9.328-1.64-9.328-1.64l-6.57-3.021S740.91,395.234,742.425,394.73Z" transform="translate(-738.223 -393.47)"/>
      <path id="Path_16096" data-name="Path 16096" d="M737.634,392.019a2.366,2.366,0,0,1-2.808-1.539l-.3.786C735.354,392.437,736.864,392.223,737.634,392.019Z" transform="translate(-734.53 -390.48)"/>
    </g>
    <path id="Path_16097" data-name="Path 16097" d="M750.75,479.559c-.2-3.395-.38-7.35-.38-10.481,0-6.932-4.536-9.7-4.536-9.7L738,454.55c4.566,1.186,10.641,3.229,11.187,5.633.889,3.908,2.52,4.284,1.892,10.97a75.557,75.557,0,0,0-.329,8.406Z" transform="translate(-558.616 -361.51)" opacity="0.1"/>
    <path id="Path_16098" data-name="Path 16098" d="M780.216,571.35a5.331,5.331,0,0,1-2.016,5.8" transform="translate(-586.897 -443.68)" opacity="0.1"/>
    <path id="Path_16099" data-name="Path 16099" d="M844.55,571.35s.38,2.648,1.892,3.656" transform="translate(-633.575 -443.68)" opacity="0.1"/>
    <path id="Path_16100" data-name="Path 16100" d="M754.392,740.646a49.743,49.743,0,0,1-11.216,3.528c-2.621.382-3.588-.4-3.739-1.231-.172.97.593,2.2,3.739,1.735a49.743,49.743,0,0,0,11.216-3.528,10.7,10.7,0,0,0,.041-1.26C754.412,740.353,754.392,740.646,754.392,740.646Z" transform="translate(-559.611 -562.248)" opacity="0.1"/>
    <path id="Path_16101" data-name="Path 16101" d="M854.3,729.3c-4.916-.5-8.572-4.412-8.572-4.412A16.474,16.474,0,0,1,846.81,720a15.659,15.659,0,0,0-1.21,5.141s3.656,3.908,8.572,4.412c2.511.258,3.608-.439,3.878-1.186C857.638,729.011,856.523,729.529,854.3,729.3Z" transform="translate(-634.313 -548.256)" opacity="0.1"/>
    <rect id="Rectangle_2244" data-name="Rectangle 2244" width="31.618" height="21.078" transform="translate(149.809 98.407)" fill="#fff"/>
    <path id="Path_16102" data-name="Path 16102" d="M997.809,510.54s-5.556-18.866,1.041-32.748a29.8,29.8,0,0,0,2.411-18.679,50.115,50.115,0,0,0-2.648-8.773" transform="translate(-739.854 -358.548)" fill="none" stroke="#535461" stroke-miterlimit="10" stroke-width="2"/>
    <path id="Path_16103" data-name="Path 16103" d="M999.733,410.757c0,2.313-4.186,9.016-4.186,9.016s-4.187-6.7-4.187-9.016a4.187,4.187,0,0,1,8.373,0Z" transform="translate(-736.856 -327.756)" fill="#6e78f7"/>
    <path id="Path_16104" data-name="Path 16104" d="M1022.974,448.556c-1.257,1.942-8.414,5.292-8.414,5.292s.13-7.9,1.388-9.844a4.186,4.186,0,1,1,7.027,4.551Z" transform="translate(-753.178 -352.747)" fill="#6e78f7"/>
    <path id="Path_16105" data-name="Path 16105" d="M1018.346,518.787c-2.075,1.041-9.935.323-9.935.323s4.1-6.757,6.167-7.8a4.186,4.186,0,1,1,3.768,7.475Z" transform="translate(-748.851 -401.097)" fill="#6e78f7"/>
    <path id="Path_16106" data-name="Path 16106" d="M1005.467,575.452c-1.859,1.376-9.737,2-9.737,2s2.9-7.353,4.759-8.726a4.186,4.186,0,1,1,4.979,6.731Z" transform="translate(-739.93 -441.252)" fill="#6e78f7"/>
    <path id="Path_16107" data-name="Path 16107" d="M981.878,466.187c1.657,1.61,9.384,3.279,9.384,3.279s-1.892-7.673-3.558-9.286a4.186,4.186,0,1,0-5.835,6Z" transform="translate(-729.287 -364.637)" fill="#6e78f7"/>
    <path id="Path_16108" data-name="Path 16108" d="M964.865,529.857c2.075,1.041,9.936.323,9.936.323s-4.1-6.757-6.167-7.8a4.187,4.187,0,0,0-3.769,7.475Z" transform="translate(-716.656 -408.944)" fill="#6e78f7"/>
    <path id="Path_16109" data-name="Path 16109" d="M960.442,596.081c1.859,1.376,9.737,2,9.737,2s-2.9-7.353-4.759-8.726a4.186,4.186,0,1,0-4.979,6.731Z" transform="translate(-713.911 -455.766)" fill="#6e78f7"/>
    <path id="Path_16110" data-name="Path 16110" d="M930.9,528.4s-3.493-11.86.655-20.589a18.733,18.733,0,0,0,1.515-11.75,31.532,31.532,0,0,0-1.663-5.515" transform="translate(-693.353 -386.836)" fill="none" stroke="#535461" stroke-miterlimit="10" stroke-width="2"/>
    <path id="Path_16111" data-name="Path 16111" d="M932.076,465.9c0,1.453-2.633,5.669-2.633,5.669s-2.633-4.216-2.633-5.669a2.633,2.633,0,0,1,5.263,0Z" transform="translate(-691.445 -367.707)" fill="#6e78f7"/>
    <path id="Path_16112" data-name="Path 16112" d="M946.7,489.291c-.789,1.219-5.29,3.327-5.29,3.327s.083-4.969.872-6.188a2.633,2.633,0,1,1,4.418,2.861Z" transform="translate(-701.716 -383.045)" fill="#6e78f7"/>
    <path id="Path_16113" data-name="Path 16113" d="M943.777,533.736c-1.3.655-6.247.2-6.247.2s2.579-4.249,3.875-4.9a2.633,2.633,0,0,1,2.372,4.7Z" transform="translate(-698.987 -413.733)" fill="#6e78f7"/>
    <path id="Path_16114" data-name="Path 16114" d="M935.683,569.332c-1.168.866-6.123,1.254-6.123,1.254s1.823-4.622,2.992-5.485a2.633,2.633,0,0,1,3.131,4.231Z" transform="translate(-693.38 -438.952)" fill="#6e78f7"/>
    <path id="Path_16115" data-name="Path 16115" d="M920.725,500.419c1.044,1.014,5.9,2.075,5.9,2.075s-1.186-4.824-2.233-5.838a2.633,2.633,0,1,0-3.668,3.774Z" transform="translate(-686.558 -390.564)" fill="#6e78f7"/>
    <path id="Path_16116" data-name="Path 16116" d="M910.175,540.566c1.3.655,6.247.2,6.247.2s-2.58-4.249-3.875-4.9a2.633,2.633,0,0,0-2.372,4.7Z" transform="translate(-678.765 -418.538)" fill="#6e78f7"/>
    <path id="Path_16117" data-name="Path 16117" d="M907.24,582.084c1.168.866,6.123,1.254,6.123,1.254s-1.823-4.622-2.992-5.485a2.633,2.633,0,1,0-3.131,4.231Z" transform="translate(-676.883 -447.858)" fill="#6e78f7"/>
  </g>
</svg>
