<svg xmlns="http://www.w3.org/2000/svg" width="50" height="50" viewBox="0 0 50 50">
  <g id="Group_8949" data-name="Group 8949" transform="translate(-119 -167)">
    <circle id="Ellipse_53" data-name="Ellipse 53" cx="25" cy="25" r="25" transform="translate(119 167)" fill="#6e78f7"/>
    <g id="bussineswoman" transform="translate(19.193 162.038)">
      <path id="Path_15947" data-name="Path 15947" d="M217.253,322.929h8.6V336.98h-8.6Z" transform="translate(-97.122 -287.085)" fill="#e09f67"/>
      <g id="Group_8943" data-name="Group 8943" transform="translate(120.131 35.844)">
        <path id="Path_15948" data-name="Path 15948" d="M217.253,322.929v3.953a6.173,6.173,0,0,0,5.47,2.273,6.385,6.385,0,0,0,3.126-1.411v-4.815Z" transform="translate(-217.253 -322.929)" fill="#ce8a57"/>
      </g>
      <g id="Group_8944" data-name="Group 8944" transform="translate(113.661 14.945)">
        <path id="Path_15949" data-name="Path 15949" d="M359.081,210.647l.7-2.326a1.606,1.606,0,0,1,1.87,1.021c.646,1.376-1.044,4.2-2.5,4.442A8.1,8.1,0,0,1,359.081,210.647Z" transform="translate(-340.092 -197.402)" fill="#e09f67"/>
        <path id="Path_15950" data-name="Path 15950" d="M145.951,210.647l-.7-2.326a1.606,1.606,0,0,0-1.87,1.021c-.646,1.376,1.044,4.2,2.5,4.442A8.093,8.093,0,0,0,145.951,210.647Z" transform="translate(-143.244 -197.402)" fill="#e09f67"/>
        <path id="Path_15951" data-name="Path 15951" d="M183.016,97.094q0-.146,0-.292c0-6.041,1.687-12.857-8.575-12.957l-.23,0-.23,0c-10.261.1-8.575,6.916-8.575,12.957q0,.146,0,.292a28.944,28.944,0,0,0,1.406,5.433c.635,1.124,3.618,6.447,7.187,6.447,0,0,.415,0,.419,0,3.569,0,6.683-5.576,7.318-6.7a26.468,26.468,0,0,0,1.275-5.181h-.006Z" transform="translate(-163.38 -83.843)" fill="#e09f67"/>
      </g>
      <g id="Group_8945" data-name="Group 8945" transform="translate(110.828 42.631)">
        <path id="Path_15952" data-name="Path 15952" d="M137.936,405.624c-.161-3.006-3.121-4.813-5.011-5.01-.82-.086-4.163-.03-4.163-.03s-3.2,6.956-4.253,6.956c-1.028,0-4.392-6.956-4.392-6.956s-3.2-.055-4.024.03c-1.891.2-5.039,1.142-5.2,5.234a5.407,5.407,0,0,0,0,1.691s4.921,4.378,13.619,4.425c.065,0,.88,0,.944,0a24.822,24.822,0,0,0,12.17-3.757A10.785,10.785,0,0,0,137.936,405.624Z" transform="translate(-110.828 -400.566)" fill="#fc6121"/>
      </g>
      <path id="Path_15953" data-name="Path 15953" d="M153.469,70.019c1.453-1.958,4.5-4.676,6.019-8.807,1.522,2.609,8.325,7.216,11.826,8.772a20.23,20.23,0,0,0,.59-7.793c-.458-2.392-4.589-7.066-12.742-4.892S151.907,65.454,153.469,70.019Z" transform="translate(-37.967 -44.161)" fill="#240703"/>
      <path id="Path_15954" data-name="Path 15954" d="M192.741,11.495a1.739,1.739,0,0,1-1.409,2.016l-5.622.789a1.739,1.739,0,0,1-2.016-1.409l-.3-1.713A1.739,1.739,0,0,1,184.8,9.162l5.622-.789a1.739,1.739,0,0,1,2.016,1.409Z" transform="translate(-66.195 0)" fill="#240703"/>
    </g>
  </g>
</svg>
