<svg xmlns="http://www.w3.org/2000/svg" width="30" height="30" viewBox="0 0 30 30">
  <g id="google-symbol" transform="translate(0 0)">
    <path id="Path_13" data-name="Path 13" d="M29.759,12.223a.241.241,0,0,1,.241.241V15A15,15,0,1,1,25.431,4.22a.242.242,0,0,1,0,.346L21.848,8.152a.241.241,0,0,1-.336,0,9.445,9.445,0,1,0,2.52,9.62h-8.79A.241.241,0,0,1,15,17.535v-5.07a.241.241,0,0,1,.241-.241H29.759Z" transform="translate(0 0)" fill="#2196f3"/>
    <g id="Group_339" data-name="Group 339" transform="translate(14.094 12.223)">
      <path id="Path_14" data-name="Path 14" d="M256.2,208.612h-1.811a.241.241,0,0,1,.241.241v2.535a14.987,14.987,0,0,1-14.1,14.973q.4.023.8.027a14.988,14.988,0,0,0,15.106-15v-2.535A.241.241,0,0,0,256.2,208.612Z" transform="translate(-240.531 -208.612)" fill="#1e88e5"/>
    </g>
    <path id="Path_15" data-name="Path 15" d="M36.368,11.044,31.812,7.752A15,15,0,0,1,55.379,4.22a.242.242,0,0,1,0,.346L51.8,8.152a.241.241,0,0,1-.336.005,9.448,9.448,0,0,0-15.093,2.887Z" transform="translate(-29.948 0)" fill="#f44336"/>
    <path id="Path_16" data-name="Path 16" d="M87.115,99.317l1.315.95a9.452,9.452,0,0,1,7.6-5.439l.076-.009q-.446-.042-.9-.043A9.418,9.418,0,0,0,87.115,99.317Z" transform="translate(-82.011 -89.224)" fill="#e53935"/>
    <path id="Path_17" data-name="Path 17" d="M250.07,4.22a.242.242,0,0,1,0,.346l-2.911,2.911a9.5,9.5,0,0,1,.8.68.241.241,0,0,0,.336,0l3.587-3.587a.242.242,0,0,0,0-.346A14.954,14.954,0,0,0,241.451,0c-.3,0-.606.01-.906.028A14.952,14.952,0,0,1,250.07,4.22Z" transform="translate(-226.451 0)" fill="#e53935"/>
    <path id="Path_18" data-name="Path 18" d="M51.4,322.772a15,15,0,0,1-24.423-3.485l4.651-3.187a9.448,9.448,0,0,0,15.216,3.382Z" transform="translate(-25.399 -297.579)" fill="#4caf50"/>
    <path id="Path_19" data-name="Path 19" d="M84.321,316.1l-1.371.94a9.445,9.445,0,0,0,8.329,4.985c.3,0,.606-.015.9-.043A9.454,9.454,0,0,1,84.321,316.1Z" transform="translate(-78.09 -297.579)" fill="#43a047"/>
    <path id="Path_20" data-name="Path 20" d="M241.489,421.832a14.958,14.958,0,0,0,11-4.806l-1.116-.806a14.973,14.973,0,0,1-10.791,5.585Q241.034,421.832,241.489,421.832Z" transform="translate(-226.489 -391.832)" fill="#43a047"/>
    <path id="Path_21" data-name="Path 21" d="M5.553,139.554a9.418,9.418,0,0,0,.678,3.522l-4.651,3.187a15.024,15.024,0,0,1,.283-13.956L6.42,135.6a9.408,9.408,0,0,0-.866,3.956Z" transform="translate(0 -124.554)" fill="#ffc107"/>
    <path id="Path_22" data-name="Path 22" d="M64.989,181.633l1.371-.94a9.473,9.473,0,0,1,.188-7.478l-1.315-.95a9.492,9.492,0,0,0-.244,9.368Z" transform="translate(-60.129 -162.171)" fill="#ffb300"/>
  </g>
</svg>
