<svg xmlns="http://www.w3.org/2000/svg" xmlns:xlink="http://www.w3.org/1999/xlink" width="92.153" height="82.574" viewBox="0 0 92.153 82.574">
  <defs>
    <filter id="Path_17045" x="0" y="0" width="92.153" height="82.574" filterUnits="userSpaceOnUse">
      <feOffset dy="3" input="SourceAlpha"/>
      <feGaussianBlur stdDeviation="3" result="blur"/>
      <feFlood flood-opacity="0.161"/>
      <feComposite operator="in" in2="blur"/>
      <feComposite in="SourceGraphic"/>
    </filter>
  </defs>
  <g id="heart" transform="translate(7.086 5.5)">
    <g transform="matrix(1, 0, 0, 1, -7.09, -5.5)" filter="url(#Path_17045)">
      <path id="Path_17045-2" data-name="Path 17045" d="M68.161.5a18.523,18.523,0,0,0-16.12,9.425h0a2.926,2.926,0,0,1-4.814,0h0A18.535,18.535,0,0,0,12.566,19.1c.03,30.019,37.122,45.979,37.122,45.979S86.749,49.038,86.72,19.02A18.54,18.54,0,0,0,68.161.5Zm0,0" transform="translate(-3.57 5.5)" fill="#ff6b6b"/>
    </g>
    <path id="Path_17046" data-name="Path 17046" d="M17.136,19.307A18.539,18.539,0,0,1,33.381.891a18.746,18.746,0,0,0-2.3-.141A18.537,18.537,0,0,0,12.566,19.307c.03,30.019,37.122,45.979,37.122,45.979s.845-.366,2.279-1.09C43.883,60.135,17.161,44.785,17.136,19.307Zm0,0" transform="translate(-10.652 -0.212)" fill="#ee5253"/>
    <path id="Path_17047" data-name="Path 17047" d="M21.454,128.654,15.625,110.8l-2,5.688a1.143,1.143,0,0,1-1.077.763H1.142a1.142,1.142,0,1,1,0-2.285H11.734l2.856-8.1a1.143,1.143,0,0,1,2.163.025l5.547,16.99L27.671,98.3a1.143,1.143,0,0,1,2.231-.022l3.857,16.692H46.141l3.154-8.132a1.144,1.144,0,0,1,2.154.068l4.658,14.714L59.7,100.095a1.144,1.144,0,0,1,2.236-.086l3.691,14.958H76.839a1.142,1.142,0,1,1,0,2.285H64.732a1.142,1.142,0,0,1-1.109-.869l-2.58-10.456-3.463,20.752a1.144,1.144,0,0,1-2.216.156l-5.112-16.147-2.263,5.834a1.142,1.142,0,0,1-1.065.729H32.851a1.143,1.143,0,0,1-1.113-.885l-2.9-12.529-5.184,24.7A1.143,1.143,0,0,1,21.454,128.654Zm0,0" transform="translate(0 -82.133)" fill="#fff"/>
  </g>
</svg>
