<svg xmlns="http://www.w3.org/2000/svg" width="112.754" height="84.305" viewBox="0 0 112.754 84.305">
  <path id="Path_15622" data-name="Path 15622" d="M186.8,98.121v16.157h25.316V98.121Zm0,16.655v13.874c.145.03.288.06.431.084.194.037.387.071.584.1.037.006.076.012.117.015.077.013.156.023.234.034.2.027.389.049.584.067.092.009.186.018.279.025l.225.018h0c.123.009.244.016.364.02.075,0,.149.007.227.009h.833c.1,0,.2,0,.3-.009h.007a1.572,1.572,0,0,0,.209-.009.491.491,0,0,0,.058,0,1.207,1.207,0,0,0,.173-.008h.041l.391-.03c.128-.012.258-.027.389-.041l.266-.032a23.292,23.292,0,0,0,3.206-.682c2.361-.659,4.672-1.58,7.032-2.255,3.052-.87,6.423-1.3,9.372-.234V114.776Zm25.316-34.642V58.626a32.546,32.546,0,0,0-8.225.965A40.415,40.415,0,0,0,186.8,69.155V80.133h1.271v.5H186.8v16.99h25.316V80.633H193.288v-.5Zm32.517-7.265a10.486,10.486,0,0,1-4.589-1.334c-2.727-1.483-4.905-3.773-7.339-5.706a33.7,33.7,0,0,0-17.762-7.058V80.135h36.14l.09-.095Zm3.292-.584,3.491,3.831V71.281a13.85,13.85,0,0,0-3.486,1Zm3.491,59.811v-17.32h-7.438c-.02-.074-.04-.148-.063-.223.022.075.041.149.062.223H214.948V127.3c.276.2.548.419.818.638h0c.291.234.578.48.867.722l.291.241c.139.117.279.234.42.343q.42.341.849.673c.141.117.286.222.43.332a58.539,58.539,0,0,0,7.2,4.708q.844.467,1.7.912c.382.2.766.389,1.152.577q.869.424,1.752.818h0a64.332,64.332,0,0,0,17.051,4.967q1.961.29,3.937.455V132.095h0ZM214.948,80.633V97.622h36.473V80.633Zm0,17.488v16.157h36.473V98.121Zm39.3-26.861v5.393l4.456-4.889q-2.214-.357-4.456-.51Zm0,26.867v16.151h35.475V98.121ZM289.6,133.378l.125-18.6h-35.47v28.1a63.611,63.611,0,0,0,6.856-.082h.04q1.635-.1,3.255-.3h.025a59.941,59.941,0,0,0,16.724-4.463m15.416-37.247c-.133-.314-.272-.626-.413-.934-.264-.584-.543-1.152-.83-1.719h-2.768v16.15h7a34.91,34.91,0,0,0-2.983-13.5Zm-4.012,14v16a22.921,22.921,0,0,0,4.836-6.523,22.424,22.424,0,0,0,2.156-9.48Zm0-21.363v4.2h2.509a45.542,45.542,0,0,0-2.505-4.21ZM268.5,74.429c-.185-.07-.369-.141-.555-.21a50.644,50.644,0,0,0-5.992-1.8L255.132,79.9h0L255,80.04l.088.1h24.266A51.9,51.9,0,0,0,268.5,74.424Zm11.569,6.21H254.75l-.5.455V97.622h35.479V89.617a50.547,50.547,0,0,0-9.662-8.983Z" transform="translate(-186.8 -58.624)" fill="#0880ae" opacity="0.1"/>
</svg>
