<svg xmlns="http://www.w3.org/2000/svg" width="16" height="16" viewBox="0 0 16 16">
  <path id="lungs" d="M15,16a1.259,1.259,0,0,1-.594-.258q-.391-.258-.945-.648A7.759,7.759,0,0,0,12.5,14.5q-.344-.172-.781-.36t-.7-.3q-.265-.117-.524-.258a1.283,1.283,0,0,1-.375-.281A.461.461,0,0,1,10,13V8.469l-2-2-2,2V13a.457.457,0,0,1-.117.3,1.3,1.3,0,0,1-.375.281q-.258.141-.524.258t-.7.3q-.437.188-.781.36a7.759,7.759,0,0,0-.961.594q-.555.391-.945.648A1.259,1.259,0,0,1,1,16q-.672,0-.836-.937A19.941,19.941,0,0,1,0,12,17.823,17.823,0,0,1,.516,7.328,11.646,11.646,0,0,1,2,4,4.636,4.636,0,0,1,3.563,2.5,3.188,3.188,0,0,1,5,2a.954.954,0,0,1,.711.3A.972.972,0,0,1,6,3V5.531l1-1V1A.961.961,0,0,1,7.3.3.97.97,0,0,1,8.008,0a.944.944,0,0,1,.7.3A.974.974,0,0,1,9,1V4.531l1,1V3a.961.961,0,0,1,.3-.7A.961.961,0,0,1,11,2a3.188,3.188,0,0,1,1.437.5A4.636,4.636,0,0,1,14,4a11.653,11.653,0,0,1,1.484,3.328A17.82,17.82,0,0,1,16,12q0,.734-.008,1.094t-.031.93a5.037,5.037,0,0,1-.086.844,5.091,5.091,0,0,1-.172.578.882.882,0,0,1-.281.43A.7.7,0,0,1,15,16Z" transform="translate(0)" fill="#fff"/>
</svg>
