<svg xmlns="http://www.w3.org/2000/svg" width="98" height="58.545" viewBox="0 0 98 58.545">
  <g id="mail-send-svgrepo-com" transform="translate(-267.5 -176.727)">
    <path id="Union_4" data-name="Union 4" d="M-8138.955-2820.729a2.116,2.116,0,0,1-2.227-2.252,2.116,2.116,0,0,1,2.227-2.251h71.273a2.116,2.116,0,0,0,2.227-2.252v-45.035a2.116,2.116,0,0,0-2.227-2.252h-71.273a2.116,2.116,0,0,1-2.227-2.252,2.116,2.116,0,0,1,2.227-2.252h71.273a6.6,6.6,0,0,1,6.682,6.755v45.035a6.6,6.6,0,0,1-6.682,6.755Zm65.259-9.682-13.363-13.51a2.193,2.193,0,0,1,0-3.152,2.137,2.137,0,0,1,3.118,0l13.364,13.51a2.194,2.194,0,0,1,0,3.152,2.393,2.393,0,0,1-1.559.676A2.394,2.394,0,0,1-8073.7-2830.411Zm-69.713-6.08a2.116,2.116,0,0,1-2.228-2.251,2.116,2.116,0,0,1,2.228-2.252h17.817a2.116,2.116,0,0,1,2.228,2.252,2.115,2.115,0,0,1-2.227,2.251Zm35.636-11.483-23.832-18.24a2.219,2.219,0,0,1-.446-3.153,2.163,2.163,0,0,1,3.118-.45l23.609,18.239a6.958,6.958,0,0,0,8.241,0l23.609-18.239a2.376,2.376,0,0,1,3.118.45,2.44,2.44,0,0,1-.445,3.153l-23.609,18.24a10.439,10.439,0,0,1-6.682,2.251A10.877,10.877,0,0,1-8107.773-2847.974Zm-42.318.225a2.115,2.115,0,0,1-2.227-2.251,2.115,2.115,0,0,1,2.227-2.251h17.818a2.115,2.115,0,0,1,2.227,2.251,2.115,2.115,0,0,1-2.227,2.251Zm-6.682-11.258a2.116,2.116,0,0,1-2.227-2.252,2.116,2.116,0,0,1,2.227-2.252h17.818a2.116,2.116,0,0,1,2.227,2.252,2.116,2.116,0,0,1-2.227,2.252Z" transform="translate(8426.5 3056)" fill="#6e78f7"/>
  </g>
</svg>
