<svg xmlns="http://www.w3.org/2000/svg" width="34" height="39.484" viewBox="0 0 34 39.484">
  <g id="x-ray_1_" data-name="x-ray (1)" transform="translate(-25.25 -19)">
    <path id="Path_16226" data-name="Path 16226" d="M55.733,19H28.767a3.834,3.834,0,0,0-3.517,4.084V54.4a3.834,3.834,0,0,0,3.517,4.084H55.733A3.834,3.834,0,0,0,59.25,54.4V23.084A3.834,3.834,0,0,0,55.733,19ZM43.089,24.243" transform="translate(0)" fill="#e4eaf8"/>
    <path id="Path_16227" data-name="Path 16227" d="M58.637,37.336a4.991,4.991,0,0,1-7.05,0,1.264,1.264,0,0,0-.641-.347v-3.4a7.538,7.538,0,0,0,9.494-.952,1.273,1.273,0,1,0-1.8-1.8,4.991,4.991,0,0,1-7.05,0,1.256,1.256,0,0,0-1.2-.333h0a1.515,1.515,0,0,0-1.939,0h0a1.256,1.256,0,0,0-1.2.333,4.991,4.991,0,0,1-7.05,0,1.273,1.273,0,0,0-1.8,1.8,7.538,7.538,0,0,0,9.494.952v3.4a1.264,1.264,0,0,0-.641.347,4.991,4.991,0,0,1-7.05,0,1.275,1.275,0,0,0-1.8,1.8,7.546,7.546,0,0,0,9.494.948v4.462a4.984,4.984,0,0,1-6.155-.711,1.275,1.275,0,1,0-1.8,1.8,7.544,7.544,0,0,0,7.958,1.729v4.519H42.532A2.819,2.819,0,0,0,39.8,55.334a2.879,2.879,0,0,0,2.843,2.174,1.387,1.387,0,0,1,1.333.938A3.649,3.649,0,0,0,47.44,61h3.94a3.649,3.649,0,0,0,3.472-2.549,1.387,1.387,0,0,1,1.335-.938,2.881,2.881,0,0,0,2.888-2.427,2.819,2.819,0,0,0-2.784-3.193H50.947V47.369a7.544,7.544,0,0,0,7.958-1.729,1.275,1.275,0,1,0-1.8-1.8,4.984,4.984,0,0,1-6.155.711V40.087a7.546,7.546,0,0,0,9.494-.948,1.275,1.275,0,0,0-1.8-1.8Z" transform="translate(-7.161 -6.258)" fill="#0880ae"/>
    <g id="Group_8992" data-name="Group 8992" transform="translate(34.407 47.414)">
      <circle id="Ellipse_85" data-name="Ellipse 85" cx="0.98" cy="0.98" r="0.98" fill="#4e878c"/>
      <circle id="Ellipse_86" data-name="Ellipse 86" cx="0.98" cy="0.98" r="0.98" transform="translate(13.727)" fill="#4e878c"/>
    </g>
  </g>
</svg>
