<svg xmlns="http://www.w3.org/2000/svg" width="397.242" height="148.57" viewBox="0 0 397.242 148.57">
  <path id="Path_17217" data-name="Path 17217" d="M109.291,242.313,79.6,159.555,69.382,185.92a5.816,5.816,0,0,1-5.489,3.536H5.819a5.319,5.319,0,1,1,0-10.59H59.775l14.547-37.54c1.861-4.807,9.313-4.639,11.02.116L113.6,220.2l27.358-118.6c1.279-5.546,9.962-5.629,11.365-.1l19.648,77.374h63.075l16.066-37.694c1.97-4.619,9.31-4.459,10.974.317l23.731,68.2,18.3-99.765c1.04-5.667,9.889-5.927,11.389-.4l18.8,69.335h57.117a5.319,5.319,0,1,1,0,10.59H329.748a5.742,5.742,0,0,1-5.649-4.026l-13.144-48.467-17.642,96.194c-1,5.441-9.444,6.026-11.289.725l-26.04-74.848-11.526,27.043a5.835,5.835,0,0,1-5.425,3.378H167.344a5.735,5.735,0,0,1-5.67-4.1l-14.747-58.078L120.52,241.758C119.3,247.034,111.145,247.478,109.291,242.313Zm0,0" transform="translate(0 -97.39)" fill="#fff" opacity="0.45"/>
</svg>
