<svg xmlns="http://www.w3.org/2000/svg" width="247.018" height="191.204" viewBox="0 0 247.018 191.204">
  <g id="Group_9069" data-name="Group 9069" transform="translate(-63.991 -142.296)">
    <path id="Path_16456" data-name="Path 16456" d="M113.087,31.778c-7.943-.292-16.24-.5-23.422,2.907S76.93,46.339,79.339,53.923c.786,2.472,2.317,4.627,3.608,6.878a39.661,39.661,0,0,1,.77,37.32C79.11,106.985,71.3,113.73,65.681,121.989s-8.816,19.7-3.286,28.024c3.786,5.7,10.813,8.469,17.62,9.14s13.653-.386,20.49-.658a88.261,88.261,0,0,1,38.75,7.328c16.793,7.363,31.26,19.958,48.942,24.818a14.788,14.788,0,0,0,6.512.658c3.85-.7,6.65-3.885,9.664-6.4,9.622-7.968,22.945-9.456,35.435-9.826s25.5-.085,36.79-5.448c9.858-4.682,17.447-13.393,22.165-23.232s6.768-20.774,7.541-31.662c.457-6.48.441-13.171-1.878-19.238-2.607-6.821-7.895-12.253-13.441-17-5.8-4.963-12.111-9.46-19.266-12.138-8.546-3.2-17.824-3.656-26.923-4.415a369.839,369.839,0,0,1-55.381-8.894c-17.282-4.131-36.257-8.644-52-17.06C129.519,31.762,121.992,32.1,113.087,31.778Z" transform="translate(4.47 110.666)" fill="#6e78f7" opacity="0.1"/>
    <g id="Group_8997" data-name="Group 8997" transform="translate(222.936 246.566)" opacity="0.1">
      <path id="Path_16457" data-name="Path 16457" d="M773.4,551.815s.809-11.336,7.189-17.517a17.213,17.213,0,0,0,5.087-9.632,29.1,29.1,0,0,0,.343-5.285" transform="translate(-769.218 -512.195)" fill="#6e78f7"/>
      <path id="Path_16458" data-name="Path 16458" d="M830.353,491.2c-.469,1.252-4.09,4.035-4.09,4.035s-.914-4.477-.441-5.729a2.419,2.419,0,1,1,4.531,1.693Z" transform="translate(-809.555 -487.938)" fill="#6e78f7"/>
      <path id="Path_16459" data-name="Path 16459" d="M832.176,524.1c-1.074.8-5.626,1.163-5.626,1.163s1.668-4.253,2.742-5.05a2.42,2.42,0,0,1,2.884,3.885Z" transform="translate(-810.222 -512.496)" fill="#6e78f7"/>
      <path id="Path_16460" data-name="Path 16460" d="M812.7,574.056c-1.33.146-5.445-1.828-5.445-1.828s3.588-2.829,4.915-2.971a2.418,2.418,0,0,1,.53,4.8Z" transform="translate(-795.333 -550.672)" fill="#6e78f7"/>
      <path id="Path_16461" data-name="Path 16461" d="M787.926,609.786c-1.284.368-5.676-.889-5.676-.889s3.057-3.393,4.342-3.761a2.42,2.42,0,1,1,1.334,4.65Z" transform="translate(-776.045 -578.267)" fill="#6e78f7"/>
      <path id="Path_16462" data-name="Path 16462" d="M804.638,525.612c.571,1.207,4.415,3.672,4.415,3.672s.53-4.536-.043-5.745a2.42,2.42,0,0,0-4.371,2.073Z" transform="translate(-793.159 -514.385)" fill="#6e78f7"/>
      <path id="Path_16463" data-name="Path 16463" d="M775.628,565.343c.914.98,5.313,2.185,5.313,2.185s-.852-4.488-1.76-5.471a2.42,2.42,0,1,0-3.553,3.286Z" transform="translate(-770.44 -544.521)" fill="#6e78f7"/>
      <path id="Path_16464" data-name="Path 16464" d="M755.452,611.111c.727,1.12,4.867,3.051,4.867,3.051s-.082-4.57-.811-5.688a2.42,2.42,0,0,0-4.056,2.637Z" transform="translate(-755.097 -580.125)" fill="#6e78f7"/>
      <path id="Path_16465" data-name="Path 16465" d="M830.353,491.2c-.469,1.252-4.09,4.035-4.09,4.035s-.914-4.477-.441-5.729a2.419,2.419,0,1,1,4.531,1.693Z" transform="translate(-809.555 -487.938)" fill="#6e78f7"/>
      <path id="Path_16466" data-name="Path 16466" d="M832.176,524.1c-1.074.8-5.626,1.163-5.626,1.163s1.668-4.253,2.742-5.05a2.42,2.42,0,0,1,2.884,3.885Z" transform="translate(-810.222 -512.496)" fill="#6e78f7"/>
      <path id="Path_16467" data-name="Path 16467" d="M812.7,574.056c-1.33.146-5.445-1.828-5.445-1.828s3.588-2.829,4.915-2.971a2.418,2.418,0,0,1,.53,4.8Z" transform="translate(-795.333 -550.672)" fill="#6e78f7"/>
      <path id="Path_16468" data-name="Path 16468" d="M787.926,609.786c-1.284.368-5.676-.889-5.676-.889s3.057-3.393,4.342-3.761a2.42,2.42,0,1,1,1.334,4.65Z" transform="translate(-776.045 -578.267)" fill="#6e78f7"/>
      <path id="Path_16469" data-name="Path 16469" d="M804.638,525.612c.571,1.207,4.415,3.672,4.415,3.672s.53-4.536-.043-5.745a2.42,2.42,0,0,0-4.371,2.073Z" transform="translate(-793.159 -514.385)" fill="#6e78f7"/>
      <path id="Path_16470" data-name="Path 16470" d="M775.628,565.343c.914.98,5.313,2.185,5.313,2.185s-.852-4.488-1.76-5.471a2.42,2.42,0,1,0-3.553,3.286Z" transform="translate(-770.44 -544.521)" fill="#6e78f7"/>
      <path id="Path_16471" data-name="Path 16471" d="M755.452,611.111c.727,1.12,4.867,3.051,4.867,3.051s-.082-4.57-.811-5.688a2.42,2.42,0,0,0-4.056,2.637Z" transform="translate(-755.097 -580.125)" fill="#6e78f7"/>
    </g>
    <g id="Group_8998" data-name="Group 8998" transform="translate(219.101 187.657)" opacity="0.1">
      <path id="Path_16472" data-name="Path 16472" d="M783.2,364.034s.809-11.336,7.189-17.517a17.23,17.23,0,0,0,5.087-9.632,28.723,28.723,0,0,0,.343-5.285" transform="translate(-778.943 -324.415)" fill="#6e78f7"/>
      <path id="Path_16473" data-name="Path 16473" d="M840.156,303.423c-.457,1.25-4.088,4.033-4.088,4.033s-.914-4.477-.443-5.726a2.419,2.419,0,1,1,4.531,1.693Z" transform="translate(-819.285 -300.158)" fill="#6e78f7"/>
      <path id="Path_16474" data-name="Path 16474" d="M842.006,336.05c-1.072.8-5.626,1.163-5.626,1.163s1.668-4.25,2.742-5.048a2.42,2.42,0,1,1,2.884,3.885Z" transform="translate(-819.971 -324.453)" fill="#6e78f7"/>
      <path id="Path_16475" data-name="Path 16475" d="M822.5,386.239c-1.328.146-5.443-1.828-5.443-1.828s3.588-2.827,4.915-2.971a2.42,2.42,0,1,1,.528,4.81Z" transform="translate(-805.066 -362.855)" fill="#6e78f7"/>
      <path id="Path_16476" data-name="Path 16476" d="M797.726,422.064c-1.284.368-5.676-.889-5.676-.889s3.06-3.393,4.342-3.764a2.42,2.42,0,1,1,1.332,4.653Z" transform="translate(-785.771 -390.546)" fill="#6e78f7"/>
      <path id="Path_16477" data-name="Path 16477" d="M814.341,337.613c.571,1.209,4.417,3.674,4.417,3.674s.528-4.538-.043-5.745a2.42,2.42,0,1,0-4.374,2.07Z" transform="translate(-802.788 -326.388)" fill="#6e78f7"/>
      <path id="Path_16478" data-name="Path 16478" d="M785.571,377.711c.914.983,5.315,2.185,5.315,2.185s-.855-4.488-1.762-5.468a2.42,2.42,0,0,0-3.553,3.284Z" transform="translate(-780.308 -356.891)" fill="#6e78f7"/>
      <path id="Path_16479" data-name="Path 16479" d="M765,422.945c.729,1.12,4.867,3.051,4.867,3.051s-.082-4.57-.811-5.688A2.42,2.42,0,1,0,765,422.945Z" transform="translate(-764.572 -391.958)" fill="#6e78f7"/>
      <path id="Path_16480" data-name="Path 16480" d="M840.156,303.423c-.457,1.25-4.088,4.033-4.088,4.033s-.914-4.477-.443-5.726a2.419,2.419,0,1,1,4.531,1.693Z" transform="translate(-819.285 -300.158)" fill="#6e78f7"/>
      <path id="Path_16481" data-name="Path 16481" d="M842.006,336.05c-1.072.8-5.626,1.163-5.626,1.163s1.668-4.25,2.742-5.048a2.42,2.42,0,1,1,2.884,3.885Z" transform="translate(-819.971 -324.453)" fill="#6e78f7"/>
      <path id="Path_16482" data-name="Path 16482" d="M822.5,386.239c-1.328.146-5.443-1.828-5.443-1.828s3.588-2.827,4.915-2.971a2.42,2.42,0,1,1,.528,4.81Z" transform="translate(-805.066 -362.855)" fill="#6e78f7"/>
      <path id="Path_16483" data-name="Path 16483" d="M797.726,422.064c-1.284.368-5.676-.889-5.676-.889s3.06-3.393,4.342-3.764a2.42,2.42,0,1,1,1.332,4.653Z" transform="translate(-785.771 -390.546)" fill="#6e78f7"/>
      <path id="Path_16484" data-name="Path 16484" d="M814.341,337.613c.571,1.209,4.417,3.674,4.417,3.674s.528-4.538-.043-5.745a2.42,2.42,0,1,0-4.374,2.07Z" transform="translate(-802.788 -326.388)" fill="#6e78f7"/>
      <path id="Path_16485" data-name="Path 16485" d="M785.571,377.711c.914.983,5.315,2.185,5.315,2.185s-.855-4.488-1.762-5.468a2.42,2.42,0,0,0-3.553,3.284Z" transform="translate(-780.308 -356.891)" fill="#6e78f7"/>
      <path id="Path_16486" data-name="Path 16486" d="M765,422.945c.729,1.12,4.867,3.051,4.867,3.051s-.082-4.57-.811-5.688A2.42,2.42,0,1,0,765,422.945Z" transform="translate(-764.572 -391.958)" fill="#6e78f7"/>
    </g>
    <g id="Group_8999" data-name="Group 8999" transform="translate(78.981 226.217)" opacity="0.1">
      <path id="Path_16487" data-name="Path 16487" d="M174.033,451.277s-9.76-5.818-12.417-14.291a17.2,17.2,0,0,0-6.316-8.873,28.818,28.818,0,0,0-4.57-2.683" transform="translate(-144.879 -419.365)" fill="#6e78f7"/>
      <path id="Path_16488" data-name="Path 16488" d="M129.272,399.616c.914.98,1.766,5.468,1.766,5.468s-4.408-1.2-5.315-2.18a2.42,2.42,0,0,1,3.549-3.288Z" transform="translate(-125.123 -398.889)" fill="#6e78f7"/>
      <path id="Path_16489" data-name="Path 16489" d="M161.878,407.03c.229,1.316-1.49,5.548-1.49,5.548s-3.048-3.4-3.277-4.719a2.42,2.42,0,1,1,4.767-.829Z" transform="translate(-149.766 -403.577)" fill="#6e78f7"/>
      <path id="Path_16490" data-name="Path 16490" d="M199.413,443.844c-.457,1.252-4.088,4.038-4.088,4.038s-.914-4.476-.446-5.726a2.42,2.42,0,1,1,4.534,1.689Z" transform="translate(-178.836 -431.003)" fill="#6e78f7"/>
      <path id="Path_16491" data-name="Path 16491" d="M220.047,482.866c-.247,1.314-3.345,4.682-3.345,4.682s-1.657-4.257-1.408-5.569a2.419,2.419,0,0,1,4.753.9Z" transform="translate(-194.669 -461.472)" fill="#6e78f7"/>
      <path id="Path_16492" data-name="Path 16492" d="M148.093,437.848c1.334.032,5.267-2.285,5.267-2.285s-3.816-2.514-5.153-2.546a2.42,2.42,0,1,0-.114,4.838Z" transform="translate(-141.021 -425.218)" fill="#6e78f7"/>
      <path id="Path_16493" data-name="Path 16493" d="M170.964,481.7c1.284-.37,4.342-3.766,4.342-3.766s-4.392-1.255-5.676-.884a2.42,2.42,0,0,0,1.337,4.65Z" transform="translate(-158.149 -459.136)" fill="#6e78f7"/>
      <path id="Path_16494" data-name="Path 16494" d="M201.915,520.291c1.33-.146,4.915-2.971,4.915-2.971s-4.113-1.979-5.445-1.828a2.418,2.418,0,1,0,.53,4.8Z" transform="translate(-182.195 -488.841)" fill="#6e78f7"/>
      <path id="Path_16495" data-name="Path 16495" d="M129.272,399.616c.914.98,1.766,5.468,1.766,5.468s-4.408-1.2-5.315-2.18a2.42,2.42,0,0,1,3.549-3.288Z" transform="translate(-125.123 -398.889)" fill="#6e78f7"/>
      <path id="Path_16496" data-name="Path 16496" d="M161.878,407.03c.229,1.316-1.49,5.548-1.49,5.548s-3.048-3.4-3.277-4.719a2.42,2.42,0,1,1,4.767-.829Z" transform="translate(-149.766 -403.577)" fill="#6e78f7"/>
      <path id="Path_16497" data-name="Path 16497" d="M199.413,443.844c-.457,1.252-4.088,4.038-4.088,4.038s-.914-4.476-.446-5.726a2.42,2.42,0,1,1,4.534,1.689Z" transform="translate(-178.836 -431.003)" fill="#6e78f7"/>
      <path id="Path_16498" data-name="Path 16498" d="M220.047,482.866c-.247,1.314-3.345,4.682-3.345,4.682s-1.657-4.257-1.408-5.569a2.419,2.419,0,0,1,4.753.9Z" transform="translate(-194.669 -461.472)" fill="#6e78f7"/>
      <path id="Path_16499" data-name="Path 16499" d="M148.093,437.848c1.334.032,5.267-2.285,5.267-2.285s-3.816-2.514-5.153-2.546a2.42,2.42,0,1,0-.114,4.838Z" transform="translate(-141.021 -425.218)" fill="#6e78f7"/>
      <path id="Path_16500" data-name="Path 16500" d="M170.964,481.7c1.284-.37,4.342-3.766,4.342-3.766s-4.392-1.255-5.676-.884a2.42,2.42,0,0,0,1.337,4.65Z" transform="translate(-158.149 -459.136)" fill="#6e78f7"/>
      <path id="Path_16501" data-name="Path 16501" d="M201.915,520.291c1.33-.146,4.915-2.971,4.915-2.971s-4.113-1.979-5.445-1.828a2.418,2.418,0,1,0,.53,4.8Z" transform="translate(-182.195 -488.841)" fill="#6e78f7"/>
    </g>
    <path id="Path_16502" data-name="Path 16502" d="M776.25,808.465c6.561,2.854,14.565,1.117,22.01,1.318a6.025,6.025,0,0,1,2.914.606,7.461,7.461,0,0,1,1.78,1.977c2.086,2.546,6.362,3.364,10.1,2.932s7.161-1.862,10.687-2.95c6.094-1.883,13.059-2.742,19.071-.686a3.937,3.937,0,0,0,1.723.329c1.319-.167,1.712-1.533,2.633-2.312,1.664-1.41,5.278-1.026,6.01-2.884.427-1.088-.558-2.2-1.632-2.945-4.113-2.843-9.986-3.311-15.363-2.872s-10.662,1.648-16.066,1.652c-6.734,0-13.24-1.855-19.908-2.616-4.618-.526-9.659-.457-13.989,1.09C781.524,802.775,780.491,806.543,776.25,808.465Z" transform="translate(-548.48 -481.907)" fill="#6e78f7" opacity="0.1"/>
    <path id="Path_16503" data-name="Path 16503" d="M232.93,766.318c11.2,3.224,24.862,1.261,37.567,1.49a14.851,14.851,0,0,1,4.977.685,11.062,11.062,0,0,1,3.039,2.235c3.56,2.877,10.856,3.8,17.232,3.313s12.225-2.1,18.244-3.334c10.4-2.127,22.293-3.1,32.553-.777a9.73,9.73,0,0,0,2.943.372c2.249-.19,2.918-1.732,4.492-2.614,2.84-1.6,9.008-1.159,10.255-3.256.731-1.229-.951-2.491-2.783-3.329-7.011-3.211-17.042-3.741-26.221-3.245s-18.2,1.86-27.421,1.867c-11.494,0-22.6-2.1-33.981-2.957-7.884-.594-16.487-.521-23.879,1.234C241.933,759.9,240.167,764.154,232.93,766.318Z" transform="translate(-129.314 -448.514)" fill="#6e78f7" opacity="0.1"/>
    <path id="Path_16504" data-name="Path 16504" d="M101.77,814.312c3.2,1.924,7.084.754,10.708.889a2.276,2.276,0,0,1,1.419.407,4.817,4.817,0,0,1,.866,1.334,4.724,4.724,0,0,0,4.911,1.977,23.052,23.052,0,0,0,5.2-1.99c2.971-1.268,6.355-1.846,9.277-.457a1.458,1.458,0,0,0,.841.229c.64-.114.832-1.035,1.28-1.561.809-.951,2.568-.686,2.923-1.945a2.139,2.139,0,0,0-.793-1.986c-2-1.917-4.858-2.232-7.475-1.938s-5.187,1.095-7.817,1.095c-3.275,0-6.439-1.25-9.684-1.764a11.345,11.345,0,0,0-6.807.736C104.336,810.48,103.833,813.021,101.77,814.312Z" transform="translate(-28.125 -488.607)" fill="#6e78f7" opacity="0.1"/>
    <circle id="Ellipse_141" data-name="Ellipse 141" cx="1.497" cy="1.497" r="1.497" transform="translate(167.829 158.426)" fill="#f6f7f9"/>
    <path id="Path_16545" data-name="Path 16545" d="M184.6,768.36s1.255,1.641-.58,4.113-3.348,4.57-2.742,6.115c0,0,2.767-4.6,5.027-4.666S187.084,771.127,184.6,768.36Z" transform="translate(-89.363 -457.715)" fill="#6e78f7"/>
    <path id="Path_16546" data-name="Path 16546" d="M184.862,768.36a1.971,1.971,0,0,1,.256.514c2.2,2.582,3.37,4.993,1.257,5.055-1.967.055-4.342,3.576-4.895,4.465a2.068,2.068,0,0,0,.066.2s2.767-4.6,5.027-4.666S187.341,771.127,184.862,768.36Z" transform="translate(-89.621 -457.715)" opacity="0.1"/>
    <path id="Path_16547" data-name="Path 16547" d="M205.51,776.265c0,.578-.064,1.047-.144,1.047s-.146-.468-.146-1.047.082-.3.162-.3S205.51,775.691,205.51,776.265Z" transform="translate(-107.936 -463.529)" fill="#ffd037"/>
    <path id="Path_16548" data-name="Path 16548" d="M206.65,779.2c-.507.276-.951.443-.989.375s.343-.352.85-.628.306-.075.345,0S207.158,778.92,206.65,779.2Z" transform="translate(-108.274 -465.771)" fill="#ffd037"/>
    <path id="Path_16549" data-name="Path 16549" d="M157.743,768.36s-1.255,1.641.58,4.113,3.348,4.57,2.742,6.115c0,0-2.767-4.6-5.027-4.666S155.266,771.127,157.743,768.36Z" transform="translate(-69.133 -457.715)" fill="#6e78f7"/>
    <path id="Path_16550" data-name="Path 16550" d="M157.726,768.36a2.055,2.055,0,0,0-.256.514c-2.2,2.582-3.371,4.993-1.257,5.055,1.97.055,4.342,3.576,4.895,4.465a1.6,1.6,0,0,1-.066.2s-2.767-4.6-5.027-4.666S155.249,771.127,157.726,768.36Z" transform="translate(-69.116 -457.715)" opacity="0.1"/>
    <path id="Path_16551" data-name="Path 16551" d="M157.05,776.265c0,.578.064,1.047.144,1.047s.146-.468.146-1.047-.082-.3-.162-.3S157.05,775.691,157.05,776.265Z" transform="translate(-70.773 -463.529)" fill="#ffd037"/>
    <path id="Path_16552" data-name="Path 16552" d="M152.506,779.2c.507.276.948.443.987.375s-.343-.352-.85-.628-.306-.075-.345,0S152,778.92,152.506,779.2Z" transform="translate(-67.029 -465.771)" fill="#ffd037"/>
    <path id="Path_16553" data-name="Path 16553" d="M158.8,805.808s3.51-.107,4.57-.862,5.4-1.652,5.66-.443,5.274,6.008,1.312,6.04-9.207-.617-10.262-1.261S158.8,805.808,158.8,805.808Z" transform="translate(-72.123 -485.143)" fill="#a8a8a8"/>
    <path id="Path_16554" data-name="Path 16554" d="M170.41,816.509c-3.962.032-9.207-.617-10.262-1.261-.8-.489-1.124-2.246-1.232-3.057H158.8s.229,2.831,1.277,3.473,6.3,1.293,10.262,1.261c1.143,0,1.54-.416,1.517-1.019C171.7,816.273,171.263,816.5,170.41,816.509Z" transform="translate(-72.123 -491.53)" opacity="0.2"/>
    <g id="Group_9024" data-name="Group 9024" transform="translate(5654 814.247)">
      <rect id="Rectangle_2363" data-name="Rectangle 2363" width="0.542" height="5.011" transform="translate(-5395.106 -562.049)" fill="#f2f2f2"/>
      <rect id="Rectangle_2362" data-name="Rectangle 2362" width="0.542" height="5.011" transform="translate(-5378.583 -562.049)" fill="#f2f2f2"/>
      <rect id="Rectangle_2364" data-name="Rectangle 2364" width="0.542" height="5.011" transform="translate(-5389.418 -591.439)" fill="#f2f2f2"/>
      <path id="Path_16555" data-name="Path 16555" d="M926.577,504.2v6.711a161.364,161.364,0,0,1,1.616,20.257c0,9.445-2.61,31.442-2.61,31.442s-5.22,1.864-5.592-.994-1.367-18.02-1.367-20.257-4.35-19.263-4.35-19.263l-2.734,18.89s.87,22.37,0,22.991-5.1,1.74-5.592.621-3.107-25.1-3.107-25.1-2.113-31.318-.87-33.182,2.361-3.355,2.361-3.355S922.1,498.611,926.577,504.2Z" transform="translate(-6298.491 -1064.633)" fill="#2f2e41"/>
      <path id="Path_16556" data-name="Path 16556" d="M973.359,724.767l.312,2.026a19.951,19.951,0,0,1,.2,2.085c.048,1.018.218,2.586.8,2.834.87.373,6.516,5.135,2.539,5.383s-5.966.678-7.144-.237c-1.393-1.081.185-.592-.437-.592s-1.367,0-1.616-.994a6.3,6.3,0,0,1,.373-2.734v-7.772Z" transform="translate(-6346.889 -1227.532)" fill="#2f2e41"/>
      <path id="Path_16557" data-name="Path 16557" d="M905.248,724.408l-.312,2.026a19.918,19.918,0,0,0-.2,2.085c-.049,1.018-.218,2.586-.8,2.834-.87.373-6.516,5.135-2.539,5.383s5.966.678,7.144-.237c1.393-1.081-.185-.592.437-.592s1.367,0,1.616-.994a6.3,6.3,0,0,0-.373-2.734v-7.772Z" transform="translate(-6297.334 -1227.27)" fill="#2f2e41"/>
      <path id="Path_16566" data-name="Path 16566" d="M913.517,312.77s2.113,5.22,3.6,6.09.746,4.847.746,4.847l-3.728,5.22h-2.983l-3.6-6.214s-.249-4.1-.994-5.1S913.517,312.77,913.517,312.77Z" transform="translate(-6302.084 -927.136)" fill="#ffb9b9"/>
      <path id="Path_16567" data-name="Path 16567" d="M913.517,312.77s2.113,5.22,3.6,6.09.746,4.847.746,4.847l-3.728,5.22h-2.983l-3.6-6.214s-.249-4.1-.994-5.1S913.517,312.77,913.517,312.77Z" transform="translate(-6302.084 -927.136)" opacity="0.1"/>
      <path id="Path_16559" data-name="Path 16559" d="M913.415,352.226l5.592,1.243,4.1,41.26s-2.237.373-4.474,3.355-4.971,2.486-6.338,1.74-6.835-2.858-6.96-3.728.249-16.156.249-16.156l-3.48-23.861,1.74-2.61h3.107l2.486,2.113Z" transform="translate(-6298.876 -955.904)" fill="#6e78f7"/>
      <circle id="Ellipse_147" data-name="Ellipse 147" cx="6.462" cy="6.462" r="6.462" transform="translate(-5400.374 -620.828)" fill="#ffb9b9"/>
      <path id="Path_16560" data-name="Path 16560" d="M941.576,344.427s12.179,1.243,13.3,3.853-.746,14.168-.746,14.168,4.474,10.066,4.35,12.428,4.225,18.517-.5,16.653-3.231-6.711-5.593-3.231-3.355,2.983-3.355,2.983-2.361,3.853-3.107,3.48-1.243-3.231.373-4.6,1.367-3.728-1.74-8.2-6.338-27.962-4.474-31.566S941.576,344.427,941.576,344.427Z" transform="translate(-6326.167 -950.217)" fill="#575a89"/>
      <path id="Path_16561" data-name="Path 16561" d="M843.9,386.84l-2.113,1.988-2.61-1.74,1.119-2.61Z" transform="translate(-6215.816 -944.908)" fill="#ffb9b9"/>
      <path id="Path_16558" data-name="Path 16558" d="M888.612,352.226s-9.445,3.48-9.445,7.208,5.717,20.009,5.717,20.009a44.389,44.389,0,0,1-.249,5.22c-.249.994-4.159,9.666-.746,10.439,2.13.483,3.881,1.752,4.039,3.542.188,2.126-1.44,4.81-1.3,5.282.249.87,1.74,2.113,1.616,1.491s.994-9.569,2.734-13.546-.746-30.7-1.243-34.176A38.465,38.465,0,0,0,888.612,352.226Z" transform="translate(-6282.15 -955.904)" fill="#575a89"/>
      <path id="Path_16564" data-name="Path 16564" d="M758.432,385.922l2.237,5.344,1.678-3.418-1.926-4.288Z" transform="translate(-6156.942 -944.239)" fill="#ffb9b9"/>
      <path id="Path_16568" data-name="Path 16568" d="M934.723,327.551a11.578,11.578,0,0,0,3.283.843c1.243,0,6.338,2.61,4.6,4.225s-4.35,1.988-5.593,4.35-1.864,2.734-1.864,2.734l-2.213-2.972s3.082-3.49,2.958-4.609A45.812,45.812,0,0,0,934.723,327.551Z" transform="translate(-6321.355 -937.913)" fill="#6e78f7"/>
      <path id="Path_16569" data-name="Path 16569" d="M898.672,338.582s-1.529.589-1.9,1.583-2.734,2.858-1.74,3.355,5.344,2.486,6.214,2.858,2.491-1.058,2.491-1.058-2.18-1.241-2.18-2.111S898.672,338.582,898.672,338.582Z" transform="translate(-6293.541 -945.956)" fill="#6e78f7"/>
      <path id="Path_16565" data-name="Path 16565" d="M873.824,372.413l-2.983.746s-4.1,18.393-2.858,22.991,7.084,18.393,7.084,18.393l3.728-4.35s-1.626-9.891-2.553-10.538-.305-2.014-.305-2.387.373-.124-.5-.994,3.231-5.717,2.113-7.084S873.824,372.413,873.824,372.413Z" transform="translate(-6273.826 -970.623)" fill="#575a89"/>
      <path id="Path_16562" data-name="Path 16562" d="M979.443,366.8l-1.8-6.773s4.847,3.48,5.841,8.575,4.847,15.286,2.361,19.76-6.835,17.4-8.327,17.15-5.1-3.355-5.22-3.853,6.462-11.931,5.468-12.8a2.8,2.8,0,0,1,0-3.6c.746-.5,1.616-2.858.994-2.734s-2.486-1.118-2.113-2.486-1.864-10.564-1.864-10.564Z" transform="translate(-6350.053 -961.591)" opacity="0.1"/>
      <path id="Path_16563" data-name="Path 16563" d="M980.03,356.814l1.74.5s4.847,3.48,5.841,8.575,4.847,15.286,2.361,19.76-6.835,17.4-8.327,17.15-5.1-3.355-5.22-3.853,6.462-11.931,5.468-12.8a2.8,2.8,0,0,1,0-3.6c.746-.5,1.616-2.858.994-2.734s-2.486-1.118-2.113-2.486-1.864-10.564-1.864-10.564Z" transform="translate(-6353.063 -959.249)" fill="#575a89"/>
      <path id="Path_16570" data-name="Path 16570" d="M892.22,280.707l1.212-.441a8.619,8.619,0,0,0-6.06-2.314l.992-.992a4.5,4.5,0,0,0-4.628,1.432,19.686,19.686,0,0,0-3.334,4.257h-1.3l.542,1.084-1.9,1.084,1.946-.195a5.467,5.467,0,0,0,.184,2.806l.441,1.212a34.952,34.952,0,0,0,1.763-3.967v1.1s1.212-.992,1.212-1.653l.661.771.331-1.212,4.077,1.212-.661-.992,2.534.331-.992-1.212s2.865,1.432,2.975,2.645a6.338,6.338,0,0,0,1.543,2.755l.661-1.1S895.415,282.36,892.22,280.707Z" transform="translate(-6281.117 -900.906)" fill="#2f2e41"/>
      <ellipse id="Ellipse_148" data-name="Ellipse 148" cx="0.948" cy="1.49" rx="0.948" ry="1.49" transform="translate(-5390.095 -616.631)" fill="#ffb9b9"/>
    </g>
    <g id="Group_9025" data-name="Group 9025" transform="translate(5558 1222.506)">
      <path id="Path_16571" data-name="Path 16571" d="M377.561,125.4h-.909V100.515a14.4,14.4,0,0,0-14.4-14.4H309.52a14.4,14.4,0,0,0-14.4,14.4V237.05a14.4,14.4,0,0,0,14.4,14.4h52.727a14.4,14.4,0,0,0,14.4-14.4V143.118h.908Z" transform="translate(-5725.061 -1158.322)" fill="#3f3d56"/>
      <path id="Path_16572" data-name="Path 16572" d="M387.109,113.362V249.7a10.757,10.757,0,0,1-9.277,10.655,10.617,10.617,0,0,1-1.48.1H323.369a10.629,10.629,0,0,1-1.481-.1,10.756,10.756,0,0,1-9.274-10.655V113.362A10.758,10.758,0,0,1,323.371,102.6H329.8a5.109,5.109,0,0,0,4.732,7.041h30.207a5.107,5.107,0,0,0,4.73-7.041h6.884a10.758,10.758,0,0,1,10.757,10.757Z" transform="translate(-5738.583 -1171.068)" fill="#f6f7f9"/>
    </g>
    <g id="Group_9027" data-name="Group 9027" transform="translate(5539.306 1079.979)">
      <rect id="Rectangle_2324" data-name="Rectangle 2324" width="74.417" height="132.185" transform="translate(-5407.267 -913.19)" fill="#f6f7f9"/>
      <rect id="Rectangle_2326" data-name="Rectangle 2326" width="66.838" height="0.343" transform="translate(-5403.977 -874.332)" fill="#dce0ed"/>
      <rect id="Rectangle_2327" data-name="Rectangle 2327" width="66.838" height="0.343" transform="translate(-5403.977 -866.373)" fill="#dce0ed"/>
      <rect id="Rectangle_2328" data-name="Rectangle 2328" width="66.838" height="0.343" transform="translate(-5403.977 -858.412)" fill="#dce0ed"/>
      <g id="Group_9001" data-name="Group 9001" transform="translate(-5404.102 -869.477)" opacity="0.2">
        <path id="Path_16506" data-name="Path 16506" d="M302.874,330.505H235.91V314.852l6.141,4.643,6.356,1.323,5.577-2.58,6.728-8,3.384-3,2.474-.731,2.367.194,3.892,2.95,5.292,5.171,4.153.818,3.292-1.741,6.98-8.768,3.563-1.949,3.728.884,3.036,2.69Z" transform="translate(-235.91 -303.18)" fill="#6e78f7"/>
      </g>
      <path id="Path_16507" data-name="Path 16507" d="M307.1,352.268c-6.035,0-11.612-5.658-11.682-5.731l.167-.379c.086.089,8.669,8.793,15.963,4.433,2.659-1.6,4.552-4.063,6.384-6.455,1.912-2.5,3.718-4.856,6.18-5.88,2.823-1.172,5.909-.112,8.254,2.843,2,2.525,6,6.579,10.214,5.368,2.15-.619,3.961-3.025,5.879-5.573,3.677-4.886,7.481-9.938,14.061-2.69l-.174.37c-6.389-7.038-10.1-2.1-13.691,2.664-1.95,2.589-3.791,5.027-6.019,5.676-4.338,1.248-8.413-2.888-10.458-5.464-2.27-2.859-5.254-3.885-7.987-2.754-2.4,1-4.174,3.323-6.065,5.786-1.85,2.418-3.762,4.915-6.468,6.533A8.743,8.743,0,0,1,307.1,352.268Z" transform="translate(-5699.524 -1204.11)" fill="#6e78f7"/>
      <path id="Path_16686" data-name="Path 16686" d="M2.543,0A2.543,2.543,0,1,1,0,2.543,2.543,2.543,0,0,1,2.543,0Z" transform="translate(-5374.204 -868.718)" fill="#6e78f7"/>
      <g id="Group_9002" data-name="Group 9002" transform="translate(-5378.74 -899.829)" opacity="0.2">
        <path id="Path_16508" data-name="Path 16508" d="M547.144,202H515.061a.521.521,0,0,0-.521.521v21.7a.521.521,0,0,0,.9.356l5.56-5.93a.519.519,0,0,1,.379-.165h25.764a.521.521,0,0,0,.521-.521V202.516A.521.521,0,0,0,547.144,202Z" transform="translate(-514.54 -202)" fill="#6e78f7"/>
      </g>
      <rect id="Rectangle_2331" data-name="Rectangle 2331" width="18.269" height="2.285" transform="translate(-5370.21 -895.812)" fill="#f6f7f9"/>
      <rect id="Rectangle_2332" data-name="Rectangle 2332" width="5.016" height="2.285" transform="translate(-5367.236 -890.748)" fill="#f6f7f9"/>
      <g id="Group_9003" data-name="Group 9003" transform="translate(-5394.778 -823.799)" opacity="0.2">
        <rect id="Rectangle_2333" data-name="Rectangle 2333" width="5.016" height="2.285" fill="#6e78f7"/>
      </g>
      <g id="Group_9004" data-name="Group 9004" transform="translate(-5394.778 -819.382)" opacity="0.2">
        <rect id="Rectangle_2334" data-name="Rectangle 2334" width="5.016" height="2.285" fill="#6e78f7"/>
      </g>
      <g id="Group_9005" data-name="Group 9005" transform="translate(-5394.778 -814.965)" opacity="0.2">
        <rect id="Rectangle_2335" data-name="Rectangle 2335" width="5.016" height="2.285" fill="#6e78f7"/>
      </g>
      <g id="Group_9006" data-name="Group 9006" transform="translate(-5394.778 -810.546)" opacity="0.2">
        <rect id="Rectangle_2336" data-name="Rectangle 2336" width="5.016" height="2.285" fill="#6e78f7"/>
      </g>
      <g id="Group_9007" data-name="Group 9007" transform="translate(-5394.778 -806.129)" opacity="0.2">
        <rect id="Rectangle_2337" data-name="Rectangle 2337" width="5.016" height="2.285" fill="#6e78f7"/>
      </g>
      <g id="Group_9008" data-name="Group 9008" transform="translate(-5394.778 -801.712)" opacity="0.2">
        <rect id="Rectangle_2338" data-name="Rectangle 2338" width="5.016" height="2.285" fill="#6e78f7"/>
      </g>
      <g id="Group_9009" data-name="Group 9009" transform="translate(-5394.778 -797.292)" opacity="0.2">
        <rect id="Rectangle_2339" data-name="Rectangle 2339" width="5.016" height="2.285" fill="#6e78f7"/>
      </g>
      <g id="Group_9012" data-name="Group 9012" transform="translate(-5387.313 -792.59)" opacity="0.2">
        <rect id="Rectangle_2342" data-name="Rectangle 2342" width="5.016" height="2.285" fill="#6e78f7"/>
      </g>
      <g id="Group_9013" data-name="Group 9013" transform="translate(-5381.482 -792.59)" opacity="0.2">
        <rect id="Rectangle_2343" data-name="Rectangle 2343" width="5.016" height="2.285" fill="#6e78f7"/>
      </g>
      <g id="Group_9014" data-name="Group 9014" transform="translate(-5375.653 -792.59)" opacity="0.2">
        <rect id="Rectangle_2344" data-name="Rectangle 2344" width="5.016" height="2.285" fill="#6e78f7"/>
      </g>
      <g id="Group_9015" data-name="Group 9015" transform="translate(-5369.821 -792.59)" opacity="0.2">
        <rect id="Rectangle_2345" data-name="Rectangle 2345" width="5.016" height="2.285" fill="#6e78f7"/>
      </g>
      <g id="Group_9016" data-name="Group 9016" transform="translate(-5363.989 -792.59)" opacity="0.2">
        <rect id="Rectangle_2346" data-name="Rectangle 2346" width="5.016" height="2.285" fill="#6e78f7"/>
      </g>
      <g id="Group_9017" data-name="Group 9017" transform="translate(-5358.16 -792.59)" opacity="0.2">
        <rect id="Rectangle_2347" data-name="Rectangle 2347" width="5.016" height="2.285" fill="#6e78f7"/>
      </g>
      <g id="Group_9018" data-name="Group 9018" transform="translate(-5352.328 -792.59)" opacity="0.2">
        <rect id="Rectangle_2348" data-name="Rectangle 2348" width="5.016" height="2.285" fill="#6e78f7"/>
      </g>
      <rect id="Rectangle_2350" data-name="Rectangle 2350" width="7.616" height="2.285" transform="translate(-5360.82 -890.748)" fill="#f6f7f9"/>
      <rect id="Rectangle_2351" data-name="Rectangle 2351" width="5.016" height="14.321" transform="translate(-5387.314 -809.196)" fill="#6e78f7"/>
      <rect id="Rectangle_2353" data-name="Rectangle 2353" width="5.016" height="26.507" transform="translate(-5381.482 -821.382)" fill="#6e78f7"/>
      <rect id="Rectangle_2354" data-name="Rectangle 2354" width="5.016" height="23.623" transform="translate(-5375.653 -818.501)" fill="#6e78f7"/>
      <rect id="Rectangle_2355" data-name="Rectangle 2355" width="5.016" height="28.639" transform="translate(-5369.821 -823.514)" fill="#6e78f7"/>
      <g id="Group_9020" data-name="Group 9020" transform="translate(-5363.989 -812.546)" opacity="0.2">
        <rect id="Rectangle_2356" data-name="Rectangle 2356" width="5.016" height="17.671" fill="#6e78f7"/>
      </g>
      <g id="Group_9021" data-name="Group 9021" transform="translate(-5358.16 -812.546)" opacity="0.2">
        <rect id="Rectangle_2357" data-name="Rectangle 2357" width="5.016" height="17.671" fill="#6e78f7"/>
      </g>
      <g id="Group_9022" data-name="Group 9022" transform="translate(-5352.328 -812.546)" opacity="0.2">
        <rect id="Rectangle_2358" data-name="Rectangle 2358" width="5.016" height="17.671" fill="#6e78f7"/>
      </g>
      <rect id="Rectangle_2329" data-name="Rectangle 2329" width="66.838" height="0.343" transform="translate(-5404.102 -850.409)" fill="#dce0ed"/>
      <rect id="Rectangle_2330" data-name="Rectangle 2330" width="66.838" height="0.343" transform="translate(-5404.102 -842.45)" fill="#dce0ed"/>
    </g>
  </g>
</svg>
