<svg xmlns="http://www.w3.org/2000/svg" width="218.863" height="164.89" viewBox="0 0 218.863 164.89">
  <g id="undraw_Share_opinion_re_4qk7" transform="translate(0)">
    <path id="Path_16354" data-name="Path 16354" d="M291.078,811.952H117.706c-.389,0-.7-.127-.7-.284s.316-.284.7-.284H291.078c.389,0,.7.127.7.284S291.467,811.952,291.078,811.952Z" transform="translate(-117.001 -647.062)" fill="#ccc"/>
    <path id="Path_16336" data-name="Path 16336" d="M563.326,125.3h-.906V100.476a14.365,14.365,0,0,0-14.365-14.365H495.472a14.365,14.365,0,0,0-14.365,14.365V236.636A14.365,14.365,0,0,0,495.472,251h52.583a14.365,14.365,0,0,0,14.365-14.365V142.962h.906Z" transform="translate(-398.613 -86.111)" fill="#3f3d56"/>
    <path id="Path_16337" data-name="Path 16337" d="M562.166,102.606H555.3a5.1,5.1,0,0,1-4.719,7.021H520.459a5.1,5.1,0,0,1-4.719-7.021h-6.411A10.727,10.727,0,0,0,498.6,113.333V249.294a10.727,10.727,0,0,0,10.727,10.727h52.836a10.727,10.727,0,0,0,10.727-10.727h0V113.333a10.727,10.727,0,0,0-10.727-10.727Z" transform="translate(-412.144 -98.869)" fill="#fff"/>
    <ellipse id="Ellipse_110" data-name="Ellipse 110" cx="9.516" cy="0.906" rx="9.516" ry="0.906" transform="translate(125.033 60.88)" fill="#e6e6e6"/>
    <path id="Path_16338" data-name="Path 16338" d="M666.948,99.868h-87.6v28.758h3.318v7.522l7.521-7.522h76.763Z" transform="translate(-448.086 -77.241)" fill="#6e78f7"/>
    <rect id="Rectangle_2250" data-name="Rectangle 2250" width="39.835" height="1.209" transform="translate(141.011 32.365)" fill="#fff"/>
    <rect id="Rectangle_2251" data-name="Rectangle 2251" width="69.429" height="1.209" transform="translate(141.011 36.547)" fill="#fff"/>
    <rect id="Rectangle_2252" data-name="Rectangle 2252" width="69.361" height="1.209" transform="translate(141.011 40.729)" fill="#fff"/>
    <path id="Path_16339" data-name="Path 16339" d="M628.507,482.708H558.58v22.956h2.649v6l6-6h61.275Z" transform="translate(-432.024 -373.342)" fill="#6e78f7"/>
    <rect id="Rectangle_2253" data-name="Rectangle 2253" width="31.798" height="0.965" transform="translate(134.338 117.139)" fill="#fff"/>
    <rect id="Rectangle_2254" data-name="Rectangle 2254" width="55.421" height="0.965" transform="translate(134.338 120.477)" fill="#fff"/>
    <rect id="Rectangle_2255" data-name="Rectangle 2255" width="55.367" height="0.965" transform="translate(134.338 123.816)" fill="#fff"/>
    <ellipse id="Ellipse_111" data-name="Ellipse 111" cx="7.596" cy="0.723" rx="7.596" ry="0.723" transform="translate(121.584 139.901)" fill="#e6e6e6"/>
    <ellipse id="Ellipse_112" data-name="Ellipse 112" cx="9.516" cy="0.906" rx="9.516" ry="0.906" transform="translate(98.751 94.412)" fill="#e6e6e6"/>
    <path id="Path_16340" data-name="Path 16340" d="M220.435,298.894H282.04v20.224h-2.334v5.289l-5.289-5.289H220.435Z" transform="translate(-170.492 -231.175)" fill="#6e78f7"/>
    <rect id="Rectangle_2256" data-name="Rectangle 2256" width="28.013" height="0.85" transform="translate(56.333 74.412)" fill="#fff"/>
    <rect id="Rectangle_2257" data-name="Rectangle 2257" width="48.825" height="0.85" transform="translate(56.333 77.353)" fill="#fff"/>
    <rect id="Rectangle_2258" data-name="Rectangle 2258" width="48.777" height="0.85" transform="translate(56.333 80.294)" fill="#fff"/>
    <path id="Path_16341" data-name="Path 16341" d="M203.961,536.775a2.218,2.218,0,0,0,3.836-2.228,2.4,2.4,0,0,0-.209-.3l1.866-13.3.056-.4.379-2.713.056-.391-.206.01-3.615.165-.969.044-.121,2.475-.687,13.917A2.215,2.215,0,0,0,203.961,536.775Z" transform="translate(-184.026 -419.724)" fill="#a0616a"/>
    <path id="Path_16342" data-name="Path 16342" d="M210.956,483.493l-4.59-.421a.906.906,0,0,1-.817-.981l.851-9.545a3.48,3.48,0,1,1,6.909.816l-1.376,9.362a.9.9,0,0,1-.894.773C211.012,483.5,210.984,483.5,210.956,483.493Z" transform="translate(-185.484 -382.54)" fill="#ccc"/>
    <path id="Path_16343" data-name="Path 16343" d="M212.827,469.49a6.393,6.393,0,0,1,2.351-7.357c1.731-1.184,4.1-1.609,6.65,1.427a31.754,31.754,0,0,1,6.437,12.753l-10.445,1.7A33.51,33.51,0,0,1,212.827,469.49Z" transform="translate(-190.833 -376.249)" fill="#ccc"/>
    <path id="Path_16344" data-name="Path 16344" d="M171.633,674.251h2.978l1.417-11.487h-4.4Z" transform="translate(-132.747 -512.604)" fill="#a0616a"/>
    <path id="Path_16345" data-name="Path 16345" d="M0,0H9.36V3.616H2.888A2.888,2.888,0,0,1,0,.728V0Z" transform="translate(47.608 164.412) rotate(179.997)" fill="#6e78f7"/>
    <path id="Path_16346" data-name="Path 16346" d="M63.569,664.769l2.828.935,4.95-10.462-4.173-1.379Z" transform="translate(-49.166 -505.72)" fill="#a0616a"/>
    <path id="Path_16347" data-name="Path 16347" d="M0,0H9.36V3.616H2.888A2.888,2.888,0,0,1,0,.728Z" transform="translate(21.816 164.412) rotate(-161.71)" fill="#6e78f7"/>
    <circle id="Ellipse_113" data-name="Ellipse 113" cx="5.966" cy="5.966" r="5.966" transform="translate(20.453 74.532) rotate(-28.663)" fill="#a0616a"/>
    <path id="Path_16348" data-name="Path 16348" d="M189.542,583.779l-2.766-18.254a.85.85,0,0,0-1.667-.073l-4.212,17.4a1.1,1.1,0,0,1-1.236.822L168.044,581.8a1.093,1.093,0,0,1-.873-1.4l15.148-49.942a.851.851,0,0,0,.015-.438l-.5-2.186a1.089,1.089,0,0,1,.565-1.218c2.063-1.053,7.286-3.241,11.23-.844a1.106,1.106,0,0,1,.505.711l11.834,55.619a1.093,1.093,0,0,1-.972,1.316L190.72,584.7q-.049,0-.1,0A1.1,1.1,0,0,1,189.542,583.779Z" transform="translate(-155.768 -425.33)" fill="#2f2e41"/>
    <path id="Path_16349" data-name="Path 16349" d="M213.828,395.877a4.514,4.514,0,0,0,1.179-1.025,1.531,1.531,0,0,0,.236-1.481,1.554,1.554,0,0,0-1.891-.649,6.7,6.7,0,0,0-2.856,2.848,1.358,1.358,0,0,0,2.183,1.571,4.486,4.486,0,0,0,1.1-1.523Z" transform="translate(-189.234 -323.186)" fill="#6e78f7"/>
    <path id="Path_16350" data-name="Path 16350" d="M183.541,390.453c-.033-1.681-1.949-2.886-3.6-2.589a5.122,5.122,0,0,0-3.564,3.265c-1.345,3.288-.335,7.039.961,10.347s2.9,6.665,2.711,10.213a10.67,10.67,0,0,1-6.2,8.989c1.868.847,4.1-.028,5.669-1.348a11.33,11.33,0,0,0,3.2-12.4,45.238,45.238,0,0,0-3.334-5.844c-1.109-1.953-1.922-4.255-1.35-6.427s3.008-3.931,5.091-3.09Z" transform="translate(-160.968 -319.462)" fill="#2f2e41"/>
    <path id="Path_16351" data-name="Path 16351" d="M220.21,405.289c-.52-.879-1.045-2.033-.094-2.8a1.959,1.959,0,0,1,1.47-.389,7.01,7.01,0,0,0,3.276-.207,3.072,3.072,0,0,0,1.782-1.6,3.161,3.161,0,0,0-1.255-3.613,4.226,4.226,0,0,0-4.678-.083,4.819,4.819,0,0,0-4.527.526,7.2,7.2,0,0,0-2.709,3.8,7.338,7.338,0,0,0-.224,4.036,6,6,0,0,0,3.721,4.1,2.16,2.16,0,0,0,2.133-.316,4.013,4.013,0,0,0,1.08-1.582A2.543,2.543,0,0,0,220.21,405.289Z" transform="translate(-191.303 -325.735)" fill="#2f2e41"/>
    <path id="Path_16352" data-name="Path 16352" d="M269,454.017a2.566,2.566,0,0,0-.058.4l-10.435,6.02-2.536-1.46-2.7,3.54,4.239,3.021a1.943,1.943,0,0,0,2.331-.057l10.76-8.489a2.55,2.55,0,1,0-1.6-2.974Z" transform="translate(-222.394 -369.14)" fill="#a0616a"/>
    <path id="Path_16353" data-name="Path 16353" d="M240.659,473.467l-3.373,4.371a1.093,1.093,0,0,1-1.653.091l-3.818-3.965a3.036,3.036,0,0,1,3.723-4.8l4.789,2.678a1.093,1.093,0,0,1,.332,1.622Z" transform="translate(-204.894 -381.887)" fill="#ccc"/>
  </g>
</svg>
