<svg xmlns="http://www.w3.org/2000/svg" xmlns:xlink="http://www.w3.org/1999/xlink" width="247.018" height="192.675" viewBox="0 0 247.018 192.675">
  <defs>
    <linearGradient id="linear-gradient" x1="0.5" y1="1" x2="0.5" gradientUnits="objectBoundingBox">
      <stop offset="0" stop-color="gray" stop-opacity="0.251"/>
      <stop offset="0.54" stop-color="gray" stop-opacity="0.122"/>
      <stop offset="1" stop-color="gray" stop-opacity="0.102"/>
    </linearGradient>
  </defs>
  <g id="Group_9439" data-name="Group 9439" transform="translate(-64.285 -140.457)">
    <path id="Path_16778" data-name="Path 16778" d="M97.875,38.088c-13.174,8.247-10.9,18.976-10.013,21.5,6.455,11.256,1.839,27.018-4.145,38.532C79.11,106.985,71.3,113.73,65.681,121.989s-8.816,19.7-3.286,28.024c3.786,5.7,10.813,8.469,17.62,9.14s13.653-.386,20.49-.658c13.3-.511,27.659,14.937,39.858,20.271,16.793,7.363,30.153,7.015,47.835,11.875a14.788,14.788,0,0,0,6.512.658c3.85-.7,6.65-3.885,9.664-6.4,9.622-7.968,22.945-9.456,35.435-9.826s25.5-.085,36.79-5.448c9.858-4.682,17.447-13.393,22.165-23.232s6.768-20.774,7.541-31.662c.457-6.48.441-13.171-1.878-19.238-2.607-6.821-7.895-12.253-13.441-17-5.8-4.963-12.111-9.46-19.266-12.138-8.546-3.2-17.824-3.656-26.923-4.415-18.659-1.558-34.467,3.694-58.81,4.415C168.7,62.224,153.158,44.4,137.419,35.987,129.519,31.762,111.049,29.841,97.875,38.088Z" transform="translate(4.764 108.097)" fill="#6e78f7" opacity="0.1"/>
    <g id="Group_9066" data-name="Group 9066" transform="translate(215.2 179.104)" opacity="0.1">
      <path id="Path_16457" data-name="Path 16457" d="M773.4,544.934s.637-8.931,5.664-13.8a13.562,13.562,0,0,0,4.008-7.588,22.937,22.937,0,0,0,.27-4.164" transform="translate(-770.105 -513.719)" fill="#6e78f7"/>
      <path id="Path_16458" data-name="Path 16458" d="M829.362,490.511c-.369.987-3.223,3.179-3.223,3.179s-.72-3.527-.347-4.513a1.906,1.906,0,1,1,3.57,1.334Z" transform="translate(-812.977 -487.937)" fill="#6e78f7"/>
      <path id="Path_16459" data-name="Path 16459" d="M830.982,523.178c-.846.626-4.432.916-4.432.916s1.314-3.35,2.16-3.979a1.907,1.907,0,0,1,2.272,3.061Z" transform="translate(-813.686 -514.039)" fill="#6e78f7"/>
      <path id="Path_16460" data-name="Path 16460" d="M811.54,573.037c-1.048.115-4.29-1.44-4.29-1.44s2.827-2.229,3.872-2.34a1.9,1.9,0,0,1,.418,3.781Z" transform="translate(-797.861 -554.614)" fill="#6e78f7"/>
      <path id="Path_16461" data-name="Path 16461" d="M786.722,608.775c-1.012.29-4.472-.7-4.472-.7s2.409-2.674,3.421-2.963a1.907,1.907,0,1,1,1.051,3.664Z" transform="translate(-777.362 -583.943)" fill="#6e78f7"/>
      <path id="Path_16462" data-name="Path 16462" d="M804.595,524.892c.45.951,3.478,2.893,3.478,2.893s.418-3.574-.034-4.526a1.907,1.907,0,0,0-3.444,1.633Z" transform="translate(-795.551 -516.047)" fill="#6e78f7"/>
      <path id="Path_16463" data-name="Path 16463" d="M775.492,564.481c.72.772,4.186,1.721,4.186,1.721s-.672-3.536-1.386-4.31a1.907,1.907,0,1,0-2.8,2.589Z" transform="translate(-771.404 -548.076)" fill="#6e78f7"/>
      <path id="Path_16464" data-name="Path 16464" d="M755.377,610.33c.573.882,3.835,2.4,3.835,2.4s-.065-3.6-.639-4.481a1.907,1.907,0,0,0-3.2,2.078Z" transform="translate(-755.097 -585.918)" fill="#6e78f7"/>
      <path id="Path_16465" data-name="Path 16465" d="M829.362,490.511c-.369.987-3.223,3.179-3.223,3.179s-.72-3.527-.347-4.513a1.906,1.906,0,1,1,3.57,1.334Z" transform="translate(-812.977 -487.937)" fill="#6e78f7"/>
      <path id="Path_16466" data-name="Path 16466" d="M830.982,523.178c-.846.626-4.432.916-4.432.916s1.314-3.35,2.16-3.979a1.907,1.907,0,0,1,2.272,3.061Z" transform="translate(-813.686 -514.039)" fill="#6e78f7"/>
      <path id="Path_16467" data-name="Path 16467" d="M811.54,573.037c-1.048.115-4.29-1.44-4.29-1.44s2.827-2.229,3.872-2.34a1.9,1.9,0,0,1,.418,3.781Z" transform="translate(-797.861 -554.614)" fill="#6e78f7"/>
      <path id="Path_16468" data-name="Path 16468" d="M786.722,608.775c-1.012.29-4.472-.7-4.472-.7s2.409-2.674,3.421-2.963a1.907,1.907,0,1,1,1.051,3.664Z" transform="translate(-777.362 -583.943)" fill="#6e78f7"/>
      <path id="Path_16469" data-name="Path 16469" d="M804.595,524.892c.45.951,3.478,2.893,3.478,2.893s.418-3.574-.034-4.526a1.907,1.907,0,0,0-3.444,1.633Z" transform="translate(-795.551 -516.047)" fill="#6e78f7"/>
      <path id="Path_16470" data-name="Path 16470" d="M775.492,564.481c.72.772,4.186,1.721,4.186,1.721s-.672-3.536-1.386-4.31a1.907,1.907,0,1,0-2.8,2.589Z" transform="translate(-771.404 -548.076)" fill="#6e78f7"/>
      <path id="Path_16471" data-name="Path 16471" d="M755.377,610.33c.573.882,3.835,2.4,3.835,2.4s-.065-3.6-.639-4.481a1.907,1.907,0,0,0-3.2,2.078Z" transform="translate(-755.097 -585.918)" fill="#6e78f7"/>
    </g>
    <g id="Group_9068" data-name="Group 9068" transform="translate(79.275 223.648)" opacity="0.1">
      <path id="Path_16487" data-name="Path 16487" d="M174.033,451.277s-9.76-5.818-12.417-14.291a17.2,17.2,0,0,0-6.316-8.873,28.818,28.818,0,0,0-4.57-2.683" transform="translate(-144.879 -419.365)" fill="#6e78f7"/>
      <path id="Path_16488" data-name="Path 16488" d="M129.272,399.616c.914.98,1.766,5.468,1.766,5.468s-4.408-1.2-5.315-2.18a2.42,2.42,0,0,1,3.549-3.288Z" transform="translate(-125.123 -398.889)" fill="#6e78f7"/>
      <path id="Path_16489" data-name="Path 16489" d="M161.878,407.03c.229,1.316-1.49,5.548-1.49,5.548s-3.048-3.4-3.277-4.719a2.42,2.42,0,1,1,4.767-.829Z" transform="translate(-149.766 -403.577)" fill="#6e78f7"/>
      <path id="Path_16490" data-name="Path 16490" d="M199.413,443.844c-.457,1.252-4.088,4.038-4.088,4.038s-.914-4.476-.446-5.726a2.42,2.42,0,1,1,4.534,1.689Z" transform="translate(-178.836 -431.003)" fill="#6e78f7"/>
      <path id="Path_16491" data-name="Path 16491" d="M220.047,482.866c-.247,1.314-3.345,4.682-3.345,4.682s-1.657-4.257-1.408-5.569a2.419,2.419,0,0,1,4.753.9Z" transform="translate(-194.669 -461.472)" fill="#6e78f7"/>
      <path id="Path_16492" data-name="Path 16492" d="M148.093,437.848c1.334.032,5.267-2.285,5.267-2.285s-3.816-2.514-5.153-2.546a2.42,2.42,0,1,0-.114,4.838Z" transform="translate(-141.021 -425.218)" fill="#6e78f7"/>
      <path id="Path_16493" data-name="Path 16493" d="M170.964,481.7c1.284-.37,4.342-3.766,4.342-3.766s-4.392-1.255-5.676-.884a2.42,2.42,0,0,0,1.337,4.65Z" transform="translate(-158.149 -459.136)" fill="#6e78f7"/>
      <path id="Path_16494" data-name="Path 16494" d="M201.915,520.291c1.33-.146,4.915-2.971,4.915-2.971s-4.113-1.979-5.445-1.828a2.418,2.418,0,1,0,.53,4.8Z" transform="translate(-182.195 -488.841)" fill="#6e78f7"/>
      <path id="Path_16495" data-name="Path 16495" d="M129.272,399.616c.914.98,1.766,5.468,1.766,5.468s-4.408-1.2-5.315-2.18a2.42,2.42,0,0,1,3.549-3.288Z" transform="translate(-125.123 -398.889)" fill="#6e78f7"/>
      <path id="Path_16496" data-name="Path 16496" d="M161.878,407.03c.229,1.316-1.49,5.548-1.49,5.548s-3.048-3.4-3.277-4.719a2.42,2.42,0,1,1,4.767-.829Z" transform="translate(-149.766 -403.577)" fill="#6e78f7"/>
      <path id="Path_16497" data-name="Path 16497" d="M199.413,443.844c-.457,1.252-4.088,4.038-4.088,4.038s-.914-4.476-.446-5.726a2.42,2.42,0,1,1,4.534,1.689Z" transform="translate(-178.836 -431.003)" fill="#6e78f7"/>
      <path id="Path_16498" data-name="Path 16498" d="M220.047,482.866c-.247,1.314-3.345,4.682-3.345,4.682s-1.657-4.257-1.408-5.569a2.419,2.419,0,0,1,4.753.9Z" transform="translate(-194.669 -461.472)" fill="#6e78f7"/>
      <path id="Path_16499" data-name="Path 16499" d="M148.093,437.848c1.334.032,5.267-2.285,5.267-2.285s-3.816-2.514-5.153-2.546a2.42,2.42,0,1,0-.114,4.838Z" transform="translate(-141.021 -425.218)" fill="#6e78f7"/>
      <path id="Path_16500" data-name="Path 16500" d="M170.964,481.7c1.284-.37,4.342-3.766,4.342-3.766s-4.392-1.255-5.676-.884a2.42,2.42,0,0,0,1.337,4.65Z" transform="translate(-158.149 -459.136)" fill="#6e78f7"/>
      <path id="Path_16501" data-name="Path 16501" d="M201.915,520.291c1.33-.146,4.915-2.971,4.915-2.971s-4.113-1.979-5.445-1.828a2.418,2.418,0,1,0,.53,4.8Z" transform="translate(-182.195 -488.841)" fill="#6e78f7"/>
    </g>
    <path id="Path_16777" data-name="Path 16777" d="M232.93,766.318c18.82,3.224,33.956,3.757,55.312,3.985,2.923.032,8.051-.56,10.4,0a90.544,90.544,0,0,1,10.4,3.738c5.984,2.877,18.755.489,29.471,0s20.549-2.1,30.666-3.334c17.484-2.127,37.472-3.1,54.718-.777a26.967,26.967,0,0,0,4.947.372c3.779-.19,4.9-1.732,7.551-2.614,4.774-1.6,15.141-1.159,17.238-3.256,1.229-1.229-1.6-2.491-4.678-3.329-11.784-3.211-28.646-3.741-44.074-3.245s-30.593,1.86-46.091,1.867c-19.32,0-37.987-2.1-57.118-2.957-13.251-.594-27.712-.521-40.138,1.234C248.063,759.9,230.005,762.667,232.93,766.318Z" transform="translate(-148.93 -442.303)" fill="#6e78f7" opacity="0.1"/>
    <path id="Path_16266" data-name="Path 16266" d="M378.551,125.875h-.919V100.688a14.577,14.577,0,0,0-14.577-14.577H309.694a14.577,14.577,0,0,0-14.577,14.577V238.862a14.577,14.577,0,0,0,14.577,14.577h53.361a14.577,14.577,0,0,0,14.577-14.577V143.8h.919Z" transform="translate(-184.945 69.033)" fill="#3f3d56"/>
    <path id="Path_16267" data-name="Path 16267" d="M388,113.491V251.462a10.886,10.886,0,0,1-9.389,10.783,10.75,10.75,0,0,1-1.5.1H323.5a10.743,10.743,0,0,1-1.5-.1,10.885,10.885,0,0,1-9.385-10.783V113.491A10.887,10.887,0,0,1,323.5,102.6H330a5.17,5.17,0,0,0,4.789,7.125h30.57a5.169,5.169,0,0,0,4.787-7.125h6.966A10.887,10.887,0,0,1,388,113.491Z" transform="translate(-198.42 56.332)" fill="#fff"/>
    <path id="Path_16268" data-name="Path 16268" d="M388,597.945v34.97a10.886,10.886,0,0,1-9.389,10.783H322a10.885,10.885,0,0,1-9.385-10.783v-34.97Z" transform="translate(-198.42 -325.121)" fill="#e6e6e6"/>
    <ellipse id="Ellipse_100" data-name="Ellipse 100" cx="7.201" cy="7.201" rx="7.201" ry="7.201" transform="translate(144.688 288.499)" fill="#fff"/>
    <path id="Path_16269" data-name="Path 16269" d="M171.3,598.31h-3.888v-3.888h-.864v3.888h-3.889v.864h3.889v3.889h.864v-3.889H171.3Z" transform="translate(-15.087 -302.609)" fill="#e6e6e6"/>
    <path id="Path_16272" data-name="Path 16272" d="M207.173,613.633l-.524,3.147,2.8-.7v-2.447Z" transform="translate(-48.966 -317.404)" fill="#ffb9b9"/>
    <path id="Path_16273" data-name="Path 16273" d="M497.59,703.087s3.233-1.915,3.364-1.045,1.53,4.191,2.229,4.541,1.573,4.2,0,4.021c-1.218-.135-5.688-2.473-7.641-3.52a1.067,1.067,0,0,1-.459-1.395,2.2,2.2,0,0,0,.234-.679C495.317,704.661,497.59,703.087,497.59,703.087Z" transform="translate(-338.857 -405.111)" fill="#2f2e41"/>
    <path id="Path_16274" data-name="Path 16274" d="M443.278,543.641s12.761,5.943,11.537,10.488-5.769,23.773-5.769,23.773-5.069,1.224-5.419,0,3.321-20.277,2.972-20.976-6.817-5.244-6.817-5.244L426.5,546.088l5.594-5.244Z" transform="translate(-286.119 -281.149)" fill="#2f2e41"/>
    <path id="Path_16275" data-name="Path 16275" d="M236.231,618.2l1.573,4.021-2.8,1.224-1.748-3.146Z" transform="translate(-69.458 -320.917)" fill="#ffb9b9"/>
    <path id="Path_16277" data-name="Path 16277" d="M426.21,546.926s8.216,9.09,8.216,9.439,4.37,7.517,4.37,7.517l8.565,19.054s-3.321,4.545-4.72,4.2S431.279,566.5,431.279,566.5a9.706,9.706,0,0,0-6.468-5.594c-4.72-1.049-8.391-4.72-6.643-8.915S426.21,546.926,426.21,546.926Z" transform="translate(-279.365 -285.833)" fill="#2f2e41"/>
    <path id="Path_16283" data-name="Path 16283" d="M532.465,718.555s2.622-1.4,3.147-.35,3.321,6.817,2.972,7.517-2.272,3.5-4.545,2.8-2.447-4.37-2.447-4.37l-.175-4.2Z" transform="translate(-366.916 -417.431)" fill="#2f2e41"/>
    <path id="Path_16270" data-name="Path 16270" d="M514.612,500.548v6.468l-3.321,3.846s-1.4-.524-1.4-4.021l-.524-5.069Z" transform="translate(-349.937 -250.118)" fill="#ffb9b9"/>
    <path id="Path_16271" data-name="Path 16271" d="M515.537,497.482s5.419-3.671,5.594-4.894,5.2-6.732,6.643-3.321c1.364,3.219-4.154,5.978-4.154,5.978s-3.887,7.133-6.509,6.958S514.488,498.706,515.537,497.482Z" transform="translate(-354.183 -240.584)" fill="#ffb9b9"/>
    <path id="Path_16276" data-name="Path 16276" d="M473.9,410.991s-1.573,2.1-.35,3.146.35,4.895.35,4.895l-1.573,4.37-6.293-1.224v-7.167l.35-3.5s3.146-2.972,3.5-5.244S473.9,410.991,473.9,410.991Z" transform="translate(-316.564 -177.167)" fill="#ffb9b9"/>
    <ellipse id="Ellipse_101" data-name="Ellipse 101" cx="5.594" cy="5.594" rx="5.594" ry="5.594" transform="translate(151.74 223.86)" fill="#ffb9b9"/>
    <path id="Path_16278" data-name="Path 16278" d="M455.573,445.336s-.7,4.02-1.4,4.37-1.224,1.573-2.8-.175a22.052,22.052,0,0,1-2.972-5.244l-5.419,6.643-.524,18.354s6.118-1.573,8.041,0,6.118,1.4,6.118,1.4l-.874-3.5.7-5.943-.175-5.419-.175-3.846Z" transform="translate(-298.414 -206.792)" fill="#6e78f7"/>
    <path id="Path_16279" data-name="Path 16279" d="M495.941,436.052s2.364,1.194,2.539,1.893,3.321,2.1,3.321,2.1,1.224,1.224,1.224,1.923-4.2,8.74-4.2,8.74-.874,5.419-.524,6.468-.7,5.069-.7,5.069l2.1,2.447H497.78s-2.1-1.049-2.1-1.573.35-4.2.524-5.769a53.277,53.277,0,0,0-.175-9.09,67.047,67.047,0,0,1-.175-8.216C495.858,438.819,495.941,436.052,495.941,436.052Z" transform="translate(-339.398 -200.45)" fill="#3f3d56"/>
    <path id="Path_16280" data-name="Path 16280" d="M425.259,424.507s-.787.178-3.059.877-5.769,1.748-6.992,3.146a21.67,21.67,0,0,0-2.272,3.321l.7,12.586s-1.4,2.622-1.224,4.02,1.573,1.573.524,4.545-3.146,5.594-1.224,5.943,6.992-.874,9.265-.175,4.895-2.622,4.895-2.622-3.5.35-2.972-1.049,6.293-17.131,5.069-20.627S425.259,424.507,425.259,424.507Z" transform="translate(-274.131 -191.56)" fill="#3f3d56"/>
    <path id="Path_16281" data-name="Path 16281" d="M510.281,457.972l.874.7s2.447,8.74,1.748,9.614-6.293,2.8-6.642,1.573S510.281,457.972,510.281,457.972Z" transform="translate(-347.528 -217.331)" fill="#3f3d56"/>
    <path id="Path_16282" data-name="Path 16282" d="M402.509,484.582s-2.622,7.517-2.622,9.614.35,14.334.35,14.334,1.748,7.345,5.419,5.247-1.573-5.6-1.573-5.6.175-13.809,1.573-15.732a13.58,13.58,0,0,0,1.923-4.72Z" transform="translate(-265.628 -237.823)" fill="#ffb9b9"/>
    <path id="Path_16284" data-name="Path 16284" d="M475.607,379.625a2.462,2.462,0,0,0-1.085.64,5.4,5.4,0,0,0-.328.884,1.25,1.25,0,0,1-1.608.588,1.387,1.387,0,0,0-.566-.859.824.824,0,0,0-.978.054c-.36.344-.233.942-.4,1.411a2.978,2.978,0,0,1-.641.878,9.031,9.031,0,0,1-1.148,1.318,1.358,1.358,0,0,1-1.617.152,1.381,1.381,0,0,1-.371-1.35c.093-.482.325-.926.456-1.4.425-1.539-.252-3.181-.043-4.763a5.744,5.744,0,0,1,3.915-4.324,4.581,4.581,0,0,1,2.528-.268,18.922,18.922,0,0,1,2.474,1.077,18.816,18.816,0,0,0,2.823.6,3.864,3.864,0,0,1,2.46,1.381,17.8,17.8,0,0,1,.829,1.834,3.29,3.29,0,0,0,1.667,1.493l-1-.057a2.938,2.938,0,0,0,.794,1.159,2.131,2.131,0,0,1-1.38-.182,1.5,1.5,0,0,0,.514,1.075,4.337,4.337,0,0,1-2.224-.469c-.317-.2-.576-.481-.875-.71a6.475,6.475,0,0,0-2.2-.938c-.4-.116-.891-.277-1.257-.017C476.049,379.051,476,379.439,475.607,379.625Z" transform="translate(-317.179 -151.522)" fill="#2f2e41"/>
    <path id="Path_16285" data-name="Path 16285" d="M410.566,447.328l-2.622,2.1-3.5,8.041s4.894,3.846,6.118,3.321S413.888,451,413.888,451Z" transform="translate(-269.14 -209.134)" fill="#3f3d56"/>
    <ellipse id="Ellipse_102" data-name="Ellipse 102" cx="0.102" cy="0.087" rx="0.102" ry="0.087" transform="translate(174.948 250.261) rotate(-50.158)" fill="#f2f2f2"/>
    <path id="Path_16286" data-name="Path 16286" d="M562.929,432.7a1.136,1.136,0,0,0-1.135,1.135v19a1.136,1.136,0,0,0,1.135,1.135h76.612a1.136,1.136,0,0,0,1.135-1.135v-19a1.136,1.136,0,0,0-1.135-1.135Z" transform="translate(-390.309 -197.868)" fill="#fff"/>
    <path id="Path_16287" data-name="Path 16287" d="M562.929,432.7a1.136,1.136,0,0,0-1.135,1.135v19a1.136,1.136,0,0,0,1.135,1.135h76.612a1.136,1.136,0,0,0,1.135-1.135v-19a1.136,1.136,0,0,0-1.135-1.135Z" transform="translate(-390.309 -197.868)" fill="#e6e6e6"/>
    <path id="Path_16288" data-name="Path 16288" d="M567.347,456.973h76.329V438.253H567.347Z" transform="translate(-394.586 -202.145)" fill="#fff"/>
    <ellipse id="Ellipse_103" data-name="Ellipse 103" cx="5.959" cy="5.959" rx="5.959" ry="5.959" transform="translate(176.592 239.509)" fill="#6e78f7"/>
    <path id="Path_16289" data-name="Path 16289" d="M666.455,461.686a.993.993,0,0,0,0,1.986h46.819a.993.993,0,0,0,0-1.986Z" transform="translate(-470.142 -220.191)" fill="#e6e6e6"/>
    <path id="Path_16290" data-name="Path 16290" d="M666.455,487.6a.993.993,0,0,0,0,1.986h46.819a.993.993,0,1,0,0-1.986Z" transform="translate(-470.142 -240.149)" fill="#e6e6e6"/>
    <path id="Path_16291" data-name="Path 16291" d="M350.632,182.945a.839.839,0,0,0-.838.838v14.024a.839.839,0,0,0,.838.838h56.537a.839.839,0,0,0,.838-.838V183.782a.838.838,0,0,0-.838-.838Z" transform="translate(-227.053 -5.537)" fill="#fff"/>
    <path id="Path_16292" data-name="Path 16292" d="M350.632,182.945a.839.839,0,0,0-.838.838v14.024a.839.839,0,0,0,.838.838h56.537a.839.839,0,0,0,.838-.838V183.782a.838.838,0,0,0-.838-.838Z" transform="translate(-227.053 -5.537)" fill="#e6e6e6"/>
    <path id="Path_16293" data-name="Path 16293" d="M353.892,200.859H410.22V187.043H353.892Z" transform="translate(-230.208 -8.693)" fill="#fff"/>
    <ellipse id="Ellipse_104" data-name="Ellipse 104" cx="4.397" cy="4.397" rx="4.397" ry="4.397" transform="translate(126.511 180.86)" fill="#6e78f7"/>
    <path id="Path_16294" data-name="Path 16294" d="M427.03,204.336a.733.733,0,1,0,0,1.466h34.551a.733.733,0,0,0,0-1.466Z" transform="translate(-285.966 -22.01)" fill="#e6e6e6"/>
    <path id="Path_16295" data-name="Path 16295" d="M427.03,223.462a.733.733,0,1,0,0,1.466h34.551a.733.733,0,0,0,0-1.466Z" transform="translate(-285.966 -36.739)" fill="#e6e6e6"/>
    <path id="Path_16296" data-name="Path 16296" d="M350.632,291.945a.838.838,0,0,0-.838.838v14.025a.839.839,0,0,0,.838.838h56.537a.839.839,0,0,0,.838-.838V292.782a.838.838,0,0,0-.838-.838Z" transform="translate(-227.053 -89.476)" fill="#fff"/>
    <path id="Path_16297" data-name="Path 16297" d="M350.632,291.945a.838.838,0,0,0-.838.838v14.025a.839.839,0,0,0,.838.838h56.537a.839.839,0,0,0,.838-.838V292.782a.838.838,0,0,0-.838-.838Z" transform="translate(-227.053 -89.476)" fill="#e6e6e6"/>
    <path id="Path_16298" data-name="Path 16298" d="M353.892,309.859H410.22V296.043H353.892Z" transform="translate(-230.208 -92.632)" fill="#fff"/>
    <ellipse id="Ellipse_105" data-name="Ellipse 105" cx="4.397" cy="4.397" rx="4.397" ry="4.397" transform="translate(126.511 205.921)" fill="#6e78f7"/>
    <path id="Path_16299" data-name="Path 16299" d="M427.03,313.336a.733.733,0,1,0,0,1.466h34.551a.733.733,0,0,0,0-1.466Z" transform="translate(-285.965 -105.949)" fill="#e6e6e6"/>
    <path id="Path_16300" data-name="Path 16300" d="M427.03,332.462a.733.733,0,1,0,0,1.466h34.551a.733.733,0,1,0,0-1.466Z" transform="translate(-285.966 -120.678)" fill="#e6e6e6"/>
    <ellipse id="Ellipse_167" data-name="Ellipse 167" cx="20.485" cy="3.29" rx="20.485" ry="3.29" transform="translate(260.837 315.951)" fill="#6e78f7" opacity="0.297"/>
    <ellipse id="Ellipse_172" data-name="Ellipse 172" cx="7.4" cy="1.188" rx="7.4" ry="1.188" transform="translate(206.238 318.577)" fill="#6e78f7" opacity="0.297"/>
    <path id="Path_16765" data-name="Path 16765" d="M296.188,264.439s.828-.116.828-1.322a18.905,18.905,0,0,1,.593-3.46h0c0-.01.513-3.925,1.221-4.547s1.619-4.276,1.619-4.276a8.621,8.621,0,0,1,.473-2.409,20.475,20.475,0,0,0,1.379-2.962c.633-1.491,3.271-2.523,3.271-2.523s4.77-2.767,6.122-3.669h0a2.071,2.071,0,0,0,.343-.259c.235-.309,1.261-.315,1.261-.315.107-.677.957-1.049.99-1.754,0-.076-.011-.33,0-.405-1.507-.891-1.183-3.6-1.261-3.78-.122-.271-.748-.765-.9-1.017-.177-.3-.168-1.413-.433-1.638-.669-.568-.032-1.32,0-2.191.021-.7-3.547-1.505-3.591-2.205l-.013-.177c-.013-.105-.027-.21-.046-.311-.1-.521-.328-1.013-.454-1.53a1.969,1.969,0,0,1,.156-1.545,2.686,2.686,0,0,1,2.117-.851c.893-.076,1.692.023,2.264-.719a8.074,8.074,0,0,1,.9-1.087c.118-.109,1.261-.807,1.261-.854a5.11,5.11,0,0,1,3.563-.273c.593.172,1.152.454,1.753.595a7.607,7.607,0,0,1,2.845,1.619,3.6,3.6,0,0,1,1.178,1.54c.28.537.48.871.769,1.406.465.881.065,1.212.26,2.188a3.87,3.87,0,0,1,0,.708h0v.011c0,.074.013.477,0,.542s.006-.044,0,0-.692-.067-.7,0,.729.2.7.293c-.01.04.013.139,0,.177-.021.071.027.165,0,.234-.015.036.017.116,0,.151-.031.074.038.127,0,.192-.017.029.017.157,0,.184-.059.1.07.168,0,.258-.45.561.49,1.059,0,1.584v.235c-.053,2.38-2.031,3.519-4.027,4.815,0,.08-1.02.981-1.024,1.061-.041.624,1.729,1.492,1.785,2.115a.883.883,0,0,1,.7-.311,1.008,1.008,0,0,1,.269.023l.019-.015h0v.019c.463.114,1.032.595,1.577,1.964,0,0,1.657,1.867,2.918,1.789s4.455,1.943,4.455,1.943,3.116,2.022,3.784,4.083a28.779,28.779,0,0,0,1.341,3.423l3.851,7.936h0l.711,6.3a29.21,29.21,0,0,0-.315,3.227,31.074,31.074,0,0,1-1.617,4.276s-5.6,9.837-7.886,10.341l-.164-.116a1.345,1.345,0,0,1-.309.116l-.471-.332a5.123,5.123,0,0,0,.036,1.11,29.25,29.25,0,0,1-.669,8.552c-.551,1.242-.355,17.533-.355,17.533l.078,1.438a.609.609,0,0,1-.019.126l.019.341-.057.029a4.051,4.051,0,0,0,.057,1.369,15.216,15.216,0,0,1,.277,2.413s1.575,10.066.828,12.088-1.381,4.238-1.381,4.238-.788,2.523-.038,2.954,2.884,1.154,2.445,2.205c-.4.971-1.915,3.574-2.14,3.954l.019.2.309,3.349a4.205,4.205,0,0,1-.355,1.278,2.2,2.2,0,0,1-2.247,1.4c-.21-.015-.454-.04-.69-.071a29.8,29.8,0,0,1-5.109-1.329,2.083,2.083,0,0,0,.4-.33h0a1.154,1.154,0,0,0,.351-.841,24.623,24.623,0,0,1,1.392-4.23c.044-.1.067-.162.067-.162s-2.6-2.72-2.169-5.132c0,0,2.88-1.682,1.932-2.6a29.37,29.37,0,0,1-2.643-3.574s-.078-9.912,0-11.392a12.256,12.256,0,0,0-.145-3.076c-.031-.154-.069-.3-.109-.45a27.44,27.44,0,0,1-3.961.3c-.484,0-.975,0-1.472-.029q0,.21-.019.454c-.109,2.455-.313,6.761-.479,8.361-.235,2.294-1.537,8.474-1.537,8.474s2.483,1.594-.433,5.521a5.324,5.324,0,0,0,.193,1.629h0a17.828,17.828,0,0,1,.5,2.052,3.618,3.618,0,0,1-.025,1.877c-.473.929-3.311.854-3.311.854h0l-.069-.013a4.068,4.068,0,0,0-3,.906c-1.078.866-5.172.486-7.387.21-.868-.109-1.448-.21-1.448-.21a.84.84,0,0,1-.029-.3h0c.023-.544.45-1.739,3.343-2.8,0,0,2.72-1.829,2.683-3.423h.372a2.976,2.976,0,0,0-.376,0s1.066-3.889.631-4.2.868-4.625.868-4.625.746-7.232.786-7.739a4.413,4.413,0,0,0-.2-1.282l.2-3.965s.038-1.318,0-1.747a8.731,8.731,0,0,1,.09-1.112c.019-.147.038-.3.059-.452-1.02-.259-1.682-.5-1.682-.5l.118-13.8c-.866-1.682-1.026-5.371-1.022-7.989,0-1.682.076-2.926.076-2.926l-1.184-1.932s-.273-2.313.16-2.819a.485.485,0,0,0-.053-.662,2.187,2.187,0,0,0-.259-.177s.013-.019.027-.046a2.092,2.092,0,0,0-.263-.187s.42-.652.044-.927c-.353.24-.668.42-.908.568.017.153.034.242.034.242l-.1-.21-.372.21a28.1,28.1,0,0,1-1.814-4.238,12.362,12.362,0,0,0-1.261-2.838,2.84,2.84,0,0,0-.868-1.709c-.711-.5-.551-4.161-.551-4.161a8.962,8.962,0,0,0-.671-2.683C295.284,265.489,296.188,264.439,296.188,264.439Zm35.479-1.621-.036.881.362-.582Z" transform="translate(-34.675 -26.554)" fill="url(#linear-gradient)"/>
    <path id="Path_16768" data-name="Path 16768" d="M350.57,798.079a26.148,26.148,0,0,0,5.676,1.392,2.16,2.16,0,0,0,2.205-1.4,4.227,4.227,0,0,0,.347-1.272l-.3-3.332-.16-1.774-4.913-1.276-.7,2.128-.065.162a24.634,24.634,0,0,0-1.367,4.2,1.148,1.148,0,0,1-.345.831A2.007,2.007,0,0,1,350.57,798.079Z" transform="translate(-64.012 -478.508)" fill="#fff"/>
    <path id="Path_16769" data-name="Path 16769" d="M427.178,795.555a.842.842,0,0,0,.029.3s7.194,1.2,8.666,0a3.9,3.9,0,0,1,3.027-.887s2.784.076,3.248-.841a3.649,3.649,0,0,0,.023-1.867,17.783,17.783,0,0,0-.488-2.041l-.111-.088-.662-.532-7.753-.229H433.1c.038,1.585-2.632,3.4-2.632,3.4C427.63,793.825,427.212,795.013,427.178,795.555Z" transform="translate(-163.597 -477.678)" fill="#fff"/>
    <path id="Path_16770" data-name="Path 16770" d="M427.183,806.414a.858.858,0,0,0,.031.3s7.192,1.2,8.664,0a3.9,3.9,0,0,1,3.025-.887s2.786.076,3.248-.841a3.647,3.647,0,0,0,.025-1.867c-1.072.107-2.765.374-3.429,1.011a7.613,7.613,0,0,1-3.753,2.012C434.177,806.2,429.285,806.351,427.183,806.414Z" transform="translate(-163.601 -488.538)" opacity="0.1"/>
    <path id="Path_16771" data-name="Path 16771" d="M352.23,825.634a26.136,26.136,0,0,0,5.676,1.392,2.154,2.154,0,0,0,2.2-1.4,4.571,4.571,0,0,1-2.668.313,23.767,23.767,0,0,0-4.835-.631A2.079,2.079,0,0,1,352.23,825.634Z" transform="translate(-65.672 -506.063)" opacity="0.1"/>
    <path id="Path_16755" data-name="Path 16755" d="M389.98,305.614c2.775-1.078,6.345-4.642,5.453-6.307a3.728,3.728,0,0,1-.347-1.337,12.217,12.217,0,0,1-.025-1.892,25.923,25.923,0,0,1,.372-3.078s-8.663.2-8.159,1.472a4.775,4.775,0,0,1,.13,1.751c-.04.727-.145,1.549-.254,2.245-.151.954-.3,1.682-.3,1.682s.53.742.841.782S386,307.151,389.98,305.614Z" transform="translate(-108.412 -85.661)" fill="#cf6f80"/>
    <path id="Path_16767" data-name="Path 16767" d="M341.813,657.812a5.848,5.848,0,0,1,.32,1.078,12.345,12.345,0,0,1,.145,3.061c-.078,1.472,0,11.333,0,11.333a30.16,30.16,0,0,0,2.59,3.557c.927.927-1.892,2.592-1.892,2.592-.42,2.4,2.128,5.1,2.128,5.1,2.59-3.133,5.722.774,5.722.774s1.7-2.943,2.128-3.994-1.663-1.779-2.4-2.205.036-2.943.036-2.943.62-2.205,1.356-4.217-.812-12.028-.812-12.028a15.516,15.516,0,0,0-.271-2.4,4.01,4.01,0,0,1-.057-1.362c.013-.153.027-.282.038-.368s.019-.126.019-.126l-.029-.05-1.051-1.959S341.309,656.578,341.813,657.812Z" transform="translate(-56.378 -370.499)" fill="#6e78f7"/>
    <path id="Path_16766" data-name="Path 16766" d="M419.21,689.9a5.02,5.02,0,0,1,2.9.841c1.009.881,5.887.193,5.676,0s-.193-1.625-.193-1.625c2.861-3.906.42-5.491.42-5.491s1.278-6.149,1.51-8.43c.162-1.594.362-5.876.469-8.321.046-1.051.074-1.774.074-1.774l-2.338-.471-.3-.061-5.638-1.131s-.156,1.051-.261,1.911a8.941,8.941,0,0,0-.088,1.108c.038.421,0,1.737,0,1.737l-.191,3.946a4.481,4.481,0,0,1,.191,1.276c-.038.5-.772,7.7-.772,7.7s-1.276,4.293-.841,4.6S419.21,689.9,419.21,689.9Z" transform="translate(-149.71 -378.223)" fill="#6e78f7"/>
    <path id="Path_16756" data-name="Path 16756" d="M327.21,278.2l3.172,53.294,4.137.271,10.713-30.9-1.758-36.687-.37-7.751-4.764,3.912-2.352,1.928-1.84-4.682-3.42,2.981Z" transform="translate(-55.467 -44.445)" fill="#6e78f7"/>
    <path id="Path_16773" data-name="Path 16773" d="M302,390.974c8.619,1.472,16.514-2.748,16.514-2.748l-.076-1.43s-.2-16.207.347-17.449a29.544,29.544,0,0,0,.658-8.51c-.307-.967,1.121-15.469,1.121-15.469l.231-5.887,8.464-3.429-3.784-7.888a28.477,28.477,0,0,1-1.316-3.406c-.658-2.048-3.713-4.06-3.713-4.06s-3.132-2.01-4.371-1.934-2.861-1.779-2.861-1.779c-1.2-3.055-2.283-1.671-2.283-1.671a2.73,2.73,0,0,0,.059.452c.42,3.353-6.8,13.949-6.9,14.136h0l-.687,16.747-.7,21.193Z" transform="translate(-24.262 -103.039)" opacity="0.1"/>
    <path id="Path_16757" data-name="Path 16757" d="M300.87,390.927c8.619,1.472,16.516-2.748,16.516-2.748l-.078-1.43s-.2-16.207.349-17.449a29.394,29.394,0,0,0,.656-8.51c-.309-.967,1.12-15.469,1.12-15.469l.233-5.886,8.468-3.441-3.784-7.888a28.9,28.9,0,0,1-1.316-3.406c-.656-2.048-3.713-4.06-3.713-4.06s-3.132-2.01-4.369-1.934-2.861-1.779-2.861-1.779c-1.2-3.055-2.523-1.671-2.523-1.671,0,.145.126.21.059.452-.925,3.252-6.568,13.949-6.671,14.136h0l-.7,16.747-.7,21.193Z" transform="translate(-22.899 -102.991)" fill="#fff"/>
    <path id="Path_16772" data-name="Path 16772" d="M381.74,332.151c.927-.387,5.838-5.994,5.838-5.994v-1.276c.179-.42,1.24-.164,2.1.13l-.37-7.751-.42.349C387.969,320.859,381.847,331.964,381.74,332.151Z" transform="translate(-101.446 -104.821)" opacity="0.1"/>
    <path id="Path_16763" data-name="Path 16763" d="M359.08,514.358c-.116,0-5.994-.618-5.994-.618s-3.557,7-3.326,8.7.658,3.21,2.088,2.943a63.558,63.558,0,0,1,7.7.21Z" transform="translate(-64.595 -259.994)" fill="#fff"/>
    <path id="Path_16762" data-name="Path 16762" d="M363.294,501.05s-5.394,2.9-5.51,3.784,2.746-.387,3.364-.54a7.69,7.69,0,0,1,1.238-.193l4.123.111Z" transform="translate(-73.237 -249.972)" fill="#cf6f80"/>
    <ellipse id="Ellipse_169" data-name="Ellipse 169" cx="0.568" cy="0.568" rx="0.568" ry="0.568" transform="translate(281.23 226.325)" fill="#3f3d56"/>
    <ellipse id="Ellipse_170" data-name="Ellipse 170" cx="0.568" cy="0.568" rx="0.568" ry="0.568" transform="translate(280.186 250.895)" fill="#3f3d56"/>
    <ellipse id="Ellipse_168" data-name="Ellipse 168" cx="0.568" cy="0.568" rx="0.568" ry="0.568" transform="translate(280.665 238.611)" fill="#3f3d56"/>
    <path id="Path_16774" data-name="Path 16774" d="M431.466,360.094s-.387.58,0,.851-.038.927-.038.927.965.565.54,1.074-.156,2.807-.156,2.807l1.16,1.922s-.069,1.238-.074,2.912c0,2.611.154,6.282,1,7.955l-.118,13.73a18.689,18.689,0,0,0,7.465,1.032l.5-22.032s-.736-12.494-1.007-14.891a24.957,24.957,0,0,1-.193-3.753,41.926,41.926,0,0,1,.5-5.491s.42-7.541.462-9.629c.019-1-.034-3.912-.092-6.683-.065-3.029-.139-5.886-.139-5.886l.767-6.072s-.767-.078-1,.231a2.211,2.211,0,0,1-.336.259h0c-1.324.9-6,3.65-6,3.65s-2.59,1.03-3.21,2.506a21.856,21.856,0,0,1-1.352,2.943,9.081,9.081,0,0,0-.465,2.4s-.891,3.637-1.587,4.253-1.2,4.535-1.2,4.535l6.149,4.835s.54,8.044.656,8.355S431.466,360.094,431.466,360.094Z" transform="translate(-163.318 -106.083)" fill="#fff"/>
    <path id="Path_16759" data-name="Path 16759" d="M431.39,359.842s-.385.58,0,.851-.036.927-.036.927.959.572.538,1.081-.156,2.807-.156,2.807l1.161,1.922s-.069,1.238-.076,2.912c0,2.611.154,6.282,1,7.955l-.116,13.73a18.72,18.72,0,0,0,7.467,1.032l.5-22.032s-.736-12.494-1.007-14.891a24.718,24.718,0,0,1-.191-3.753,42.206,42.206,0,0,1,.5-5.491s.421-7.541.465-9.629c.019-1-.036-3.912-.093-6.683-.065-3.029-.139-5.886-.139-5.886l1.013-6.154s-1.013,0-1.247.313a1.992,1.992,0,0,1-.336.259h0c-1.324.9-6.006,3.65-6.006,3.65s-2.588,1.03-3.208,2.506a21.487,21.487,0,0,1-1.354,2.943,8.977,8.977,0,0,0-.462,2.4s-.891,3.637-1.587,4.253-1.2,4.526-1.2,4.526l6.149,4.835s.54,8.044.658,8.355S431.39,359.842,431.39,359.842Z" transform="translate(-163.475 -105.832)" fill="#fff"/>
    <path id="Path_16775" data-name="Path 16775" d="M314.077,419.192l2.2-4.062.7,6.267a29.04,29.04,0,0,0-.309,3.21,30.872,30.872,0,0,1-1.585,4.253s-5.493,9.784-7.736,10.289l-7.579-5.416,2.01-2.552s.7-.271.87,0c0,0,3.732-6.421,4.118-6.885a2.319,2.319,0,0,0,.311-1.392s.58-.618.387-1.2,1.121-2.592,1.121-2.592l-1.2-1.12Z" transform="translate(-11.501 -182.115)" opacity="0.1"/>
    <path id="Path_16758" data-name="Path 16758" d="M313.485,412.93l.58.463.7,6.267a29.053,29.053,0,0,0-.309,3.21,30.848,30.848,0,0,1-1.587,4.253s-5.491,9.784-7.734,10.289L297.55,432l2.012-2.552s.7-.271.87,0c0,0,3.732-6.421,4.118-6.885a2.312,2.312,0,0,0,.309-1.392s.58-.618.387-1.2,1.123-2.592,1.123-2.592l-1.2-1.12Z" transform="translate(-8.829 -180.378)" fill="#fff"/>
    <path id="Path_16764" data-name="Path 16764" d="M455.668,514.542c-.42.511-.156,2.807-.156,2.807l1.16,1.922s-.069,1.238-.076,2.912l1.987.62a1.135,1.135,0,0,0,1.472-1.118l-.339-10.884-4.554,1.741c.389.269-.036.927-.036.927S456.088,514.033,455.668,514.542Z" transform="translate(-187.251 -257.672)" fill="#fff"/>
    <path id="Path_16761" data-name="Path 16761" d="M465.85,497.641s.309,1.974,1.083,2.09,1.12,3.193,1.892,3.084.261-2.861.233-3.4.841-2.746.191-3.248-2.706,0-2.706,0Z" transform="translate(-198.94 -245.943)" fill="#cf6f80"/>
    <path id="Path_16760" data-name="Path 16760" d="M467.39,415.69l-1.274.42a19.045,19.045,0,0,0-.582,3.442c0,1.2-.811,1.316-.811,1.316s-.889,1.051-.42,1.816a8.793,8.793,0,0,1,.656,2.67s-.153,3.635.542,4.137a2.854,2.854,0,0,1,.851,1.7,12.337,12.337,0,0,1,1.236,2.823,28.029,28.029,0,0,0,1.781,4.215s-.891-4.564,4.293-6.536c0,0,.038-1.549-.349-1.974s-.99-.618-.612-2.765a25.072,25.072,0,0,0,.109-5.226,32.913,32.913,0,0,0-1.16-3.727Z" transform="translate(-202.756 -182.558)" fill="#fff"/>
    <ellipse id="Ellipse_171" data-name="Ellipse 171" cx="8.07" cy="8.07" rx="8.07" ry="8.07" transform="translate(273.504 194.813)" fill="#cf6f80"/>
    <path id="Path_16776" data-name="Path 16776" d="M281.156,467.8a11.4,11.4,0,0,0-2.15.3,5.441,5.441,0,0,1-5.816-4.057,3.112,3.112,0,0,0-.3-.969,1.92,1.92,0,0,0-2.041-.621,15.757,15.757,0,0,1-2.2.536,3.376,3.376,0,0,1-2.913-1.649,5.592,5.592,0,0,1-.715-3.377l.56.588a2.845,2.845,0,0,0,.254-1.546,1.794,1.794,0,0,1,1.7.435c.494.053.121-.916.488-1.251a.849.849,0,0,1,.6-.112c1.051.01,1.9-.794,2.729-1.441a11.6,11.6,0,0,1,4.9-2.234,6.444,6.444,0,0,1,3.574.173,7.635,7.635,0,0,1,2.413,1.712,14.734,14.734,0,0,1,4.055,6.017,10.129,10.129,0,0,1,.049,5.873c-.3,1-1.185,4.411-2.489,4.49C282.211,470.766,283.194,467.923,281.156,467.8Z" transform="translate(4.341 -262.553)" fill="#512e4e"/>
    <path id="Path_16779" data-name="Path 16779" d="M177.267,686.524a10.414,10.414,0,0,1-3.879,5.247,8.966,8.966,0,0,1,3.174-11.733A10.413,10.413,0,0,1,177.267,686.524Z" transform="translate(39.685 -375.166)" fill="#3f3d56"/>
    <path id="Path_16780" data-name="Path 16780" d="M139.951,708.229a10.414,10.414,0,0,0-2.7,5.94,8.966,8.966,0,0,0,8.71-8.479A10.416,10.416,0,0,0,139.951,708.229Z" transform="translate(75.713 -397.567)" fill="#6e78f7"/>
    <path id="Path_16781" data-name="Path 16781" d="M169.422,805.468s-4.163.161-5.026-.452-3.08-1.592-3.294-.609-4.289,4.885-1.067,4.912,7.487-.5,8.346-1.026S169.422,805.468,169.422,805.468Z" transform="translate(49.926 -489.211)" fill="#a8a8a8"/>
    <path id="Path_16782" data-name="Path 16782" d="M159.977,815.7c3.223.026,7.489-.5,8.348-1.026.654-.4.915-1.827,1-2.487h.095s-.186,2.3-1.039,2.825-5.125,1.052-8.348,1.026c-.929,0-1.253-.338-1.234-.829C158.929,815.512,159.284,815.7,159.977,815.7Z" transform="translate(49.926 -495.934)" opacity="0.2"/>
  </g>
</svg>
