<svg xmlns="http://www.w3.org/2000/svg" width="77.981" height="32.051" viewBox="0 0 77.981 32.051">
  <path id="Path_17047" data-name="Path 17047" d="M21.454,128.654,15.625,110.8l-2,5.688a1.143,1.143,0,0,1-1.077.763H1.142a1.142,1.142,0,1,1,0-2.285H11.734l2.856-8.1a1.143,1.143,0,0,1,2.163.025l5.547,16.99L27.671,98.3a1.143,1.143,0,0,1,2.231-.022l3.857,16.692H46.141l3.154-8.132a1.144,1.144,0,0,1,2.154.068l4.658,14.714L59.7,100.095a1.144,1.144,0,0,1,2.236-.086l3.691,14.958H76.839a1.142,1.142,0,1,1,0,2.285H64.732a1.142,1.142,0,0,1-1.109-.869l-2.58-10.456-3.463,20.752a1.144,1.144,0,0,1-2.216.156l-5.112-16.147-2.263,5.834a1.142,1.142,0,0,1-1.065.729H32.851a1.143,1.143,0,0,1-1.113-.885l-2.9-12.529-5.184,24.7A1.143,1.143,0,0,1,21.454,128.654Zm0,0" transform="translate(0 -97.39)" fill="#fff"/>
</svg>
