<svg xmlns="http://www.w3.org/2000/svg" width="87" height="88" viewBox="0 0 87 88">
  <g id="Group_8948" data-name="Group 8948" transform="translate(-203.5 -166.858)">
    <ellipse id="Ellipse_52" data-name="Ellipse 52" cx="43.5" cy="44" rx="43.5" ry="44" transform="translate(203.5 166.858)" fill="#6e78f7"/>
    <g id="man" transform="translate(220.402 175.962)">
      <path id="Path_15955" data-name="Path 15955" d="M192.628,288.549H209.7v19.807H192.628Z" transform="translate(-174.75 -249.051)" fill="#f9d7aa"/>
      <g id="Group_8946" data-name="Group 8946" transform="translate(17.878 39.498)">
        <path id="Path_15956" data-name="Path 15956" d="M202.684,298.028a9.622,9.622,0,0,0,7.019-2.965v-6.514H192.628v2.889S195.937,298.028,202.684,298.028Z" transform="translate(-192.628 -288.549)" fill="#e8ac6b"/>
      </g>
      <g id="Group_8947" data-name="Group 8947" transform="translate(7.964 5.162)">
        <path id="Path_15957" data-name="Path 15957" d="M161.988,43.407l-.4,0-.4,0c-17.981.168-15.025,11.6-15.025,21.726,0,10.2,10.565,20.409,15.426,20.409h.005c4.861,0,15.426-10.2,15.426-20.409C177.013,55,179.969,43.575,161.988,43.407Z" transform="translate(-142.596 -43.403)" fill="#f9d7aa"/>
        <path id="Path_15958" data-name="Path 15958" d="M357.974,177.585l1.219-3.9a2.859,2.859,0,0,1,3.277,1.712c1.131,2.308-1.829,7.049-4.383,7.447C357.378,181.038,357.974,177.585,357.974,177.585Z" transform="translate(-324.699 -155.377)" fill="#f9d7aa"/>
        <path id="Path_15959" data-name="Path 15959" d="M126.591,177.585l-1.219-3.9a2.859,2.859,0,0,0-3.277,1.712c-1.131,2.308,1.829,7.049,4.383,7.447C127.186,181.038,126.591,177.585,126.591,177.585Z" transform="translate(-121.847 -155.377)" fill="#f9d7aa"/>
      </g>
      <path id="Path_15960" data-name="Path 15960" d="M118.055,385.047c-.322-8.018-6.492-9.87-10.2-10.257-1.017-.106-4.013-.1-6.076-.084l0,0c-1.2.01-2.083.025-2.083.025l-8.422,7.4-8.518-7.4s-.8-.014-1.905-.024l0,0c-1.985-.018-4.948-.024-5.982.084-3.7.387-9.875,2.238-10.2,10.257a14.061,14.061,0,0,0,.407,4.58s2.582,6.964,22.816,10.379c.127,0,5.547,0,5.674,0,18.124-1.483,24.479-9.758,24.479-9.758A29.922,29.922,0,0,0,118.055,385.047Z" transform="translate(-64.612 -323.132)" fill="#fc6121"/>
      <path id="Path_15961" data-name="Path 15961" d="M131.766,30.263c1.066-.236,2.1-.241,3.192,1.623.073-2.881-.433-5.084.667-5.761a3.054,3.054,0,0,1,.761,1.864c1.356-2.2,3.717-3.9,3.892-7.795,1.192,2.2,5.506,8.473,17.075,7.286A7.826,7.826,0,0,1,156,24.938a9.763,9.763,0,0,0,5.123,2.2,10.593,10.593,0,0,1,0-2.372s2.081,1.509,2.465,7.117c.56-1.792,1.152-2.137,1.957-1.752.407-1.467,3.213-13.233-1.88-18.147-5.382-5.192-20.334-9.054-26.6,0C133.675,12.4,130.2,15.084,131.766,30.263Z" transform="translate(-122.079 -6.549)" fill="#240703"/>
    </g>
  </g>
</svg>
