<svg xmlns="http://www.w3.org/2000/svg" width="41.354" height="46.728" viewBox="0 0 41.354 46.728">
  <g id="Layer_27" transform="translate(-18.628 -1.669)">
    <g id="Group_9146" data-name="Group 9146" transform="translate(18.628 0)">
      <g id="Group_9099" data-name="Group 9099" transform="translate(11.814 4.244)">
        <path id="Path_16889" data-name="Path 16889" d="M97.107,31.3c-.019-1.108.033-2.185,1.049-2.184a.831.831,0,0,1,.689.418L97,25.639a1,1,0,0,1,.523-1.35c.011,0,.021-.006.032-.01a4.128,4.128,0,0,0-3.865.219,4.193,4.193,0,0,0-3.592-2.05H87.945a7.538,7.538,0,0,0-5.176,2.061,1,1,0,0,1,.2,1.129l-1.846,3.9a.831.831,0,0,1,.689-.418c1.264,0,1.035,1.665,1.036,2.987,0,.022,0,.049,0,.072a.4.4,0,0,1,.382-.132,7.949,7.949,0,0,0,7.958-2.615.4.4,0,0,1,.587-.037,7.635,7.635,0,0,0,5.269,1.9.337.337,0,0,1,.063.008Z" transform="translate(-81.118 -22.449)" fill="#754e34"/>
      </g>
      <g id="Group_9100" data-name="Group 9100" transform="translate(0.475 6.014)">
        <path id="Path_16890" data-name="Path 16890" d="M35,42.716l-.017-.044A10.128,10.128,0,0,1,34.2,39.7c0-1.321.228-2.987-1.036-2.987a.831.831,0,0,0-.689.418l1.846-3.9a1,1,0,0,0-.523-1.35,1.03,1.03,0,0,0-1.244.426l-2.342,3.687a6.056,6.056,0,0,0-.609,4.56l.713,2.715s.008.04.015.113a2.037,2.037,0,0,1-.219,1.127l-8.6,15.674a3.076,3.076,0,1,0,5.575,2.566l6.8-16.276a10.534,10.534,0,0,1,.879-1.686A2.293,2.293,0,0,0,35,42.716Z" transform="translate(-21.138 -31.809)" fill="#f9d0b4"/>
      </g>
      <g id="Group_9101" data-name="Group 9101" transform="translate(26.871 6.014)">
        <path id="Path_16891" data-name="Path 16891" d="M160.913,42.716l.017-.044a10.128,10.128,0,0,0,.778-2.976c0-1.321-.228-2.987,1.036-2.987a.831.831,0,0,1,.689.418l-1.846-3.9a1,1,0,0,1,.523-1.35,1.03,1.03,0,0,1,1.244.426l2.342,3.687a6.056,6.056,0,0,1,.609,4.56l-.713,2.715s-.008.04-.015.113a2.037,2.037,0,0,0,.219,1.127l8.6,15.674a3.076,3.076,0,1,1-5.575,2.566l-6.8-16.276a10.529,10.529,0,0,0-.878-1.686A2.292,2.292,0,0,1,160.913,42.716Z" transform="translate(-160.763 -31.809)" fill="#f9d0b4"/>
      </g>
      <g id="Group_9102" data-name="Group 9102" transform="translate(13.453 11.075)">
        <path id="Path_16892" data-name="Path 16892" d="M103.584,66.5a2.294,2.294,0,0,1-.228-2.069l.017-.044a10.128,10.128,0,0,0,.778-2.976c0-.259-.008-.532-.013-.8a.372.372,0,0,0-.064-.008,7.633,7.633,0,0,1-5.269-1.9.4.4,0,0,0-.587.037,7.949,7.949,0,0,1-7.958,2.615.4.4,0,0,0-.382.132,10.511,10.511,0,0,0,.774,2.9l.017.044a2.294,2.294,0,0,1-.228,2.069,10.506,10.506,0,0,0-.653,1.179,7.332,7.332,0,0,0,14.647.446A10.56,10.56,0,0,0,103.584,66.5Z" transform="translate(-89.789 -58.583)" fill="#f9d0b4"/>
      </g>
      <g id="Group_9103" data-name="Group 9103" transform="translate(21.736 29.276)">
        <path id="Path_16893" data-name="Path 16893" d="M135.281,160.318a.8.8,0,0,0,1.134-.081l3.143-3.626a14.4,14.4,0,0,1-1.537-.657c-.41-.2-.765-.385-.83-.427a2.532,2.532,0,0,1-.7-.67l-2.7,3.111a.8.8,0,0,0,.081,1.134Z" transform="translate(-133.6 -154.857)" fill="#9ef"/>
      </g>
      <g id="Group_9104" data-name="Group 9104" transform="translate(14.027 29.145)">
        <path id="Path_16894" data-name="Path 16894" d="M94.886,155.058a15.254,15.254,0,0,1-2.061.932l3.194,3.685a.8.8,0,0,0,1.134.081l1.4-1.216a.8.8,0,0,0,.081-1.134l-2.81-3.242A2.533,2.533,0,0,1,94.886,155.058Z" transform="translate(-92.825 -154.164)" fill="#f9d0b4"/>
      </g>
      <g id="Group_9105" data-name="Group 9105" transform="translate(14.027 29.145)">
        <path id="Path_16895" data-name="Path 16895" d="M96.02,159.675a.8.8,0,0,0,1.134.081l1.4-1.216a.8.8,0,0,0,.081-1.134l-2.81-3.242a2.533,2.533,0,0,1-.408.5l0,0a5.937,5.937,0,0,1-1.6.918c-.306.137-.628.269-.986.4h0Z" transform="translate(-92.826 -154.164)" fill="#9ef"/>
      </g>
      <g id="Group_9106" data-name="Group 9106" transform="translate(4.493 26.624)">
        <path id="Path_16896" data-name="Path 16896" d="M68.575,161.53v-8.311a.718.718,0,0,1,.783-.715l5.405.488a3.064,3.064,0,0,1-1.934-1.834l-1.992-4.768-1.909-.237-1.951-.491a14.343,14.343,0,0,1-1.382-.426l-3.143,3.626a.8.8,0,0,1-1.134.081l-1.4-1.216a.8.8,0,0,1-.081-1.134l2.7-3.111a2.526,2.526,0,0,1-.465-1.458V140.83a7.274,7.274,0,0,1-6.757,0v1.194a2.526,2.526,0,0,1-.378,1.327l2.81,3.242a.8.8,0,0,1-.081,1.134l-1.4,1.216a.8.8,0,0,1-1.134-.081l-3.194-3.685a24.525,24.525,0,0,1-5.608,1.213l-1.992,4.768a3.065,3.065,0,0,1-1.934,1.834L47.8,152.5a.718.718,0,0,1,.783.715v8.311a.6.6,0,0,0,.6.6h18.79a.6.6,0,0,0,.6-.6Z" transform="translate(-42.396 -140.83)" fill="#80bfff"/>
      </g>
      <g id="Group_9107" data-name="Group 9107" transform="translate(17.029 26.624)">
        <path id="Path_16897" data-name="Path 16897" d="M111.707,147.055h1.71a.8.8,0,0,1,.192-.461l2.7-3.111a2.526,2.526,0,0,1-.465-1.458v-1.194a7.274,7.274,0,0,1-6.757,0v1.194a2.526,2.526,0,0,1-.378,1.327l2.81,3.242A.8.8,0,0,1,111.707,147.055Z" transform="translate(-108.706 -140.831)" fill="#f9d0b4"/>
      </g>
      <g id="Group_9108" data-name="Group 9108" transform="translate(18.532 21.39)">
        <path id="Path_16898" data-name="Path 16898" d="M121.1,114.941a.471.471,0,0,1-.362-.169,2.275,2.275,0,0,0-3.249,0,.473.473,0,0,1-.724-.607,3.214,3.214,0,0,1,4.7,0,.473.473,0,0,1-.362.776Z" transform="translate(-116.654 -113.144)"/>
      </g>
      <g id="Group_9109" data-name="Group 9109" transform="translate(22.983 17.146)">
        <circle id="Ellipse_194" data-name="Ellipse 194" cx="0.887" cy="0.887" r="0.887"/>
      </g>
      <g id="Group_9110" data-name="Group 9110" transform="translate(17.028 17.146)">
        <circle id="Ellipse_195" data-name="Ellipse 195" cx="0.887" cy="0.887" r="0.887"/>
      </g>
      <g id="Group_9111" data-name="Group 9111" transform="translate(13.036 3.771)">
        <path id="Path_16899" data-name="Path 16899" d="M98.932,22.943a.473.473,0,0,1-.405-.23,3.741,3.741,0,0,0-3.187-1.821H93.189a7.066,7.066,0,0,0-4.811,1.894.473.473,0,1,1-.642-.694,8.008,8.008,0,0,1,5.453-2.146H95.34a4.688,4.688,0,0,1,3.747,1.9,4.593,4.593,0,0,1,3.86-.051.473.473,0,0,1-.383.864,3.693,3.693,0,0,0-3.388.211A.471.471,0,0,1,98.932,22.943Z" transform="translate(-87.585 -19.947)"/>
      </g>
      <g id="Group_9112" data-name="Group 9112" transform="translate(10.768 10.969)">
        <path id="Path_16900" data-name="Path 16900" d="M76.059,61.513a.473.473,0,0,1-.473-.472,6.846,6.846,0,0,1,.567-2.782.473.473,0,1,1,.82.471,5.815,5.815,0,0,0-.441,2.311.473.473,0,0,1-.472.473Z" transform="translate(-75.586 -58.021)"/>
      </g>
      <g id="Group_9113" data-name="Group 9113" transform="translate(0 5.54)">
        <path id="Path_16901" data-name="Path 16901" d="M22.18,63.172a3.553,3.553,0,0,1-1.52-.341,3.548,3.548,0,0,1-1.595-4.908l8.6-15.675a1.55,1.55,0,0,0,.164-.852c0-.027-.005-.048-.008-.061l-.708-2.694a6.49,6.49,0,0,1,.657-4.916l.011-.018,2.342-3.687a1.494,1.494,0,0,1,1.823-.61,1.459,1.459,0,0,1,.813.83,1.476,1.476,0,0,1-.043,1.159l-1.337,2.821a1.287,1.287,0,0,1,.756.374,3.572,3.572,0,0,1,.512,2.54c0,.179-.008.356-.008.527a9.262,9.262,0,0,0,.746,2.805l.017.045a2.78,2.78,0,0,1-.271,2.495,10.073,10.073,0,0,0-.839,1.61L25.491,60.9a3.544,3.544,0,0,1-3.311,2.274Zm6.4-28.966a5.55,5.55,0,0,0-.557,4.2l.713,2.715c0,.008.005.021.007.03s.011.056.021.156A2.5,2.5,0,0,1,28.5,42.69L19.894,58.377a2.6,2.6,0,1,0,4.718,2.171L31.42,44.257a11,11,0,0,1,.917-1.759,1.832,1.832,0,0,0,.185-1.643h0l-.017-.044a10.431,10.431,0,0,1-.81-3.146c0-.178,0-.363.008-.548.015-.7.034-1.575-.243-1.858a.416.416,0,0,0-.327-.107c-.051,0-.155,0-.3.212a.473.473,0,0,1-.818-.469L31.861,31a.524.524,0,0,0-.276-.71.559.559,0,0,0-.665.243Z" transform="translate(-18.628 -29.304)"/>
      </g>
      <g id="Group_9114" data-name="Group 9114" transform="translate(29.137 10.969)">
        <path id="Path_16902" data-name="Path 16902" d="M173.725,61.513a.473.473,0,0,1-.473-.473,5.837,5.837,0,0,0-.441-2.311.473.473,0,0,1,.82-.471,6.847,6.847,0,0,1,.567,2.782A.473.473,0,0,1,173.725,61.513Z" transform="translate(-172.748 -58.021)"/>
      </g>
      <g id="Group_9115" data-name="Group 9115" transform="translate(26.4 5.54)">
        <path id="Path_16903" data-name="Path 16903" d="M169.674,63.171a3.545,3.545,0,0,1-3.317-2.289L159.563,44.62a10.111,10.111,0,0,0-.84-1.613,2.78,2.78,0,0,1-.271-2.495l.017-.044a9.274,9.274,0,0,0,.747-2.806c0-.171,0-.349-.008-.527a3.573,3.573,0,0,1,.512-2.54,1.285,1.285,0,0,1,.756-.374L159.139,31.4a1.476,1.476,0,0,1-.043-1.159,1.458,1.458,0,0,1,.813-.83,1.494,1.494,0,0,1,1.823.61l2.342,3.687.011.018a6.49,6.49,0,0,1,.657,4.916l-.708,2.695c0,.012,0,.032-.007.06a1.561,1.561,0,0,0,.17.865l8.592,15.661a3.547,3.547,0,0,1-3.114,5.25Zm-8.952-28.022a.416.416,0,0,0-.327.107c-.277.283-.258,1.156-.243,1.858,0,.186.008.37.008.548a10.43,10.43,0,0,1-.81,3.147l-.017.043h0a1.831,1.831,0,0,0,.185,1.643,11.025,11.025,0,0,1,.918,1.761l6.8,16.274a2.6,2.6,0,1,0,4.724-2.157l-8.6-15.673a2.516,2.516,0,0,1-.275-1.4c.01-.1.021-.156.021-.156s0-.021.007-.03l.713-2.715a5.55,5.55,0,0,0-.557-4.2l-2.336-3.678a.559.559,0,0,0-.665-.243.524.524,0,0,0-.276.71l1.847,3.9a.473.473,0,0,1-.818.469C160.877,35.148,160.773,35.147,160.722,35.149Zm-1.83,5.534h0Z" transform="translate(-158.272 -29.302)"/>
      </g>
      <g id="Group_9116" data-name="Group 9116" transform="translate(13.147 10.603)">
        <path id="Path_16904" data-name="Path 16904" d="M90.837,59.983a9.911,9.911,0,0,1-1.956-.192.473.473,0,0,1-.51-.795.87.87,0,0,1,.672-.137,7.42,7.42,0,0,0,7.491-2.447.867.867,0,0,1,1.288-.08,7.207,7.207,0,0,0,4.952,1.767.473.473,0,0,1-.028.945,8.129,8.129,0,0,1-5.524-1.977A7.966,7.966,0,0,1,90.837,59.983Z" transform="translate(-88.168 -56.083)"/>
      </g>
      <g id="Group_9117" data-name="Group 9117" transform="translate(12.982 19.786)">
        <path id="Path_16905" data-name="Path 16905" d="M95.1,112.8a7.844,7.844,0,0,1-7.8-7.662.473.473,0,1,1,.945-.017,6.859,6.859,0,0,0,13.7.42.473.473,0,0,1,.942.075A7.845,7.845,0,0,1,95.1,112.8Z" transform="translate(-87.295 -104.656)"/>
      </g>
      <g id="Group_9118" data-name="Group 9118" transform="translate(24.156 28.804)">
        <path id="Path_16906" data-name="Path 16906" d="M149.939,155.058a.472.472,0,0,1-.161-.028,15.014,15.014,0,0,1-1.587-.679c-.767-.383-.837-.428-.875-.453a2.994,2.994,0,0,1-.827-.795.473.473,0,1,1,.772-.545,2.055,2.055,0,0,0,.567.545c.018.011.138.078.785.4a14.024,14.024,0,0,0,1.487.636.473.473,0,0,1-.161.917Z" transform="translate(-146.402 -152.358)"/>
      </g>
      <g id="Group_9119" data-name="Group 9119" transform="translate(13.554 28.672)">
        <path id="Path_16907" data-name="Path 16907" d="M94.6,158.4a1.275,1.275,0,0,1-.966-.44l-3.194-3.685a.473.473,0,0,1,.194-.753,14.688,14.688,0,0,0,2-.9,2.066,2.066,0,0,0,.766-.728.473.473,0,0,1,.759-.061l2.81,3.242a1.277,1.277,0,0,1-.129,1.8l-1.4,1.216A1.271,1.271,0,0,1,94.6,158.4Zm-3.007-4.238,2.755,3.179a.332.332,0,0,0,.468.033l1.4-1.216a.331.331,0,0,0,.033-.468l-2.433-2.807a3,3,0,0,1-.734.565A15.255,15.255,0,0,1,91.592,154.158Zm1.265-1.128h0Z" transform="translate(-90.324 -151.663)"/>
      </g>
      <g id="Group_9120" data-name="Group 9120" transform="translate(13.555 28.672)">
        <path id="Path_16908" data-name="Path 16908" d="M90.8,154.434a.473.473,0,0,1-.163-.916c.33-.122.643-.249.956-.389a5.735,5.735,0,0,0,1.472-.829l.008-.007a2.057,2.057,0,0,0,.327-.405.473.473,0,0,1,.8.5,3,3,0,0,1-.484.6L93.7,153a6.287,6.287,0,0,1-1.724.995c-.332.149-.665.284-1.016.413A.465.465,0,0,1,90.8,154.434Z" transform="translate(-90.328 -151.663)"/>
      </g>
      <g id="Group_9121" data-name="Group 9121" transform="translate(8.051 26.286)">
        <path id="Path_16909" data-name="Path 16909" d="M70.991,148.162a1.274,1.274,0,0,1-.966-.44l-2.982-3.441a25.857,25.857,0,0,1-5.3,1.116.473.473,0,1,1-.116-.938,23.834,23.834,0,0,0,5.4-1.175.473.473,0,0,1,.52.134L70.74,147.1a.332.332,0,0,0,.468.033l1.4-1.216a.331.331,0,0,0,.033-.468l-2.81-3.242a.472.472,0,0,1-.045-.558,2.054,2.054,0,0,0,.307-1.079v-1.059a.473.473,0,1,1,.945,0v1.059a2.994,2.994,0,0,1-.28,1.264l2.6,3a1.277,1.277,0,0,1-.129,1.8l-1.4,1.216A1.272,1.272,0,0,1,70.991,148.162Z" transform="translate(-61.212 -139.042)"/>
      </g>
      <g id="Group_9122" data-name="Group 9122" transform="translate(21.263 26.294)">
        <path id="Path_16910" data-name="Path 16910" d="M133.778,148.2a1.268,1.268,0,0,1-.834-.312l-1.4-1.216a1.277,1.277,0,0,1-.129-1.8l2.47-2.849a2.978,2.978,0,0,1-.353-1.411v-1.051a.473.473,0,1,1,.945,0v1.051a2.047,2.047,0,0,0,.378,1.186.472.472,0,0,1-.029.582l-2.7,3.111a.332.332,0,0,0,.033.468l1.4,1.216a.331.331,0,0,0,.468-.033l3.143-3.626a.473.473,0,0,1,.518-.135,13.932,13.932,0,0,0,1.337.412l1.923.484,1.792.222a.473.473,0,0,1-.116.938l-1.821-.226a.5.5,0,0,1-.057-.011L138.8,144.7c-.366-.092-.741-.2-1.12-.332l-2.932,3.383a1.268,1.268,0,0,1-.874.437Z" transform="translate(-131.101 -139.083)"/>
      </g>
      <g id="Group_9123" data-name="Group 9123" transform="translate(4.149 37.822)">
        <path id="Path_16911" data-name="Path 16911" d="M66.5,210.636H47.709a1.075,1.075,0,0,1-1.073-1.073v-8.311a.246.246,0,0,0-.268-.245l-5.276.476a.473.473,0,1,1-.085-.941l5.276-.476a1.191,1.191,0,0,1,1.3,1.186v8.311a.128.128,0,0,0,.128.128H66.5a.128.128,0,0,0,.128-.128v-8.311a1.191,1.191,0,0,1,1.3-1.186l5.267.476a.473.473,0,1,1-.085.941l-5.267-.476a.251.251,0,0,0-.188.063.244.244,0,0,0-.08.181v8.311A1.075,1.075,0,0,1,66.5,210.636Z" transform="translate(-40.577 -200.06)"/>
      </g>
      <g id="Group_9129" data-name="Group 9129" transform="translate(1.491 23.631)">
        <g id="Group_9128" data-name="Group 9128">
          <g id="Group_9127" data-name="Group 9127">
            <path id="Path_16913" data-name="Path 16913" d="M28.835,126.118a1.4,1.4,0,0,1-1.125-1.1c0-.025-.05-.025-.05,0a1.4,1.4,0,0,1-1.125,1.1c-.025,0-.025.038,0,.05a1.4,1.4,0,0,1,1.125,1.1c0,.025.05.025.05,0a1.4,1.4,0,0,1,1.125-1.1C28.86,126.156,28.86,126.118,28.835,126.118Z" transform="translate(-26.515 -124.999)" fill="#fc657e"/>
          </g>
        </g>
      </g>
      <g id="Group_9132" data-name="Group 9132" transform="translate(35.896 41.213)">
        <g id="Group_9131" data-name="Group 9131" transform="translate(0)">
          <g id="Group_9130" data-name="Group 9130">
            <path id="Path_16914" data-name="Path 16914" d="M211.185,219.04h-.435V218.6a.609.609,0,0,0-.6-.6.6.6,0,0,0-.6.6v.435H209.1a.609.609,0,0,0-.6.605.6.6,0,0,0,.6.6h.435v.435a.609.609,0,0,0,.6.6.6.6,0,0,0,.6-.6v-.435h.435a.609.609,0,0,0,.6-.6A.6.6,0,0,0,211.185,219.04Z" transform="translate(-208.5 -218)" fill="#9ef"/>
          </g>
        </g>
      </g>
      <g id="Group_9135" data-name="Group 9135" transform="translate(34.554 18.338)">
        <g id="Group_9134" data-name="Group 9134">
          <g id="Group_9133" data-name="Group 9133">
            <circle id="Ellipse_196" data-name="Ellipse 196" cx="0.643" cy="0.643" r="0.643" fill="#87d147"/>
          </g>
        </g>
      </g>
      <g id="Group_9141" data-name="Group 9141" transform="translate(33.23 46.507)">
        <g id="Group_9140" data-name="Group 9140" transform="translate(0)">
          <g id="Group_9139" data-name="Group 9139">
            <circle id="Ellipse_198" data-name="Ellipse 198" cx="0.643" cy="0.643" r="0.643" fill="#f5c84c"/>
          </g>
        </g>
      </g>
      <g id="Group_9142" data-name="Group 9142" transform="translate(19.677 32.376)">
        <path id="Path_16915" data-name="Path 16915" d="M124.6,172.2h-1.418a.473.473,0,1,1,0-.945H124.6a.473.473,0,1,1,0,.945Z" transform="translate(-122.708 -171.252)"/>
      </g>
      <g id="Group_9144" data-name="Group 9144" transform="translate(32.24 5.699)">
        <path id="Path_16917" data-name="Path 16917" d="M191.626,31.091h-1.992a.473.473,0,1,1,0-.945h1.992a.473.473,0,0,1,0,.945Z" transform="translate(-189.161 -30.146)"/>
      </g>
      <g id="Group_9145" data-name="Group 9145" transform="translate(31.154 1.669)">
        <path id="Path_16918" data-name="Path 16918" d="M183.89,11.183a.473.473,0,0,1-.334-.807l1.409-1.409a.473.473,0,0,1,.668.668l-1.409,1.409A.471.471,0,0,1,183.89,11.183Z" transform="translate(-183.417 -8.829)"/>
      </g>
    </g>
  </g>
</svg>
