<svg xmlns="http://www.w3.org/2000/svg" width="10.792" height="16" viewBox="0 0 10.792 16">
  <path id="Union_1" data-name="Union 1" d="M3.1,16v-.828a4.517,4.517,0,0,0-.8-2.564l-.268-.391a4.9,4.9,0,0,1-.863-2.775V5.78h.8a1.348,1.348,0,0,1,.33.041V9.365h.993V4.651H4.512V7.331H5.5L5.494.819a1.111,1.111,0,0,1,.454-.1,1.079,1.079,0,0,1,1.06.822,1.1,1.1,0,0,1,1.57-.064,1.061,1.061,0,0,1,.334.765v1.4a1.1,1.1,0,0,1,.773-.336,1.084,1.084,0,0,1,.772.3,1.061,1.061,0,0,1,.334.765v5.992a8.15,8.15,0,0,1-.336,2.507,9,9,0,0,0-.45,2.811V16Zm5.67-8.669h.992V4.669H8.767Zm-2.144,0h.992V3.287H6.623ZM1.8,4.651A1.723,1.723,0,0,1,0,2.977V0H.971V2.977a.762.762,0,0,0,.831.738h.127v.937Zm.127-.937V2.3H3.221V1.361H1.929V.01H4.523v3.7Z" fill="#fff"/>
</svg>
