<svg xmlns="http://www.w3.org/2000/svg" width="96.141" height="103.018" viewBox="0 0 96.141 103.018">
  <g id="Group_8994" data-name="Group 8994" transform="translate(-139.008 -110.157)">
    <path id="Path_16023" data-name="Path 16023" d="M263.773,99.274l-3.481.9L217.4,111.232l-3.481.9a6.591,6.591,0,0,0-4.731,8.019l15.095,58.534a6.591,6.591,0,0,0,8.019,4.731l.009,0,49.832-12.851.009,0a6.591,6.591,0,0,0,4.731-8.019l-15.095-58.534A6.591,6.591,0,0,0,263.773,99.274Z" transform="translate(-69.976 11.091)" fill="#f2f2f2"/>
    <path id="Path_16024" data-name="Path 16024" d="M276.205,113.068l-4.123,1.063-41.6,10.729-4.123,1.063a4.694,4.694,0,0,0-3.369,5.711l15.095,58.534a4.694,4.694,0,0,0,5.711,3.369l.009,0,49.832-12.851.009,0a4.694,4.694,0,0,0,3.369-5.711l-15.095-58.534a4.694,4.694,0,0,0-5.71-3.369Z" transform="translate(-81.935 -0.868)" fill="#fff"/>
    <path id="Path_16025" data-name="Path 16025" d="M422.479,238.945l-25.209,6.5a1.1,1.1,0,1,1-.548-2.123l25.209-6.5a1.1,1.1,0,1,1,.548,2.123Z" transform="translate(-231.321 -107.79)" fill="#f2f2f2"/>
    <path id="Path_16026" data-name="Path 16026" d="M433.612,256.881l-29.588,7.63a1.1,1.1,0,1,1-.548-2.123l29.588-7.63a1.1,1.1,0,0,1,.548,2.123Z" transform="translate(-237.151 -123.272)" fill="#f2f2f2"/>
    <path id="Path_16027" data-name="Path 16027" d="M452.747,356.319l-25.209,6.5a1.1,1.1,0,1,1-.548-2.123l25.209-6.5a1.1,1.1,0,1,1,.548,2.123Z" transform="translate(-257.449 -209.106)" fill="#f2f2f2"/>
    <path id="Path_16028" data-name="Path 16028" d="M463.88,374.255l-29.588,7.63a1.1,1.1,0,1,1-.548-2.123l29.588-7.63a1.1,1.1,0,0,1,.548,2.123Z" transform="translate(-263.279 -224.588)" fill="#f2f2f2"/>
    <path id="Path_16029" data-name="Path 16029" d="M483.016,473.692l-25.209,6.5a1.1,1.1,0,0,1-.548-2.123l25.209-6.5a1.1,1.1,0,0,1,.548,2.123Z" transform="translate(-283.576 -310.423)" fill="#f2f2f2"/>
    <path id="Path_16030" data-name="Path 16030" d="M494.149,491.628l-29.588,7.63a1.1,1.1,0,0,1-.548-2.123L493.6,489.5a1.1,1.1,0,1,1,.548,2.123Z" transform="translate(-289.406 -325.905)" fill="#f2f2f2"/>
    <path id="Path_16031" data-name="Path 16031" d="M301.1,292.173l-8.921,2.3a.526.526,0,0,1-.64-.378l-2.048-7.941a.526.526,0,0,1,.378-.64l8.921-2.3a.526.526,0,0,1,.64.378l2.048,7.941A.526.526,0,0,1,301.1,292.173Z" transform="translate(-139.455 -147.851)" fill="#e6e6e6"/>
    <path id="Path_16032" data-name="Path 16032" d="M331.369,409.546l-8.921,2.3a.526.526,0,0,1-.64-.378l-2.048-7.941a.526.526,0,0,1,.378-.64l8.921-2.3a.526.526,0,0,1,.64.378l2.048,7.941A.526.526,0,0,1,331.369,409.546Z" transform="translate(-165.583 -249.167)" fill="#e6e6e6"/>
    <path id="Path_16033" data-name="Path 16033" d="M361.637,526.919l-8.921,2.3a.526.526,0,0,1-.64-.378l-2.048-7.941a.526.526,0,0,1,.378-.64l8.921-2.3a.526.526,0,0,1,.64.378l2.048,7.941A.526.526,0,0,1,361.637,526.919Z" transform="translate(-191.711 -350.484)" fill="#e6e6e6"/>
    <path id="Path_16034" data-name="Path 16034" d="M497.258,209.052H445.777a6.591,6.591,0,0,0-6.584,6.584v60.449a6.591,6.591,0,0,0,6.584,6.584h51.481a6.591,6.591,0,0,0,6.584-6.584V215.635a6.591,6.591,0,0,0-6.584-6.584Z" transform="translate(-268.692 -83.849)" fill="#e6e6e6"/>
    <path id="Path_16035" data-name="Path 16035" d="M509.217,222.906H457.735a4.694,4.694,0,0,0-4.688,4.688v60.449a4.694,4.694,0,0,0,4.688,4.688h51.481a4.694,4.694,0,0,0,4.688-4.688V227.594A4.694,4.694,0,0,0,509.217,222.906Z" transform="translate(-280.651 -95.808)" fill="#fff"/>
    <circle id="Ellipse_78" data-name="Ellipse 78" cx="12.018" cy="12.018" r="12.018" transform="translate(175.956 189.138)" fill="#6e78f7"/>
    <path id="Path_16036" data-name="Path 16036" d="M862.761,665.363h-4.18v-4.18a1.568,1.568,0,0,0-3.135,0v4.18h-4.18a1.568,1.568,0,0,0,0,3.135h4.18v4.18a1.568,1.568,0,0,0,3.135,0V668.5h4.18a1.568,1.568,0,1,0,0-3.135Z" transform="translate(-669.039 -465.774)" fill="#fff"/>
    <path id="Path_16037" data-name="Path 16037" d="M635.815,451.88H609.781a1.1,1.1,0,1,1,0-2.193h26.034a1.1,1.1,0,1,1,0,2.193Z" transform="translate(-414.997 -291.565)" fill="#e6e6e6"/>
    <path id="Path_16038" data-name="Path 16038" d="M640.337,478.928H609.781a1.1,1.1,0,1,1,0-2.193h30.556a1.1,1.1,0,1,1,0,2.193Z" transform="translate(-414.997 -314.912)" fill="#e6e6e6"/>
    <path id="Path_16039" data-name="Path 16039" d="M635.815,573.093H609.781a1.1,1.1,0,1,1,0-2.193h26.034a1.1,1.1,0,0,1,0,2.193Z" transform="translate(-414.997 -396.196)" fill="#e6e6e6"/>
    <path id="Path_16040" data-name="Path 16040" d="M640.337,600.141H609.781a1.1,1.1,0,0,1,0-2.193h30.556a1.1,1.1,0,1,1,0,2.193Z" transform="translate(-414.997 -419.543)" fill="#e6e6e6"/>
    <path id="Path_16041" data-name="Path 16041" d="M512.62,446.661h-9.213a.526.526,0,0,1-.526-.526v-8.2a.526.526,0,0,1,.526-.526h9.213a.526.526,0,0,1,.526.526v8.2A.526.526,0,0,1,512.62,446.661Z" transform="translate(-323.668 -280.966)" fill="#e6e6e6"/>
    <path id="Path_16042" data-name="Path 16042" d="M512.62,567.875h-9.213a.526.526,0,0,1-.526-.526v-8.2a.526.526,0,0,1,.526-.526h9.213a.526.526,0,0,1,.526.526v8.2A.526.526,0,0,1,512.62,567.875Z" transform="translate(-323.668 -385.597)" fill="#e6e6e6"/>
    <path id="Path_16043" data-name="Path 16043" d="M679.186,316.945H659.992a1.1,1.1,0,0,1,0-2.193h19.194a1.1,1.1,0,0,1,0,2.193Z" transform="translate(-458.34 -175.09)" fill="#ccc"/>
    <path id="Path_16044" data-name="Path 16044" d="M683.708,343.993H659.992a1.1,1.1,0,0,1,0-2.193h23.716a1.1,1.1,0,0,1,0,2.193Z" transform="translate(-458.34 -198.437)" fill="#ccc"/>
    <path id="Path_16045" data-name="Path 16045" d="M520.891,296.835H503.2a.526.526,0,0,1-.526-.526V282.5a.526.526,0,0,1,.526-.526h17.695a.526.526,0,0,1,.526.526v13.81A.526.526,0,0,1,520.891,296.835Z" transform="translate(-323.485 -146.795)" fill="#7ebad1"/>
  </g>
</svg>
