<svg xmlns="http://www.w3.org/2000/svg" width="40.343" height="39.711" viewBox="0 0 40.343 39.711">
  <g id="healthcare" transform="translate(0 -4.01)">
    <g id="Group_8910" data-name="Group 8910" transform="translate(5.519 11.322)">
      <path id="Path_15773" data-name="Path 15773" d="M85.22,126.131c.471.385.705.595.942.6.234-.009.471-.219.942-.6L99.52,113.423a10.638,10.638,0,0,0,0-14.285c-3.337-3.569-8.816-2.776-12.292.642l-.653.642c-.379.372-.451.372-.838-.009l-.642-.633c-3.47-3.42-8.955-4.211-12.292-.642a10.638,10.638,0,0,0,0,14.285l1.489,1.525Z" transform="translate(-70.048 -96.812)" fill="#fd8087" fill-rule="evenodd"/>
    </g>
    <g id="Group_8911" data-name="Group 8911" transform="translate(17.08 11.323)">
      <path id="Path_15774" data-name="Path 15774" d="M223.921,98.542a15.731,15.731,0,0,1,2.823,8.97c0,.36-.014.716-.038,1.068a15.758,15.758,0,0,1-2.843,7.985,17.109,17.109,0,0,1-2.487,2.83,17.884,17.884,0,0,1-3.325,2.4q-.622.348-1.277.653l3.611,3.7c.471.385.705.595.942.6.234-.009.471-.219.942-.6l3.8-3.889,8.618-8.819a10.672,10.672,0,0,0,1.827-11.527,10.078,10.078,0,0,0-1.827-2.758,7.419,7.419,0,0,0-1.654-1.329,7.913,7.913,0,0,0-6.378-.595A10.269,10.269,0,0,0,223.921,98.542Z" transform="translate(-216.772 -96.824)" fill="#fe636e" fill-rule="evenodd"/>
    </g>
    <g id="Group_8912" data-name="Group 8912" transform="translate(26.921 4.601)">
      <path id="Path_15775" data-name="Path 15775" d="M348.08,24.341a6.416,6.416,0,1,0-6.416-6.417A6.427,6.427,0,0,0,348.08,24.341Z" transform="translate(-341.664 -11.51)" fill="#e1f9ff" fill-rule="evenodd"/>
    </g>
    <g id="Group_8913" data-name="Group 8913" transform="translate(30.749 4.601)">
      <path id="Path_15776" data-name="Path 15776" d="M390.53,11.934a6.416,6.416,0,0,1,3.828,5.872c0,.041,0,.081,0,.119a6.35,6.35,0,0,1-.4,2.12,6.431,6.431,0,0,1-3.713,3.751,6.414,6.414,0,1,0,.288-11.863Z" transform="translate(-390.242 -11.51)" fill="#c2e8ef" fill-rule="evenodd"/>
    </g>
    <g id="Group_8914" data-name="Group 8914" transform="translate(4.748 29.09)">
      <path id="Path_15777" data-name="Path 15777" d="M61.57,324.1l-1.316,4.267,1.316,4.522,6.06,1.649,4.916,1.336c2.868.892,4.134.383,6.772-.464l9.667-3.1c2.776-.89,2.361-4.707-1.7-3.4l-5.4,1.057-.883.173a5.847,5.847,0,0,1-2.814.155l-4.319-.789-.784-.144a1.374,1.374,0,0,1,.464-2.7c1.045.133,2.447.322,3.645.446l.072.007c2.314.234,3.242-1.494,2.415-2.837a3.033,3.033,0,0,0-1.728-1.237l-3.256-.6c-2.111-.387-3.611.095-6.887.633l-1.845.3Z" transform="translate(-60.254 -322.3)" fill="#fed1a3" fill-rule="evenodd"/>
    </g>
    <g id="Group_8915" data-name="Group 8915" transform="translate(0.591 29.888)">
      <path id="Path_15778" data-name="Path 15778" d="M7.5,332.667v10.4a.278.278,0,0,0,.3.237h4.862a.279.279,0,0,0,.306-.237v-10.4a.279.279,0,0,0-.306-.237H7.8A.277.277,0,0,0,7.5,332.667Z" transform="translate(-7.5 -332.43)" fill="#0880ae" fill-rule="evenodd"/>
    </g>
    <g id="Group_8916" data-name="Group 8916" transform="translate(0.591 38.925)">
      <path id="Path_15779" data-name="Path 15779" d="M7.5,447.123v1.6a.278.278,0,0,0,.3.237h4.862a.279.279,0,0,0,.306-.237v-1.6a.28.28,0,0,1-.306.237H7.8A.279.279,0,0,1,7.5,447.123Z" transform="translate(-7.5 -447.123)" fill="#62dbfb" fill-rule="evenodd"/>
    </g>
    <g id="Group_8917" data-name="Group 8917" transform="translate(6.063 36.244)">
      <path id="Path_15780" data-name="Path 15780" d="M76.952,415.776v.753l6.06,1.649,4.916,1.336c2.868.892,4.134.383,6.772-.464l9.667-3.1c1.566-.5,2.116-1.933,1.57-2.855a2.585,2.585,0,0,1-1.57,1.257l-9.667,3.1c-2.638.845-3.9,1.356-6.772.464l-4.916-1.336-6.06-1.652Z" transform="translate(-76.952 -413.095)" fill="#ffbc85" fill-rule="evenodd"/>
    </g>
    <g id="Group_8918" data-name="Group 8918" transform="translate(16.525 31.258)">
      <path id="Path_15781" data-name="Path 15781" d="M211.233,350.408a1.367,1.367,0,0,0-1.264,2.154,1.258,1.258,0,0,1,1.264-.556c1.045.133,2.447.322,3.645.446l.072.007c2.206.223,3.152-1.334,2.521-2.643a1.854,1.854,0,0,1-.865.811,3.1,3.1,0,0,1-1.656.234l-.072-.007C213.679,350.73,212.278,350.541,211.233,350.408Z" transform="translate(-209.72 -349.815)" fill="#ffbc85" fill-rule="evenodd"/>
    </g>
    <g id="Group_8919" data-name="Group 8919" transform="translate(0 4.01)">
      <path id="Path_15782" data-name="Path 15782" d="M145.989,198.4a.591.591,0,0,0,.506-.286l1.066-1.771,1.413,2.245a.591.591,0,0,0,1.013-.021l2.274-3.974,3.055,5.567a.591.591,0,0,0,.508.307h.01a.591.591,0,0,0,.508-.289l1.9-3.195h4.589a.591.591,0,1,0,0-1.182h-4.925a.591.591,0,0,0-.508.289l-1.546,2.6L152.79,193.1a.591.591,0,0,0-.513-.307h-.005a.591.591,0,0,0-.513.3l-2.309,4.035-1.4-2.224a.591.591,0,0,0-.5-.276h-.006a.591.591,0,0,0-.5.286l-1.389,2.307H142.3a.591.591,0,0,0,0,1.182Z" transform="translate(-130.539 -177.918)" fill="#0880ae"/>
      <path id="Path_15783" data-name="Path 15783" d="M388.9,55.8a.591.591,0,0,0-.591.591v1.743h-1.743a.591.591,0,1,0,0,1.182h1.743v1.743a.591.591,0,0,0,1.182,0V59.311h1.743a.591.591,0,0,0,0-1.182H389.49V56.386A.591.591,0,0,0,388.9,55.8Z" transform="translate(-355.561 -51.715)" fill="#0880ae"/>
      <path id="Path_15784" data-name="Path 15784" d="M35.423,28.338a11.244,11.244,0,0,0,2.122-11.722A7.005,7.005,0,1,0,28.962,5.543a.591.591,0,1,0,.739.923,5.758,5.758,0,0,1,3.636-1.274,5.825,5.825,0,1,1-5.787,6.481c0-.007,0-.013,0-.02a5.857,5.857,0,0,1-.036-.638,5.746,5.746,0,0,1,.609-2.593.591.591,0,1,0-1.057-.529,6.918,6.918,0,0,0-.734,3.121c0,.1,0,.2.007.3a11.174,11.174,0,0,0-4.052,2.559l-.653.642-.009-.009-.642-.633a10.483,10.483,0,0,0-7.463-3.138,7.821,7.821,0,0,0-5.676,2.513.591.591,0,1,0,.864.808,6.66,6.66,0,0,1,4.836-2.138,9.3,9.3,0,0,1,6.609,2.8l.643.634a1.259,1.259,0,0,0,.839.458,1.24,1.24,0,0,0,.827-.449l.653-.642a10.03,10.03,0,0,1,3.379-2.2,7,7,0,0,0,10.032,4.741,10.043,10.043,0,0,1-1.96,10.27L26.08,36.209l-.7.137-.458.091a4.5,4.5,0,0,1-2.146.062l-5.055-.924a.775.775,0,0,1-.581-.951.721.721,0,0,1,.81-.593l.014,0,.727.093c.957.124,2.042.263,3,.362,1.97.2,3.084-.834,3.316-1.949.236-1.135-.411-2.645-2.389-3.276a.712.712,0,0,0-.073-.018l-3.255-.6a13.45,13.45,0,0,0-5.221.3c-.55.1-1.174.213-1.869.327l-1.543.254-.475-.486L8.7,27.526A10.107,10.107,0,0,1,7.207,16.188a.591.591,0,0,0-1.052-.539A11.305,11.305,0,0,0,7.842,28.338l.009.009,1.387,1.42-2.583.425v-.067a.866.866,0,0,0-.9-.827H.9a.864.864,0,0,0-.9.827v10.4a.864.864,0,0,0,.9.827H5.757a.866.866,0,0,0,.9-.827v-.072L11.969,41.9l4.906,1.333a9.491,9.491,0,0,0,2.845.491,12.245,12.245,0,0,0,3.873-.83l.4-.129,9.667-3.1A3.016,3.016,0,0,0,35.792,37.5a2.1,2.1,0,0,0-.62-2.032c-.449-.407-1.5-.992-3.54-.348l-3.51.686,7.292-7.462.009-.009ZM1.182,40.168V30.479H5.472v.406s0,0,0,0v9.28Zm30.777-3.909a2.576,2.576,0,0,1,2.42.087.925.925,0,0,1,.258.906A1.858,1.858,0,0,1,33.3,38.535l-9.668,3.1-.4.13c-2.313.747-3.473,1.123-6.014.333l-.02-.006L6.654,39.226V31.389l5.741-.943c.7-.116,1.334-.231,1.889-.332a12.421,12.421,0,0,1,4.8-.3l3.217.59c1.254.412,1.687,1.27,1.556,1.9-.15.726-.951,1.124-2.038,1.013-.947-.1-2.023-.236-2.973-.358l-.723-.093a1.889,1.889,0,0,0-2.13,1.492,2,2,0,0,0-.048.581,1.96,1.96,0,0,0,1.453,1.777c.024.008.351.069.351.069l4.826.882.016,0a5.331,5.331,0,0,0,2.038.034c.16-.028.812-.161.98-.193l1.064-.208s5.269-1.032,5.291-1.039Z" transform="translate(0 -4.01)" fill="#0880ae"/>
    </g>
  </g>
</svg>
