<svg id="wristwatch" xmlns="http://www.w3.org/2000/svg" width="16.466" height="23.225" viewBox="0 0 16.466 23.225">
  <g id="Group_250" data-name="Group 250" transform="translate(2.434)">
    <path id="Path_548" data-name="Path 548" d="M52.952,6.553a.581.581,0,0,1-.577-.524L52,2.182a1.127,1.127,0,0,0-1.125-1.021H44.6A1.127,1.127,0,0,0,43.47,2.182l-.377,3.847a.581.581,0,0,1-1.155-.113l.377-3.847A2.284,2.284,0,0,1,44.6,0h6.278a2.284,2.284,0,0,1,2.281,2.069l.377,3.847a.581.581,0,0,1-.521.634l-.057,0Zm0,0" transform="translate(-41.935 0)" fill="#6e78f7"/>
    <path id="Path_549" data-name="Path 549" d="M50.851,293.689H44.573a2.284,2.284,0,0,1-2.281-2.069l-.377-3.847a.581.581,0,1,1,1.156-.113l.377,3.847a1.127,1.127,0,0,0,1.126,1.021h6.278a1.127,1.127,0,0,0,1.125-1.021l.377-3.847a.581.581,0,0,1,1.156.113l-.377,3.847a2.284,2.284,0,0,1-2.281,2.069Zm0,0" transform="translate(-41.912 -270.464)" fill="#6e78f7"/>
    <path id="Path_550" data-name="Path 550" d="M134.528,145.514h-2.154a.581.581,0,0,1-.581-.581V142.12a.581.581,0,0,1,1.161,0v2.233h1.574a.581.581,0,0,1,0,1.161Zm0,0" transform="translate(-126.575 -133.321)" fill="#6e78f7"/>
  </g>
  <path id="Path_551" data-name="Path 551" d="M48.2,100.641a5.769,5.769,0,1,0,5.769,5.769A5.769,5.769,0,0,0,48.2,100.641Zm0,10.377a4.608,4.608,0,1,1,4.608-4.608A4.608,4.608,0,0,1,48.2,111.018Zm0,0" transform="translate(-39.97 -94.797)" fill="#6e78f7"/>
  <path id="Path_552" data-name="Path 552" d="M8.233,58.207a8.233,8.233,0,1,0,8.233,8.233A8.242,8.242,0,0,0,8.233,58.207Zm0,15.3A7.072,7.072,0,1,1,15.3,66.44,7.072,7.072,0,0,1,8.233,73.512Zm0,0" transform="translate(0 -54.827)" fill="#6e78f7"/>
</svg>
